<?xml version="1.0" encoding="UTF-8" standalone="no"?>
<svg
   width="598.4342"
   height="198.25323"
   viewBox="0 0 2393.7368 793.01293"
   version="1.1"
   id="svg61"
   sodipodi:docname="cavity-new.svg"
   inkscape:version="1.3.2 (1:1.3.2+202311252150+091e20ef0f)"
   xmlns:inkscape="http://www.inkscape.org/namespaces/inkscape"
   xmlns:sodipodi="http://sodipodi.sourceforge.net/DTD/sodipodi-0.dtd"
   xmlns="http://www.w3.org/2000/svg"
   xmlns:svg="http://www.w3.org/2000/svg"
   xmlns:ns2="http://www.iki.fi/pav/software/textext/">
  <sodipodi:namedview
     id="namedview61"
     pagecolor="#ffffff"
     bordercolor="#666666"
     borderopacity="1.0"
     inkscape:showpageshadow="2"
     inkscape:pageopacity="0.0"
     inkscape:pagecheckerboard="0"
     inkscape:deskcolor="#d1d1d1"
     inkscape:zoom="1"
     inkscape:cx="274"
     inkscape:cy="47"
     inkscape:window-width="1920"
     inkscape:window-height="1016"
     inkscape:window-x="0"
     inkscape:window-y="27"
     inkscape:window-maximized="1"
     inkscape:current-layer="svg61" />
  <defs
     id="defs1">
    <clipPath
       id="clip660">
      <rect
         x="0"
         y="0"
         width="2400"
         height="800"
         id="rect1" />
    </clipPath>
    <g
       id="id-88ee27c9-1944-42a2-827f-f6edaf02f41d">
      <symbol
         overflow="visible"
         id="id-ac4c02f4-5051-4212-9338-706aed8ab983">
        <path
           style="stroke:none;stroke-width:0"
           d=""
           id="id-158d91d8-6b1d-4240-b0e7-a2d61b9d30b3" />
      </symbol>
      <symbol
         overflow="visible"
         id="id-b8630a1e-2d47-442a-ae07-72842cd1cdc7">
        <path
           style="stroke:none;stroke-width:0"
           d="M 3.015625,-3.15625 H 4.71875 c 1.40625,0 2.796875,-1.03125 2.796875,-2.140625 0,-0.78125 -0.65625,-1.515625 -1.96875,-1.515625 h -3.21875 c -0.1875,0 -0.296875,0 -0.296875,0.1875 0,0.125 0.078125,0.125 0.28125,0.125 0.125,0 0.3125,0.015625 0.421875,0.015625 0.171875,0.03125 0.21875,0.046875 0.21875,0.171875 0,0.03125 0,0.0625 -0.03125,0.1875 l -1.34375,5.34375 c -0.09375,0.390625 -0.109375,0.46875 -0.90625,0.46875 -0.15625,0 -0.265625,0 -0.265625,0.1875 C 0.40625,0 0.515625,0 0.546875,0 0.828125,0 1.53125,-0.03125 1.8125,-0.03125 c 0.21875,0 0.4375,0.015625 0.640625,0.015625 0.21875,0 0.4375,0.015625 0.640625,0.015625 0.078125,0 0.203125,0 0.203125,-0.203125 0,-0.109375 -0.09375,-0.109375 -0.28125,-0.109375 -0.359375,0 -0.640625,0 -0.640625,-0.171875 0,-0.0625 0.015625,-0.109375 0.03125,-0.171875 z M 3.734375,-6.125 C 3.828125,-6.46875 3.84375,-6.5 4.28125,-6.5 h 0.953125 c 0.828125,0 1.359375,0.265625 1.359375,0.953125 0,0.390625 -0.203125,1.25 -0.59375,1.609375 -0.5,0.453125 -1.09375,0.53125 -1.53125,0.53125 H 3.0625 Z m 0,0"
           id="id-06961f39-8318-407f-b2f3-54d2c7030c42" />
      </symbol>
      <symbol
         overflow="visible"
         id="id-07ea8c6c-98e9-418b-8aa8-dde5dd68a8ea">
        <path
           style="stroke:none;stroke-width:0"
           d="M 3.328125,-3.015625 C 3.390625,-3.265625 3.625,-4.1875 4.3125,-4.1875 c 0.046875,0 0.296875,0 0.5,0.125 C 4.53125,-4 4.34375,-3.765625 4.34375,-3.515625 c 0,0.15625 0.109375,0.34375 0.375,0.34375 0.21875,0 0.53125,-0.171875 0.53125,-0.578125 0,-0.515625 -0.578125,-0.65625 -0.921875,-0.65625 -0.578125,0 -0.921875,0.53125 -1.046875,0.75 -0.25,-0.65625 -0.78125,-0.75 -1.078125,-0.75 -1.03125,0 -1.609375,1.28125 -1.609375,1.53125 0,0.109375 0.109375,0.109375 0.125,0.109375 0.078125,0 0.109375,-0.03125 0.125,-0.109375 0.34375,-1.0625 1,-1.3125 1.34375,-1.3125 0.1875,0 0.53125,0.09375 0.53125,0.671875 0,0.3125 -0.171875,0.96875 -0.53125,2.375 -0.15625,0.609375 -0.515625,1.03125 -0.953125,1.03125 -0.0625,0 -0.28125,0 -0.5,-0.125 0.25,-0.0625 0.46875,-0.265625 0.46875,-0.546875 0,-0.265625 -0.21875,-0.34375 -0.359375,-0.34375 -0.3125,0 -0.546875,0.25 -0.546875,0.578125 0,0.453125 0.484375,0.65625 0.921875,0.65625 0.671875,0 1.03125,-0.703125 1.046875,-0.75 0.125,0.359375 0.484375,0.75 1.078125,0.75 1.03125,0 1.59375,-1.28125 1.59375,-1.53125 0,-0.109375 -0.078125,-0.109375 -0.109375,-0.109375 -0.09375,0 -0.109375,0.046875 -0.140625,0.109375 -0.328125,1.078125 -1,1.3125 -1.3125,1.3125 -0.390625,0 -0.546875,-0.3125 -0.546875,-0.65625 0,-0.21875 0.046875,-0.4375 0.15625,-0.875 z m 0,0"
           id="id-b6e5b1f8-1628-4071-9ffc-b1af4ba4c8a2" />
      </symbol>
      <symbol
         overflow="visible"
         id="id-631cc9d9-af7e-45ad-b1df-dd738571b336">
        <path
           style="stroke:none;stroke-width:0"
           d=""
           id="id-692b6f9a-a810-4222-b4ff-52f825a87c24" />
      </symbol>
      <symbol
         overflow="visible"
         id="id-41921de7-c1e0-461d-acc2-960f4db0f64e">
        <path
           style="stroke:none;stroke-width:0"
           d="m 3.296875,2.390625 c 0,-0.03125 0,-0.046875 -0.171875,-0.21875 C 1.890625,0.921875 1.5625,-0.96875 1.5625,-2.5 c 0,-1.734375 0.375,-3.46875 1.609375,-4.703125 0.125,-0.125 0.125,-0.140625 0.125,-0.171875 0,-0.078125 -0.03125,-0.109375 -0.09375,-0.109375 -0.109375,0 -1,0.6875 -1.59375,1.953125 -0.5,1.09375 -0.625,2.203125 -0.625,3.03125 0,0.78125 0.109375,1.984375 0.65625,3.125 C 2.25,1.84375 3.09375,2.5 3.203125,2.5 c 0.0625,0 0.09375,-0.03125 0.09375,-0.109375 z m 0,0"
           id="id-d3cf6418-5259-4e5d-ac1e-dab6840ad513" />
      </symbol>
      <symbol
         overflow="visible"
         id="id-ffccdeab-a5ed-4dd5-a788-1c3336aa8f29">
        <path
           style="stroke:none;stroke-width:0"
           d="m 2.875,-2.5 c 0,-0.765625 -0.109375,-1.96875 -0.65625,-3.109375 -0.59375,-1.21875 -1.453125,-1.875 -1.546875,-1.875 -0.0625,0 -0.109375,0.046875 -0.109375,0.109375 0,0.03125 0,0.046875 0.1875,0.234375 0.984375,0.984375 1.546875,2.5625 1.546875,4.640625 0,1.71875 -0.359375,3.46875 -1.59375,4.71875 C 0.5625,2.34375 0.5625,2.359375 0.5625,2.390625 0.5625,2.453125 0.609375,2.5 0.671875,2.5 0.765625,2.5 1.671875,1.8125 2.25,0.546875 2.765625,-0.546875 2.875,-1.65625 2.875,-2.5 Z m 0,0"
           id="id-81129308-6e86-4e77-b0ba-8c1ffda1c595" />
      </symbol>
      <symbol
         overflow="visible"
         id="id-aef137f9-174c-46b2-80a1-823cfff27f16">
        <path
           style="stroke:none;stroke-width:0"
           d=""
           id="id-0e150d03-30a1-41c5-b542-0267a2bfb2e3" />
      </symbol>
      <symbol
         overflow="visible"
         id="id-6cbf3156-45e6-4b2e-8ec4-5094e485a2a2">
        <path
           style="stroke:none;stroke-width:0"
           d="m 2.25,-1.734375 c 0.578125,-0.25 0.828125,-0.34375 1,-0.4375 0.140625,-0.046875 0.203125,-0.078125 0.203125,-0.21875 0,-0.109375 -0.09375,-0.21875 -0.21875,-0.21875 -0.046875,0 -0.0625,0 -0.140625,0.0625 L 2.140625,-1.90625 2.25,-2.9375 c 0.015625,-0.125 0,-0.296875 -0.21875,-0.296875 -0.078125,0 -0.21875,0.046875 -0.21875,0.203125 0,0.0625 0.03125,0.265625 0.046875,0.34375 0.015625,0.109375 0.0625,0.625 0.078125,0.78125 L 0.984375,-2.546875 c -0.0625,-0.03125 -0.078125,-0.0625 -0.140625,-0.0625 -0.140625,0 -0.21875,0.109375 -0.21875,0.21875 0,0.140625 0.078125,0.1875 0.140625,0.203125 L 1.8125,-1.734375 c -0.5625,0.25 -0.828125,0.34375 -1,0.421875 -0.125,0.0625 -0.1875,0.09375 -0.1875,0.21875 0,0.125 0.078125,0.21875 0.21875,0.21875 0.046875,0 0.0625,0 0.140625,-0.0625 l 0.953125,-0.625 -0.125,1.109375 c 0,0.15625 0.140625,0.21875 0.21875,0.21875 0.09375,0 0.21875,-0.0625 0.21875,-0.21875 0,-0.0625 -0.03125,-0.265625 -0.03125,-0.328125 -0.015625,-0.125 -0.0625,-0.625 -0.078125,-0.78125 L 2.96875,-1.015625 C 3.15625,-0.875 3.171875,-0.875 3.234375,-0.875 c 0.125,0 0.21875,-0.09375 0.21875,-0.21875 0,-0.140625 -0.09375,-0.171875 -0.15625,-0.203125 z m 0,0"
           id="id-d6fe3298-545c-4775-a9cc-388ad2cbb160" />
      </symbol>
    </g>
    <g
       id="id-1014b0d7-9a84-4db4-ad30-9abc6760cbbc">
      <symbol
         overflow="visible"
         id="id-929114e3-a880-4cea-9bc3-5c01d16c89ec">
        <path
           style="stroke:none;stroke-width:0"
           d=""
           id="id-d71df07d-953f-41d0-b6fd-763474b5e1f3" />
      </symbol>
      <symbol
         overflow="visible"
         id="id-5c9d33d2-e3fc-470d-b323-f882a2031ed8">
        <path
           style="stroke:none;stroke-width:0"
           d="M 3.328125,-3.015625 C 3.390625,-3.265625 3.625,-4.1875 4.3125,-4.1875 c 0.046875,0 0.296875,0 0.5,0.125 C 4.53125,-4 4.34375,-3.765625 4.34375,-3.515625 c 0,0.15625 0.109375,0.34375 0.375,0.34375 0.21875,0 0.53125,-0.171875 0.53125,-0.578125 0,-0.515625 -0.578125,-0.65625 -0.921875,-0.65625 -0.578125,0 -0.921875,0.53125 -1.046875,0.75 -0.25,-0.65625 -0.78125,-0.75 -1.078125,-0.75 -1.03125,0 -1.609375,1.28125 -1.609375,1.53125 0,0.109375 0.109375,0.109375 0.125,0.109375 0.078125,0 0.109375,-0.03125 0.125,-0.109375 0.34375,-1.0625 1,-1.3125 1.34375,-1.3125 0.1875,0 0.53125,0.09375 0.53125,0.671875 0,0.3125 -0.171875,0.96875 -0.53125,2.375 -0.15625,0.609375 -0.515625,1.03125 -0.953125,1.03125 -0.0625,0 -0.28125,0 -0.5,-0.125 0.25,-0.0625 0.46875,-0.265625 0.46875,-0.546875 0,-0.265625 -0.21875,-0.34375 -0.359375,-0.34375 -0.3125,0 -0.546875,0.25 -0.546875,0.578125 0,0.453125 0.484375,0.65625 0.921875,0.65625 0.671875,0 1.03125,-0.703125 1.046875,-0.75 0.125,0.359375 0.484375,0.75 1.078125,0.75 1.03125,0 1.59375,-1.28125 1.59375,-1.53125 0,-0.109375 -0.078125,-0.109375 -0.109375,-0.109375 -0.09375,0 -0.109375,0.046875 -0.140625,0.109375 -0.328125,1.078125 -1,1.3125 -1.3125,1.3125 -0.390625,0 -0.546875,-0.3125 -0.546875,-0.65625 0,-0.21875 0.046875,-0.4375 0.15625,-0.875 z m 0,0"
           id="id-4d43be2f-af9d-4f5f-a4eb-db860b25e751" />
      </symbol>
      <symbol
         overflow="visible"
         id="id-04d5c640-364f-4a3a-8c17-c9c0a4a52f93">
        <path
           style="stroke:none;stroke-width:0"
           d=""
           id="id-85fda09d-efa9-4891-873a-420ab54c850a" />
      </symbol>
      <symbol
         overflow="visible"
         id="id-b63b00bc-9610-4a68-8623-d1128bc32ddb">
        <path
           style="stroke:none;stroke-width:0"
           d="m 2.25,-1.734375 c 0.578125,-0.25 0.828125,-0.34375 1,-0.4375 0.140625,-0.046875 0.203125,-0.078125 0.203125,-0.21875 0,-0.109375 -0.09375,-0.21875 -0.21875,-0.21875 -0.046875,0 -0.0625,0 -0.140625,0.0625 L 2.140625,-1.90625 2.25,-2.9375 c 0.015625,-0.125 0,-0.296875 -0.21875,-0.296875 -0.078125,0 -0.21875,0.046875 -0.21875,0.203125 0,0.0625 0.03125,0.265625 0.046875,0.34375 0.015625,0.109375 0.0625,0.625 0.078125,0.78125 L 0.984375,-2.546875 c -0.0625,-0.03125 -0.078125,-0.0625 -0.140625,-0.0625 -0.140625,0 -0.21875,0.109375 -0.21875,0.21875 0,0.140625 0.078125,0.1875 0.140625,0.203125 L 1.8125,-1.734375 c -0.5625,0.25 -0.828125,0.34375 -1,0.421875 -0.125,0.0625 -0.1875,0.09375 -0.1875,0.21875 0,0.125 0.078125,0.21875 0.21875,0.21875 0.046875,0 0.0625,0 0.140625,-0.0625 l 0.953125,-0.625 -0.125,1.109375 c 0,0.15625 0.140625,0.21875 0.21875,0.21875 0.09375,0 0.21875,-0.0625 0.21875,-0.21875 0,-0.0625 -0.03125,-0.265625 -0.03125,-0.328125 -0.015625,-0.125 -0.0625,-0.625 -0.078125,-0.78125 L 2.96875,-1.015625 C 3.15625,-0.875 3.171875,-0.875 3.234375,-0.875 c 0.125,0 0.21875,-0.09375 0.21875,-0.21875 0,-0.140625 -0.09375,-0.171875 -0.15625,-0.203125 z m 0,0"
           id="id-8c3ec33f-1be7-4478-bc7f-b3f716b40393" />
      </symbol>
    </g>
  </defs>
  <defs
     id="defs2">
    <clipPath
       id="clip661">
      <rect
         x="480"
         y="0"
         width="1681"
         height="800"
         id="rect2" />
    </clipPath>
  </defs>
  <defs
     id="defs3">
    <clipPath
       id="clip662">
      <rect
         x="221"
         y="0"
         width="2132"
         height="800"
         id="rect3" />
    </clipPath>
  </defs>
  <defs
     id="defs4">
    <clipPath
       id="clip663">
      <rect
         x="196"
         y="47"
         width="2157"
         height="626"
         id="rect4" />
    </clipPath>
  </defs>
  <polyline
     clip-path="url(#clip660)"
     style="fill:none;stroke:#000000;stroke-width:4;stroke-linecap:round;stroke-linejoin:round;stroke-opacity:1"
     points="196.875,672.22 2352.76,672.22 "
     id="polyline4"
     transform="translate(38.976788,-45.2441)" />
  <polyline
     clip-path="url(#clip660)"
     style="fill:none;stroke:#000000;stroke-width:4;stroke-linecap:round;stroke-linejoin:round;stroke-opacity:1"
     points="457.806,672.22 457.806,653.322 "
     id="polyline5"
     transform="translate(38.976788,-45.2441)" />
  <polyline
     clip-path="url(#clip660)"
     style="fill:none;stroke:#000000;stroke-width:4;stroke-linecap:round;stroke-linejoin:round;stroke-opacity:1"
     points="790.999,672.22 790.999,653.322 "
     id="polyline6"
     transform="translate(38.976788,-45.2441)" />
  <polyline
     clip-path="url(#clip660)"
     style="fill:none;stroke:#000000;stroke-width:4;stroke-linecap:round;stroke-linejoin:round;stroke-opacity:1"
     points="1124.19,672.22 1124.19,653.322 "
     id="polyline7"
     transform="translate(38.976788,-45.2441)" />
  <polyline
     clip-path="url(#clip660)"
     style="fill:none;stroke:#000000;stroke-width:4;stroke-linecap:round;stroke-linejoin:round;stroke-opacity:1"
     points="1457.38,672.22 1457.38,653.322 "
     id="polyline8"
     transform="translate(38.976788,-45.2441)" />
  <polyline
     clip-path="url(#clip660)"
     style="fill:none;stroke:#000000;stroke-width:4;stroke-linecap:round;stroke-linejoin:round;stroke-opacity:1"
     points="1790.58,672.22 1790.58,653.322 "
     id="polyline9"
     transform="translate(38.976788,-45.2441)" />
  <polyline
     clip-path="url(#clip660)"
     style="fill:none;stroke:#000000;stroke-width:4;stroke-linecap:round;stroke-linejoin:round;stroke-opacity:1"
     points="2123.77,672.22 2123.77,653.322 "
     id="polyline10"
     transform="translate(38.976788,-45.2441)" />
  <path
     clip-path="url(#clip660)"
     d="m 420.607,703.139 q -3.611,0 -5.439,3.564 -1.806,3.542 -1.806,10.672 0,7.106 1.806,10.671 1.828,3.541 5.439,3.541 3.635,0 5.44,-3.541 1.829,-3.565 1.829,-10.671 0,-7.13 -1.829,-10.672 -1.805,-3.564 -5.44,-3.564 m 0,-3.704 q 5.811,0 8.866,4.606 3.079,4.584 3.079,13.334 0,8.726 -3.079,13.333 -3.055,4.583 -8.866,4.583 -5.81,0 -8.888,-4.583 -3.056,-4.607 -3.056,-13.333 0,-8.75 3.056,-13.334 3.078,-4.606 8.888,-4.606 z"
     fill="#000000"
     fill-rule="nonzero"
     fill-opacity="1"
     id="path10"
     transform="matrix(1.1155734,0,0,1.1155734,-8.253775,-126.08016)" />
  <path
     clip-path="url(#clip660)"
     d="m 440.769,728.74 h 4.885 v 5.88 h -4.885 z"
     fill="#000000"
     fill-rule="nonzero"
     fill-opacity="1"
     id="path11"
     transform="matrix(1.1155734,0,0,1.1155734,-8.253775,-126.08016)" />
  <path
     clip-path="url(#clip660)"
     d="m 454.658,700.06 h 22.222 v 1.991 l -12.546,32.569 h -4.884 l 11.805,-30.625 h -16.597 z"
     fill="#000000"
     fill-rule="nonzero"
     fill-opacity="1"
     id="path12"
     transform="matrix(1.1155734,0,0,1.1155734,-8.253775,-126.08016)" />
  <path
     clip-path="url(#clip660)"
     d="m 486.047,700.06 h 18.356 v 3.935 h -14.074 v 8.472 q 1.019,-0.347 2.037,-0.509 1.019,-0.185 2.037,-0.185 5.787,0 9.167,3.171 3.38,3.171 3.38,8.588 0,5.579 -3.473,8.68 -3.472,3.079 -9.791,3.079 -2.176,0 -4.445,-0.37 -2.245,-0.371 -4.652,-1.111 v -4.699 q 2.083,1.134 4.305,1.689 2.222,0.556 4.699,0.556 4.005,0 6.343,-2.106 2.338,-2.107 2.338,-5.718 0,-3.611 -2.338,-5.718 -2.338,-2.106 -6.343,-2.106 -1.875,0 -3.75,0.417 -1.852,0.416 -3.796,1.296 z"
     fill="#000000"
     fill-rule="nonzero"
     fill-opacity="1"
     id="path13"
     transform="matrix(1.1155734,0,0,1.1155734,-8.253775,-126.08016)" />
  <path
     clip-path="url(#clip660)"
     d="m 1076.76,730.685 h 7.64 v -26.366 l -8.31,1.667 v -4.259 l 8.26,-1.667 h 4.68 v 30.625 h 7.64 v 3.935 h -19.91 z"
     fill="#000000"
     fill-rule="nonzero"
     fill-opacity="1"
     id="path18"
     transform="matrix(1.1155734,0,0,1.1155734,-85.390571,-126.08016)" />
  <path
     clip-path="url(#clip660)"
     d="m 1106.11,728.74 h 4.89 v 5.88 h -4.89 z"
     fill="#000000"
     fill-rule="nonzero"
     fill-opacity="1"
     id="path19"
     transform="matrix(1.1155734,0,0,1.1155734,-85.390571,-126.08016)" />
  <path
     clip-path="url(#clip660)"
     d="m 1125.21,730.685 h 16.32 v 3.935 h -21.95 v -3.935 q 2.67,-2.755 7.25,-7.385 4.61,-4.652 5.79,-5.995 2.24,-2.523 3.12,-4.259 0.91,-1.759 0.91,-3.449 0,-2.755 -1.95,-4.491 -1.92,-1.736 -5.02,-1.736 -2.2,0 -4.66,0.764 -2.43,0.764 -5.2,2.315 v -4.722 q 2.82,-1.135 5.27,-1.713 2.46,-0.579 4.49,-0.579 5.38,0 8.57,2.685 3.19,2.685 3.19,7.176 0,2.13 -0.81,4.051 -0.78,1.898 -2.89,4.491 -0.58,0.671 -3.68,3.888 -3.1,3.195 -8.75,8.959 z"
     fill="#000000"
     fill-rule="nonzero"
     fill-opacity="1"
     id="path20"
     transform="matrix(1.1155734,0,0,1.1155734,-85.390571,-126.08016)" />
  <path
     clip-path="url(#clip660)"
     d="m 1151.39,700.06 h 18.36 v 3.935 h -14.08 v 8.472 q 1.02,-0.347 2.04,-0.509 1.02,-0.185 2.04,-0.185 5.78,0 9.16,3.171 3.38,3.171 3.38,8.588 0,5.579 -3.47,8.68 -3.47,3.079 -9.79,3.079 -2.18,0 -4.45,-0.37 -2.24,-0.371 -4.65,-1.111 v -4.699 q 2.09,1.134 4.31,1.689 2.22,0.556 4.7,0.556 4,0 6.34,-2.106 2.34,-2.107 2.34,-5.718 0,-3.611 -2.34,-5.718 -2.34,-2.106 -6.34,-2.106 -1.88,0 -3.75,0.417 -1.86,0.416 -3.8,1.296 z"
     fill="#000000"
     fill-rule="nonzero"
     fill-opacity="1"
     id="path21"
     transform="matrix(1.1155734,0,0,1.1155734,-85.390571,-126.08016)" />
  <path
     clip-path="url(#clip660)"
     d="m 1743.15,730.685 h 7.64 v -26.366 l -8.32,1.667 v -4.259 l 8.27,-1.667 h 4.67 v 30.625 h 7.64 v 3.935 h -19.9 z"
     fill="#000000"
     fill-rule="nonzero"
     fill-opacity="1"
     id="path26"
     transform="matrix(1.1353637,0,0,1.1353637,-196.89055,-140.00685)" />
  <path
     clip-path="url(#clip660)"
     d="m 1772.5,728.74 h 4.88 v 5.88 h -4.88 z"
     fill="#000000"
     fill-rule="nonzero"
     fill-opacity="1"
     id="path27"
     transform="matrix(1.1353637,0,0,1.1353637,-196.89055,-140.00685)" />
  <path
     clip-path="url(#clip660)"
     d="m 1786.39,700.06 h 22.22 v 1.991 l -12.55,32.569 h -4.88 l 11.8,-30.625 h -16.59 z"
     fill="#000000"
     fill-rule="nonzero"
     fill-opacity="1"
     id="path28"
     transform="matrix(1.1353637,0,0,1.1353637,-196.89055,-140.00685)" />
  <path
     clip-path="url(#clip660)"
     d="m 1817.78,700.06 h 18.35 v 3.935 h -14.07 v 8.472 q 1.02,-0.347 2.03,-0.509 1.02,-0.185 2.04,-0.185 5.79,0 9.17,3.171 3.38,3.171 3.38,8.588 0,5.579 -3.47,8.68 -3.48,3.079 -9.8,3.079 -2.17,0 -4.44,-0.37 -2.25,-0.371 -4.65,-1.111 v -4.699 q 2.08,1.134 4.3,1.689 2.22,0.556 4.7,0.556 4.01,0 6.34,-2.106 2.34,-2.107 2.34,-5.718 0,-3.611 -2.34,-5.718 -2.33,-2.106 -6.34,-2.106 -1.87,0 -3.75,0.417 -1.85,0.416 -3.79,1.296 z"
     fill="#000000"
     fill-rule="nonzero"
     fill-opacity="1"
     id="path29"
     transform="matrix(1.1353637,0,0,1.1353637,-196.89055,-140.00685)" />
  <polyline
     clip-path="url(#clip660)"
     style="fill:none;stroke:#000000;stroke-width:4;stroke-linecap:round;stroke-linejoin:round;stroke-opacity:1"
     points="196.875,672.22 196.875,47.2441 "
     id="polyline35"
     transform="translate(38.976788,-45.2441)" />
  <polyline
     clip-path="url(#clip660)"
     style="fill:none;stroke:#000000;stroke-width:4;stroke-linecap:round;stroke-linejoin:round;stroke-opacity:1"
     points="196.875,654.532 215.773,654.532 "
     id="polyline36"
     transform="translate(38.976788,-45.2441)" />
  <polyline
     clip-path="url(#clip660)"
     style="fill:none;stroke:#000000;stroke-width:4;stroke-linecap:round;stroke-linejoin:round;stroke-opacity:1"
     points="196.875,511.141 215.773,511.141 "
     id="polyline37"
     transform="translate(38.976788,-45.2441)" />
  <polyline
     clip-path="url(#clip660)"
     style="fill:none;stroke:#000000;stroke-width:4;stroke-linecap:round;stroke-linejoin:round;stroke-opacity:1"
     points="196.875,367.749 215.773,367.749 "
     id="polyline38"
     transform="translate(38.976788,-45.2441)" />
  <polyline
     clip-path="url(#clip660)"
     style="fill:none;stroke:#000000;stroke-width:4;stroke-linecap:round;stroke-linejoin:round;stroke-opacity:1"
     points="196.875,224.358 215.773,224.358 "
     id="polyline39"
     transform="translate(38.976788,-45.2441)" />
  <polyline
     clip-path="url(#clip660)"
     style="fill:none;stroke:#000000;stroke-width:4;stroke-linecap:round;stroke-linejoin:round;stroke-opacity:1"
     points="196.875,80.9665 215.773,80.9665 "
     id="polyline40"
     transform="translate(38.976788,-45.2441)" />
  <path
     clip-path="url(#clip660)"
     d="m 103.7,640.331 q -3.611,0 -5.4402,3.564 -1.8055,3.542 -1.8055,10.672 0,7.106 1.8055,10.671 1.8292,3.541 5.4402,3.541 3.634,0 5.439,-3.541 1.829,-3.565 1.829,-10.671 0,-7.13 -1.829,-10.672 -1.805,-3.564 -5.439,-3.564 m 0,-3.704 q 5.81,0 8.865,4.606 3.079,4.584 3.079,13.334 0,8.726 -3.079,13.333 -3.055,4.583 -8.865,4.583 -5.8105,0 -8.8892,-4.583 -3.0556,-4.607 -3.0556,-13.333 0,-8.75 3.0556,-13.334 3.0787,-4.606 8.8892,-4.606 z"
     fill="#000000"
     fill-rule="nonzero"
     fill-opacity="1"
     id="path40"
     transform="matrix(1.1155734,0,0,1.1155734,28.37233,-118.82123)" />
  <path
     clip-path="url(#clip660)"
     d="m 123.862,665.932 h 4.884 v 5.88 h -4.884 z"
     fill="#000000"
     fill-rule="nonzero"
     fill-opacity="1"
     id="path41"
     transform="matrix(1.1155734,0,0,1.1155734,28.37233,-118.82123)" />
  <path
     clip-path="url(#clip660)"
     d="m 148.931,640.331 q -3.611,0 -5.44,3.564 -1.805,3.542 -1.805,10.672 0,7.106 1.805,10.671 1.829,3.541 5.44,3.541 3.634,0 5.44,-3.541 1.828,-3.565 1.828,-10.671 0,-7.13 -1.828,-10.672 -1.806,-3.564 -5.44,-3.564 m 0,-3.704 q 5.81,0 8.866,4.606 3.078,4.584 3.078,13.334 0,8.726 -3.078,13.333 -3.056,4.583 -8.866,4.583 -5.81,0 -8.889,-4.583 -3.056,-4.607 -3.056,-13.333 0,-8.75 3.056,-13.334 3.079,-4.606 8.889,-4.606 z"
     fill="#000000"
     fill-rule="nonzero"
     fill-opacity="1"
     id="path42"
     transform="matrix(1.1155734,0,0,1.1155734,28.37233,-118.82123)" />
  <path
     clip-path="url(#clip660)"
     d="m 94.5099,381.094 h 7.6391 v -26.366 l -8.3104,1.667 v -4.259 l 8.2634,-1.667 h 4.676 v 30.625 h 7.639 v 3.935 H 94.5099 Z"
     fill="#000000"
     fill-rule="nonzero"
     fill-opacity="1"
     id="path46"
     transform="matrix(1.1155734,0,0,1.1155734,28.131545,-85.676747)" />
  <path
     clip-path="url(#clip660)"
     d="m 123.862,379.15 h 4.884 v 5.879 h -4.884 z"
     fill="#000000"
     fill-rule="nonzero"
     fill-opacity="1"
     id="path47"
     transform="matrix(1.1155734,0,0,1.1155734,28.131545,-85.676747)" />
  <path
     clip-path="url(#clip660)"
     d="m 148.931,353.548 q -3.611,0 -5.44,3.565 -1.805,3.541 -1.805,10.671 0,7.106 1.805,10.671 1.829,3.542 5.44,3.542 3.634,0 5.44,-3.542 1.828,-3.565 1.828,-10.671 0,-7.13 -1.828,-10.671 -1.806,-3.565 -5.44,-3.565 m 0,-3.704 q 5.81,0 8.866,4.607 3.078,4.583 3.078,13.333 0,8.727 -3.078,13.333 -3.056,4.583 -8.866,4.583 -5.81,0 -8.889,-4.583 -3.056,-4.606 -3.056,-13.333 0,-8.75 3.056,-13.333 3.079,-4.607 8.889,-4.607 z"
     fill="#000000"
     fill-rule="nonzero"
     fill-opacity="1"
     id="path48"
     transform="matrix(1.1155734,0,0,1.1155734,28.131545,-85.676747)" />
  <path
     clip-path="url(#clip660)"
     d="m 97.7274,94.3114 h 16.3196 v 3.9351 H 92.1025 v -3.9351 q 2.662,-2.7547 7.2453,-7.3843 4.6062,-4.6527 5.7872,-5.9953 2.245,-2.5231 3.125,-4.2592 0.903,-1.7593 0.903,-3.4491 0,-2.7546 -1.945,-4.4907 -1.921,-1.7361 -5.023,-1.7361 -2.1991,0 -4.6528,0.7639 -2.4305,0.7639 -5.2083,2.3148 v -4.7222 q 2.8241,-1.1343 5.2778,-1.713 2.4533,-0.5787 4.4903,-0.5787 5.371,0 8.565,2.6852 3.195,2.6852 3.195,7.1759 0,2.1296 -0.811,4.0509 -0.787,1.8981 -2.893,4.4907 -0.579,0.6713 -3.681,3.8889 -3.101,3.1944 -8.7496,8.9583 z"
     fill="#000000"
     fill-rule="nonzero"
     fill-opacity="1"
     id="path52"
     transform="matrix(1.1155641,0,0,1.1155641,28.333054,-52.53174)" />
  <path
     clip-path="url(#clip660)"
     d="m 123.862,92.3669 h 4.884 v 5.8796 h -4.884 z"
     fill="#000000"
     fill-rule="nonzero"
     fill-opacity="1"
     id="path53"
     transform="matrix(1.1155641,0,0,1.1155641,28.333054,-52.53174)" />
  <path
     clip-path="url(#clip660)"
     d="m 148.931,66.7652 q -3.611,0 -5.44,3.5648 -1.805,3.5417 -1.805,10.6712 0,7.1065 1.805,10.6713 1.829,3.5416 5.44,3.5416 3.634,0 5.44,-3.5416 1.828,-3.5648 1.828,-10.6713 0,-7.1295 -1.828,-10.6712 -1.806,-3.5648 -5.44,-3.5648 m 0,-3.7037 q 5.81,0 8.866,4.6065 3.078,4.5833 3.078,13.3332 0,8.7268 -3.078,13.3333 -3.056,4.5833 -8.866,4.5833 -5.81,0 -8.889,-4.5833 -3.056,-4.6065 -3.056,-13.3333 0,-8.7499 3.056,-13.3332 3.079,-4.6065 8.889,-4.6065 z"
     fill="#000000"
     fill-rule="nonzero"
     fill-opacity="1"
     id="path54"
     transform="matrix(1.1155641,0,0,1.1155641,28.333054,-52.53174)" />
  <path
     clip-path="url(#clip663)"
     d="M 257.891,654.532 V 597.175 H 391.168 V 224.358 h 133.277 v -86.035 h 133.277 v -28.678 h 133.277 v 57.356 h 133.277 v 143.392 h 133.274 v 143.391 h 133.28 v 86.035 h 133.28 v 57.356 h 133.27 v 0 h 133.28 v 28.679 h 133.28 v 28.678 h 133.27 v 0 h 133.28 v -28.678 h 133.28 v 28.678 0 0 h -133.28 v 0 h -133.28 v 0 h -133.27 v 0 h -133.28 v 0 h -133.28 v 0 h -133.27 v 0 h -133.28 v 0 h -133.28 v 0 H 924.276 v 0 H 790.999 v 0 H 657.722 v 0 H 524.445 v 0 H 391.168 v 0 H 257.891 Z"
     fill="#008000"
     fill-rule="evenodd"
     fill-opacity="0.5"
     id="path60"
     transform="translate(38.976788,-45.2441)" />
  <polyline
     clip-path="url(#clip663)"
     style="fill:none;stroke:#008000;stroke-width:4;stroke-linecap:round;stroke-linejoin:round;stroke-opacity:0.5"
     points="257.891,654.532 257.891,597.175 391.168,597.175 391.168,224.358 524.445,224.358 524.445,138.323 657.722,138.323 657.722,109.645 790.999,109.645 790.999,167.001 924.276,167.001 924.276,310.393 1057.55,310.393 1057.55,453.784 1190.83,453.784 1190.83,539.819 1324.11,539.819 1324.11,597.175 1457.38,597.175 1590.66,597.175 1590.66,625.854 1723.94,625.854 1723.94,654.532 1857.21,654.532 1990.49,654.532 1990.49,625.854 2123.77,625.854 2123.77,654.532 "
     id="polyline60"
     transform="translate(38.976788,-45.2441)" />
  <polyline
     clip-path="url(#clip663)"
     style="fill:none;stroke:#000000;stroke-width:12;stroke-linecap:round;stroke-linejoin:round;stroke-dasharray:none;stroke-opacity:1"
     points="275.259,619.481 276.592,618.622 277.925,617.748 279.257,616.859 280.59,615.955 281.923,615.035 283.256,614.1 284.588,613.149 285.921,612.182 287.254,611.2 288.587,610.201 289.92,609.187 291.252,608.156 292.585,607.109 293.918,606.046 295.251,604.967 296.583,603.871 297.916,602.758 299.249,601.629 300.582,600.483 301.915,599.321 303.247,598.142 304.58,596.945 305.913,595.732 307.246,594.502 308.578,593.255 309.911,591.99 311.244,590.709 312.577,589.41 313.909,588.094 315.242,586.76 316.575,585.41 317.908,584.042 319.241,582.657 320.573,581.254 321.906,579.834 323.239,578.396 324.572,576.941 325.904,575.469 327.237,573.979 328.57,572.471 329.903,570.947 331.235,569.404 332.568,567.845 333.901,566.268 335.234,564.673 336.567,563.061 337.899,561.432 339.232,559.786 340.565,558.122 341.898,556.441 343.23,554.743 344.563,553.028 345.896,551.295 347.229,549.546 348.561,547.779 349.894,545.996 351.227,544.196 352.56,542.379 353.893,540.546 355.225,538.695 356.558,536.829 357.891,534.945 359.224,533.046 360.556,531.13 361.889,529.198 363.222,527.25 364.555,525.286 365.887,523.306 367.22,521.311 368.553,519.299 369.886,517.273 371.219,515.231 372.551,513.173 373.884,511.101 375.217,509.014 376.55,506.911 377.882,504.794 379.215,502.663 380.548,500.517 381.881,498.357 383.213,496.183 384.546,493.995 385.879,491.793 387.212,489.577 388.545,487.348 389.877,485.106 391.21,482.851 392.543,480.583 393.876,478.302 395.208,476.008 396.541,473.703 397.874,471.385 399.207,469.055 400.539,466.713 401.872,464.36 403.205,461.995 404.538,459.62 405.871,457.233 407.203,454.836 408.536,452.428 409.869,450.01 411.202,447.581 412.534,445.143 413.867,442.695 415.2,440.238 416.533,437.771 417.866,435.296 419.198,432.812 420.531,430.319 421.864,427.818 423.197,425.309 424.529,422.793 425.862,420.268 427.195,417.737 428.528,415.198 429.86,412.653 431.193,410.1 432.526,407.542 433.859,404.978 435.192,402.407 436.524,399.832 437.857,397.25 439.19,394.664 440.523,392.073 441.855,389.478 443.188,386.878 444.521,384.274 445.854,381.666 447.186,379.055 448.519,376.441 449.852,373.823 451.185,371.203 452.518,368.581 453.85,365.956 455.183,363.329 456.516,360.701 457.849,358.071 459.181,355.44 460.514,352.808 461.847,350.176 463.18,347.543 464.512,344.911 465.845,342.278 467.178,339.646 468.511,337.015 469.844,334.384 471.176,331.755 472.509,329.127 473.842,326.502 475.175,323.878 476.507,321.256 477.84,318.637 479.173,316.021 480.506,313.408 481.838,310.798 483.171,308.192 484.504,305.59 485.837,302.992 487.17,300.399 488.502,297.81 489.835,295.225 491.168,292.647 492.501,290.073 493.833,287.505 495.166,284.943 496.499,282.387 497.832,279.838 499.164,277.295 500.497,274.759 501.83,272.23 503.163,269.709 504.496,267.195 505.828,264.689 507.161,262.191 508.494,259.702 509.827,257.221 511.159,254.749 512.492,252.286 513.825,249.832 515.158,247.388 516.491,244.953 517.823,242.528 519.156,240.114 520.489,237.71 521.822,235.316 523.154,232.933 524.487,230.562 525.82,228.201 527.153,225.852 528.485,223.514 529.818,221.189 531.151,218.875 532.484,216.574 533.817,214.285 535.149,212.009 536.482,209.745 537.815,207.495 539.148,205.258 540.48,203.034 541.813,200.824 543.146,198.627 544.479,196.445 545.811,194.276 547.144,192.122 548.477,189.983 549.81,187.858 551.143,185.748 552.475,183.652 553.808,181.572 555.141,179.507 556.474,177.458 557.806,175.424 559.139,173.406 560.472,171.404 561.805,169.418 563.137,167.448 564.47,165.494 565.803,163.557 567.136,161.636 568.469,159.732 569.801,157.845 571.134,155.975 572.467,154.122 573.8,152.286 575.132,150.467 576.465,148.666 577.798,146.883 579.131,145.117 580.463,143.369 581.796,141.639 583.129,139.927 584.462,138.233 585.795,136.557 587.127,134.899 588.46,133.26 589.793,131.639 591.126,130.037 592.458,128.453 593.791,126.888 595.124,125.342 596.457,123.815 597.789,122.307 599.122,120.817 600.455,119.347 601.788,117.896 603.121,116.464 604.453,115.051 605.786,113.658 607.119,112.284 608.452,110.93 609.784,109.595 611.117,108.279 612.45,106.983 613.783,105.707 615.115,104.45 616.448,103.213 617.781,101.996 619.114,100.798 620.447,99.6205 621.779,98.4626 623.112,97.3244 624.445,96.2061 625.778,95.1077 627.11,94.0292 628.443,92.9706 629.776,91.9319 631.109,90.9131 632.442,89.9143 633.774,88.9354 635.107,87.9764 636.44,87.0374 637.773,86.1183 639.105,85.2192 640.438,84.34 641.771,83.4808 643.104,82.6414 644.436,81.822 645.769,81.0224 647.102,80.2428 648.435,79.483 649.768,78.743 651.1,78.0229 652.433,77.3225 653.766,76.6419 655.099,75.981 656.431,75.3399 657.764,74.7184 659.097,74.1166 660.43,73.5343 661.762,72.9717 663.095,72.4285 664.428,71.9049 665.761,71.4006 667.094,70.9158 668.426,70.4504 669.759,70.0042 671.092,69.5773 672.425,69.1695 673.757,68.781 675.09,68.4115 676.423,68.061 677.756,67.7296 679.088,67.417 680.421,67.1233 681.754,66.8484 683.087,66.5922 684.42,66.3547 685.752,66.1357 687.085,65.9353 688.418,65.7533 689.751,65.5897 691.083,65.4445 692.416,65.3174 693.749,65.2085 695.082,65.1177 696.414,65.0449 697.747,64.99 699.08,64.953 700.413,64.9337 701.746,64.9321 703.078,64.9481 704.411,64.9816 705.744,65.0325 707.077,65.1007 708.409,65.1862 709.742,65.2888 711.075,65.4085 712.408,65.5452 713.74,65.6987 715.073,65.869 716.406,66.0561 717.739,66.2597 719.072,66.4798 720.404,66.7163 721.737,66.9691 723.07,67.2381 724.403,67.5232 725.735,67.8243 727.068,68.1413 728.401,68.4741 729.734,68.8226 731.067,69.1867 732.399,69.5663 733.732,69.9612 735.065,70.3715 736.398,70.7969 737.73,71.2374 739.063,71.6928 740.396,72.1631 741.729,72.6481 743.061,73.1477 744.394,73.6619 745.727,74.1905 747.06,74.7333 748.393,75.2904 749.725,75.8615 751.058,76.4466 752.391,77.0456 753.724,77.6583 755.056,78.2847 756.389,78.9245 757.722,79.5778 759.055,80.2443 760.387,80.924 761.72,81.6168 763.053,82.3225 764.386,83.0411 765.719,83.7723 767.051,84.5162 768.384,85.2726 769.717,86.0413 771.05,86.8223 772.382,87.6154 773.715,88.4205 775.048,89.2376 776.381,90.0664 777.713,90.9069 779.046,91.759 780.379,92.6225 781.712,93.4973 783.045,94.3833 784.377,95.2805 785.71,96.1886 787.043,97.1075 788.376,98.0372 789.708,98.9776 791.041,99.9284 792.374,100.89 793.707,101.861 795.039,102.843 796.372,103.835 797.705,104.836 799.038,105.848 800.371,106.869 801.703,107.9 803.036,108.94 804.369,109.989 805.702,111.048 807.034,112.116 808.367,113.193 809.7,114.279 811.033,115.374 812.365,116.477 813.698,117.589 815.031,118.709 816.364,119.838 817.697,120.974 819.029,122.119 820.362,123.272 821.695,124.433 823.028,125.602 824.36,126.778 825.693,127.962 827.026,129.153 828.359,130.352 829.692,131.558 831.024,132.771 832.357,133.991 833.69,135.217 835.023,136.451 836.355,137.691 837.688,138.938 839.021,140.192 840.354,141.451 841.686,142.717 843.019,143.989 844.352,145.268 845.685,146.552 847.018,147.842 848.35,149.137 849.683,150.439 851.016,151.746 852.349,153.058 853.681,154.375 855.014,155.698 856.347,157.026 857.68,158.359 859.012,159.697 860.345,161.04 861.678,162.387 863.011,163.74 864.344,165.096 865.676,166.457 867.009,167.823 868.342,169.192 869.675,170.566 871.007,171.944 872.34,173.326 873.673,174.712 875.006,176.101 876.338,177.495 877.671,178.891 879.004,180.292 880.337,181.695 881.67,183.102 883.002,184.513 884.335,185.926 885.668,187.343 887.001,188.762 888.333,190.185 889.666,191.61 890.999,193.038 892.332,194.468 893.664,195.901 894.997,197.337 896.33,198.774 897.663,200.215 898.996,201.657 900.328,203.101 901.661,204.548 902.994,205.996 904.327,207.447 905.659,208.899 906.992,210.353 908.325,211.809 909.658,213.266 910.99,214.725 912.323,216.185 913.656,217.646 914.989,219.109 916.322,220.573 917.654,222.038 918.987,223.504 920.32,224.971 921.653,226.439 922.985,227.908 924.318,229.377 925.651,230.848 926.984,232.319 928.316,233.79 929.649,235.262 930.982,236.735 932.315,238.207 933.648,239.68 934.98,241.154 936.313,242.627 937.646,244.101 938.979,245.574 940.311,247.048 941.644,248.521 942.977,249.995 944.31,251.468 945.643,252.941 946.975,254.413 948.308,255.885 949.641,257.357 950.974,258.828 952.306,260.298 953.639,261.768 954.972,263.238 956.305,264.706 957.637,266.174 958.97,267.641 960.303,269.107 961.636,270.572 962.969,272.036 964.301,273.499 965.634,274.961 966.967,276.421 968.3,277.881 969.632,279.339 970.965,280.796 972.298,282.252 973.631,283.706 974.963,285.158 976.296,286.61 977.629,288.059 978.962,289.507 980.295,290.954 981.627,292.398 982.96,293.841 984.293,295.282 985.626,296.722 986.958,298.159 988.291,299.595 989.624,301.028 990.957,302.46 992.289,303.89 993.622,305.317 994.955,306.743 996.288,308.166 997.621,309.587 998.953,311.006 1000.29,312.423 1001.62,313.837 1002.95,315.249 1004.28,316.659 1005.62,318.066 1006.95,319.471 1008.28,320.873 1009.62,322.273 1010.95,323.67 1012.28,325.065 1013.61,326.457 1014.95,327.846 1016.28,329.233 1017.61,330.617 1018.94,331.998 1020.28,333.377 1021.61,334.753 1022.94,336.126 1024.28,337.496 1025.61,338.863 1026.94,340.227 1028.27,341.588 1029.61,342.947 1030.94,344.302 1032.27,345.655 1033.61,347.004 1034.94,348.35 1036.27,349.693 1037.6,351.034 1038.94,352.37 1040.27,353.704 1041.6,355.035 1042.93,356.362 1044.27,357.686 1045.6,359.007 1046.93,360.325 1048.27,361.639 1049.6,362.95 1050.93,364.258 1052.26,365.562 1053.6,366.863 1054.93,368.16 1056.26,369.455 1057.6,370.745 1058.93,372.032 1060.26,373.316 1061.59,374.596 1062.93,375.873 1064.26,377.147 1065.59,378.416 1066.92,379.682 1068.26,380.945 1069.59,382.204 1070.92,383.459 1072.26,384.711 1073.59,385.959 1074.92,387.204 1076.25,388.445 1077.59,389.682 1078.92,390.916 1080.25,392.146 1081.59,393.372 1082.92,394.594 1084.25,395.813 1085.58,397.028 1086.92,398.239 1088.25,399.447 1089.58,400.651 1090.91,401.851 1092.25,403.047 1093.58,404.239 1094.91,405.428 1096.25,406.613 1097.58,407.793 1098.91,408.971 1100.24,410.144 1101.58,411.313 1102.91,412.479 1104.24,413.641 1105.57,414.799 1106.91,415.953 1108.24,417.103 1109.57,418.249 1110.91,419.391 1112.24,420.53 1113.57,421.664 1114.9,422.795 1116.24,423.922 1117.57,425.045 1118.9,426.164 1120.24,427.279 1121.57,428.39 1122.9,429.497 1124.23,430.6 1125.57,431.7 1126.9,432.795 1128.23,433.887 1129.56,434.974 1130.9,436.058 1132.23,437.137 1133.56,438.213 1134.9,439.285 1136.23,440.353 1137.56,441.417 1138.89,442.476 1140.23,443.532 1141.56,444.584 1142.89,445.633 1144.23,446.677 1145.56,447.717 1146.89,448.753 1148.22,449.785 1149.56,450.814 1150.89,451.838 1152.22,452.859 1153.55,453.875 1154.89,454.888 1156.22,455.897 1157.55,456.901 1158.89,457.902 1160.22,458.899 1161.55,459.892 1162.88,460.881 1164.22,461.866 1165.55,462.847 1166.88,463.825 1168.22,464.798 1169.55,465.767 1170.88,466.733 1172.21,467.695 1173.55,468.652 1174.88,469.606 1176.21,470.556 1177.54,471.502 1178.88,472.445 1180.21,473.383 1181.54,474.317 1182.88,475.248 1184.21,476.175 1185.54,477.098 1186.87,478.017 1188.21,478.932 1189.54,479.843 1190.87,480.751 1192.2,481.655 1193.54,482.554 1194.87,483.451 1196.2,484.343 1197.54,485.231 1198.87,486.116 1200.2,486.997 1201.53,487.874 1202.87,488.747 1204.2,489.617 1205.53,490.483 1206.87,491.345 1208.2,492.203 1209.53,493.058 1210.86,493.909 1212.2,494.756 1213.53,495.599 1214.86,496.439 1216.19,497.275 1217.53,498.107 1218.86,498.936 1220.19,499.761 1221.53,500.582 1222.86,501.4 1224.19,502.214 1225.52,503.024 1226.86,503.831 1228.19,504.634 1229.52,505.433 1230.86,506.229 1232.19,507.022 1233.52,507.81 1234.85,508.595 1236.19,509.377 1237.52,510.155 1238.85,510.929 1240.18,511.7 1241.52,512.467 1242.85,513.231 1244.18,513.991 1245.52,514.748 1246.85,515.501 1248.18,516.251 1249.51,516.997 1250.85,517.74 1252.18,518.48 1253.51,519.216 1254.85,519.948 1256.18,520.677 1257.51,521.403 1258.84,522.125 1260.18,522.844 1261.51,523.559 1262.84,524.271 1264.17,524.98 1265.51,525.685 1266.84,526.387 1268.17,527.086 1269.51,527.781 1270.84,528.473 1272.17,529.161 1273.5,529.847 1274.84,530.529 1276.17,531.208 1277.5,531.883 1278.84,532.555 1280.17,533.224 1281.5,533.89 1282.83,534.553 1284.17,535.212 1285.5,535.868 1286.83,536.521 1288.16,537.171 1289.5,537.817 1290.83,538.461 1292.16,539.101 1293.5,539.738 1294.83,540.372 1296.16,541.003 1297.49,541.631 1298.83,542.255 1300.16,542.877 1301.49,543.495 1302.82,544.111 1304.16,544.723 1305.49,545.332 1306.82,545.939 1308.16,546.542 1309.49,547.142 1310.82,547.74 1312.15,548.334 1313.49,548.925 1314.82,549.513 1316.15,550.099 1317.49,550.681 1318.82,551.261 1320.15,551.837 1321.48,552.411 1322.82,552.982 1324.15,553.55 1325.48,554.115 1326.81,554.677 1328.15,555.236 1329.48,555.792 1330.81,556.346 1332.15,556.897 1333.48,557.445 1334.81,557.99 1336.14,558.532 1337.48,559.072 1338.81,559.609 1340.14,560.143 1341.48,560.674 1342.81,561.202 1344.14,561.728 1345.47,562.251 1346.81,562.772 1348.14,563.29 1349.47,563.805 1350.8,564.317 1352.14,564.827 1353.47,565.334 1354.8,565.838 1356.14,566.34 1357.47,566.839 1358.8,567.336 1360.13,567.83 1361.47,568.321 1362.8,568.81 1364.13,569.296 1365.47,569.78 1366.8,570.261 1368.13,570.74 1369.46,571.216 1370.8,571.69 1372.13,572.161 1373.46,572.629 1374.79,573.096 1376.13,573.559 1377.46,574.021 1378.79,574.479 1380.13,574.936 1381.46,575.39 1382.79,575.841 1384.12,576.29 1385.46,576.737 1386.79,577.182 1388.12,577.624 1389.45,578.063 1390.79,578.501 1392.12,578.935 1393.45,579.368 1394.79,579.798 1396.12,580.226 1397.45,580.652 1398.78,581.076 1400.12,581.497 1401.45,581.916 1402.78,582.332 1404.12,582.747 1405.45,583.159 1406.78,583.569 1408.11,583.976 1409.45,584.382 1410.78,584.785 1412.11,585.186 1413.44,585.585 1414.78,585.982 1416.11,586.377 1417.44,586.769 1418.78,587.159 1420.11,587.548 1421.44,587.934 1422.77,588.318 1424.11,588.7 1425.44,589.079 1426.77,589.457 1428.11,589.833 1429.44,590.206 1430.77,590.578 1432.1,590.948 1433.44,591.315 1434.77,591.681 1436.1,592.044 1437.43,592.406 1438.77,592.765 1440.1,593.123 1441.43,593.478 1442.77,593.832 1444.1,594.183 1445.43,594.533 1446.76,594.881 1448.1,595.227 1449.43,595.571 1450.76,595.913 1452.1,596.253 1453.43,596.591 1454.76,596.928 1456.09,597.262 1457.43,597.595 1458.76,597.926 1460.09,598.255 1461.42,598.582 1462.76,598.907 1464.09,599.23 1465.42,599.552 1466.76,599.872 1468.09,600.19 1469.42,600.507 1470.75,600.821 1472.09,601.134 1473.42,601.445 1474.75,601.754 1476.09,602.062 1477.42,602.368 1478.75,602.672 1480.08,602.975 1481.42,603.275 1482.75,603.574 1484.08,603.872 1485.41,604.167 1486.75,604.461 1488.08,604.754 1489.41,605.045 1490.75,605.334 1492.08,605.621 1493.41,605.907 1494.74,606.191 1496.08,606.474 1497.41,606.755 1498.74,607.034 1500.07,607.312 1501.41,607.589 1502.74,607.863 1504.07,608.137 1505.41,608.408 1506.74,608.678 1508.07,608.947 1509.4,609.214 1510.74,609.479 1512.07,609.743 1513.4,610.006 1514.74,610.267 1516.07,610.526 1517.4,610.784 1518.73,611.041 1520.07,611.296 1521.4,611.55 1522.73,611.802 1524.06,612.053 1525.4,612.302 1526.73,612.55 1528.06,612.796 1529.4,613.042 1530.73,613.285 1532.06,613.528 1533.39,613.768 1534.73,614.008 1536.06,614.246 1537.39,614.483 1538.73,614.718 1540.06,614.952 1541.39,615.185 1542.72,615.417 1544.06,615.647 1545.39,615.875 1546.72,616.103 1548.05,616.329 1549.39,616.554 1550.72,616.777 1552.05,616.999 1553.39,617.22 1554.72,617.44 1556.05,617.659 1557.38,617.876 1558.72,618.092 1560.05,618.306 1561.38,618.52 1562.72,618.732 1564.05,618.943 1565.38,619.153 1566.71,619.361 1568.05,619.568 1569.38,619.774 1570.71,619.979 1572.04,620.183 1573.38,620.386 1574.71,620.587 1576.04,620.787 1577.38,620.986 1578.71,621.184 1580.04,621.381 1581.37,621.577 1582.71,621.771 1584.04,621.964 1585.37,622.157 1586.7,622.348 1588.04,622.538 1589.37,622.727 1590.7,622.914 1592.04,623.101 1593.37,623.287 1594.7,623.471 1596.03,623.655 1597.37,623.837 1598.7,624.018 1600.03,624.199 1601.37,624.378 1602.7,624.556 1604.03,624.733 1605.36,624.909 1606.7,625.084 1608.03,625.258 1609.36,625.431 1610.69,625.603 1612.03,625.774 1613.36,625.944 1614.69,626.113 1616.03,626.281 1617.36,626.448 1618.69,626.614 1620.02,626.779 1621.36,626.944 1622.69,627.107 1624.02,627.269 1625.36,627.43 1626.69,627.59 1628.02,627.75 1629.35,627.908 1630.69,628.066 1632.02,628.222 1633.35,628.378 1634.68,628.533 1636.02,628.686 1637.35,628.839 1638.68,628.991 1640.02,629.142 1641.35,629.293 1642.68,629.442 1644.01,629.591 1645.35,629.738 1646.68,629.885 1648.01,630.031 1649.35,630.176 1650.68,630.32 1652.01,630.463 1653.34,630.606 1654.68,630.747 1656.01,630.888 1657.34,631.028 1658.67,631.167 1660.01,631.305 1661.34,631.443 1662.67,631.58 1664.01,631.715 1665.34,631.851 1666.67,631.985 1668,632.118 1669.34,632.251 1670.67,632.383 1672,632.514 1673.34,632.644 1674.67,632.774 1676,632.903 1677.33,633.031 1678.67,633.158 1680,633.285 1681.33,633.41 1682.66,633.536 1684,633.66 1685.33,633.783 1686.66,633.906 1688,634.028 1689.33,634.15 1690.66,634.27 1691.99,634.39 1693.33,634.51 1694.66,634.628 1695.99,634.746 1697.32,634.863 1698.66,634.98 1699.99,635.095 1701.32,635.21 1702.66,635.325 1703.99,635.438 1705.32,635.551 1706.65,635.664 1707.99,635.775 1709.32,635.886 1710.65,635.997 1711.99,636.107 1713.32,636.216 1714.65,636.324 1715.98,636.432 1717.32,636.539 1718.65,636.645 1719.98,636.751 1721.31,636.856 1722.65,636.961 1723.98,637.065 1725.31,637.168 1726.65,637.271 1727.98,637.373 1729.31,637.475 1730.64,637.576 1731.98,637.676 1733.31,637.776 1734.64,637.875 1735.98,637.973 1737.31,638.071 1738.64,638.169 1739.97,638.266 1741.31,638.362 1742.64,638.457 1743.97,638.552 1745.3,638.647 1746.64,638.741 1747.97,638.834 1749.3,638.927 1750.64,639.019 1751.97,639.111 1753.3,639.202 1754.63,639.293 1755.97,639.383 1757.3,639.473 1758.63,639.562 1759.97,639.65 1761.3,639.738 1762.63,639.825 1763.96,639.912 1765.3,639.999 1766.63,640.085 1767.96,640.17 1769.29,640.255 1770.63,640.339 1771.96,640.423 1773.29,640.506 1774.63,640.589 1775.96,640.672 1777.29,640.753 1778.62,640.835 1779.96,640.916 1781.29,640.996 1782.62,641.076 1783.95,641.155 1785.29,641.234 1786.62,641.313 1787.95,641.391 1789.29,641.469 1790.62,641.546 1791.95,641.622 1793.28,641.698 1794.62,641.774 1795.95,641.849 1797.28,641.924 1798.62,641.999 1799.95,642.073 1801.28,642.146 1802.61,642.219 1803.95,642.292 1805.28,642.364 1806.61,642.436 1807.94,642.507 1809.28,642.578 1810.61,642.648 1811.94,642.718 1813.28,642.788 1814.61,642.857 1815.94,642.926 1817.27,642.994 1818.61,643.062 1819.94,643.13 1821.27,643.197 1822.61,643.264 1823.94,643.33 1825.27,643.396 1826.6,643.462 1827.94,643.527 1829.27,643.592 1830.6,643.656 1831.93,643.72 1833.27,643.784 1834.6,643.847 1835.93,643.91 1837.27,643.973 1838.6,644.035 1839.93,644.096 1841.26,644.158 1842.6,644.219 1843.93,644.28 1845.26,644.34 1846.6,644.4 1847.93,644.459 1849.26,644.519 1850.59,644.577 1851.93,644.636 1853.26,644.694 1854.59,644.752 1855.92,644.809 1857.26,644.866 1858.59,644.923 1859.92,644.98 1861.26,645.036 1862.59,645.092 1863.92,645.147 1865.25,645.202 1866.59,645.257 1867.92,645.311 1869.25,645.365 1870.59,645.419 1871.92,645.473 1873.25,645.526 1874.58,645.579 1875.92,645.631 1877.25,645.683 1878.58,645.735 1879.91,645.787 1881.25,645.838 1882.58,645.889 1883.91,645.94 1885.25,645.99 1886.58,646.04 1887.91,646.09 1889.24,646.139 1890.58,646.189 1891.91,646.237 1893.24,646.286 1894.57,646.334 1895.91,646.382 1897.24,646.43 1898.57,646.477 1899.91,646.525 1901.24,646.571 1902.57,646.618 1903.9,646.664 1905.24,646.71 1906.57,646.756 1907.9,646.802 1909.24,646.847 1910.57,646.892 1911.9,646.936 1913.23,646.981 1914.57,647.025 1915.9,647.069 1917.23,647.112 1918.56,647.156 1919.9,647.199 1921.23,647.242 1922.56,647.284 1923.9,647.327 1925.23,647.369 1926.56,647.41 1927.89,647.452 1929.23,647.493 1930.56,647.534 1931.89,647.575 1933.23,647.616 1934.56,647.656 1935.89,647.696 1937.22,647.736 1938.56,647.776 1939.89,647.815 1941.22,647.854 1942.55,647.893 1943.89,647.932 1945.22,647.97 1946.55,648.009 1947.89,648.047 1949.22,648.084 1950.55,648.122 1951.88,648.159 1953.22,648.196 1954.55,648.233 1955.88,648.27 1957.22,648.306 1958.55,648.342 1959.88,648.378 1961.21,648.414 1962.55,648.45 1963.88,648.485 1965.21,648.52 1966.54,648.555 1967.88,648.59 1969.21,648.625 1970.54,648.659 1971.88,648.693 1973.21,648.727 1974.54,648.761 1975.87,648.794 1977.21,648.827 1978.54,648.86 1979.87,648.893 1981.2,648.926 1982.54,648.959 1983.87,648.991 1985.2,649.023 1986.54,649.055 1987.87,649.087 1989.2,649.118 1990.53,649.15 1991.87,649.181 1993.2,649.212 1994.53,649.243 1995.87,649.273 1997.2,649.304 1998.53,649.334 1999.86,649.364 2001.2,649.394 2002.53,649.424 2003.86,649.453 2005.19,649.483 2006.53,649.512 2007.86,649.541 2009.19,649.57 2010.53,649.599 2011.86,649.627 2013.19,649.655 2014.52,649.684 2015.86,649.712 2017.19,649.739 2018.52,649.767 2019.86,649.795 2021.19,649.822 2022.52,649.849 2023.85,649.876 2025.19,649.903 2026.52,649.93 2027.85,649.956 2029.18,649.983 2030.52,650.009 2031.85,650.035 2033.18,650.061 2034.52,650.087 2035.85,650.112 2037.18,650.138 2038.51,650.163 2039.85,650.188 2041.18,650.213 2042.51,650.238 2043.85,650.263 2045.18,650.287 2046.51,650.312 2047.84,650.336 2049.18,650.36 2050.51,650.384 2051.84,650.408 2053.17,650.432 2054.51,650.455 2055.84,650.479 2057.17,650.502 2058.51,650.525 2059.84,650.548 2061.17,650.571 2062.5,650.594 2063.84,650.616 2065.17,650.639 2066.5,650.661 2067.84,650.683 2069.17,650.705 2070.5,650.727 2071.83,650.749 2073.17,650.771 2074.5,650.792 2075.83,650.814 2077.16,650.835 2078.5,650.856 2079.83,650.877 2081.16,650.898 2082.5,650.919 2083.83,650.94 2085.16,650.96 2086.49,650.981 2087.83,651.001 2089.16,651.021 2090.49,651.041 2091.82,651.061 2093.16,651.081 2094.49,651.101 2095.82,651.121 2097.16,651.14 2098.49,651.159 2099.82,651.179 2101.15,651.198 2102.49,651.217 2103.82,651.236 2105.15,651.255 2106.49,651.273 2107.82,651.292 2109.15,651.31 2110.48,651.329 2111.82,651.347 2113.15,651.365 2114.48,651.383 2115.81,651.401 2117.15,651.419 2118.48,651.437 2119.81,651.454 2121.15,651.472 2122.48,651.489 2123.81,651.507 2125.14,651.524 2126.48,651.541 2127.81,651.558 2129.14,651.575 2130.48,651.592 2131.81,651.608 2133.14,651.625 2134.47,651.641 2135.81,651.658 2137.14,651.674 2138.47,651.69 2139.8,651.707 2141.14,651.723 2142.47,651.739 2143.8,651.754 2145.14,651.77 2146.47,651.786 2147.8,651.801 2149.13,651.817 2150.47,651.832 2151.8,651.848 2153.13,651.863 2154.47,651.878 2155.8,651.893 2157.13,651.908 2158.46,651.923 2159.8,651.937 2161.13,651.952 2162.46,651.967 2163.79,651.981 2165.13,651.996 2166.46,652.01 2167.79,652.024 2169.13,652.038 2170.46,652.053 2171.79,652.067 2173.12,652.08 2174.46,652.094 2175.79,652.108 2177.12,652.122 2178.45,652.135 2179.79,652.149 2181.12,652.162 2182.45,652.176 2183.79,652.189 2185.12,652.202 2186.45,652.215 2187.78,652.228 2189.12,652.241 2190.45,652.254 2191.78,652.267 2193.12,652.28 2194.45,652.292 2195.78,652.305 2197.11,652.318 2198.45,652.33 2199.78,652.342 2201.11,652.355 2202.44,652.367 2203.78,652.379 2205.11,652.391 2206.44,652.403 2207.78,652.415 2209.11,652.427 2210.44,652.439 2211.77,652.451 2213.11,652.462 2214.44,652.474 2215.77,652.485 2217.11,652.497 2218.44,652.508 2219.77,652.52 2221.1,652.531 2222.44,652.542 2223.77,652.553 2225.1,652.564 2226.43,652.575 2227.77,652.586 2229.1,652.597 2230.43,652.608 2231.77,652.619 2233.1,652.63 2234.43,652.64 2235.76,652.651 2237.1,652.661 2238.43,652.672 2239.76,652.682 2241.1,652.692 2242.43,652.703 2243.76,652.713 2245.09,652.723 2246.43,652.733 2247.76,652.743 2249.09,652.753 2250.42,652.763 2251.76,652.773 2253.09,652.783 2254.42,652.792 2255.76,652.802 2257.09,652.812 2258.42,652.821 2259.75,652.831 2261.09,652.84 2262.42,652.85 2263.75,652.859 2265.09,652.868 2266.42,652.878 2267.75,652.887 2269.08,652.896 2270.42,652.905 2271.75,652.914 2273.08,652.923 2274.41,652.932 2275.75,652.941 2277.08,652.95 2278.41,652.959 2279.75,652.967 2281.08,652.976 2282.41,652.985 2283.74,652.993 2285.08,653.002 2286.41,653.01 2287.74,653.019 2289.07,653.027 2290.41,653.035 2291.74,653.044 "
     id="polyline61"
     transform="translate(38.976788,-45.2441)" />
  <text
     xml:space="preserve"
     style="font-weight:bold;font-size:106.667px;line-height:1;font-family:'CMU Serif';-inkscape-font-specification:'CMU Serif Bold';font-variant-ligatures:none;opacity:0.5;stroke-width:4"
     x="1397.2827"
     y="337.6702"
     id="text1253"><tspan
       sodipodi:role="line"
       id="tspan1251"
       style="font-size:106.667px;stroke-width:4"
       x="1397.2827"
       y="337.6702">cavity solution</tspan></text>
  <g
     transform="matrix(0,-10.6666,10.6666,0,0.00399998,493.139)"
     ns2:version="1.10.1"
     ns2:texconverter="pdflatex"
     ns2:pdfconverter="inkscape"
     ns2:text="$P(x_*)$"
     ns2:preamble="/home/onofrio/.config/inkscape/extensions/textext/default_packages.tex"
     ns2:scale="8.0"
     ns2:alignment="middle center"
     ns2:stroke-to-path="0"
     ns2:inkscapeversion="1.3.2"
     id="g1804"
     ns2:jacobian_sqrt="10.6666">
    <defs
       id="id-ad28210d-0632-4662-ba51-d95c347cc4d9">
      <g
         id="id-3b8b207d-022a-4390-b00c-39d9189b3597">
        <symbol
           overflow="visible"
           id="id-433dff0a-ce70-4d83-93e2-a3addd7a8086">
          <path
             style="stroke:none"
             d=""
             id="id-7f470da6-a960-4864-908a-01901a0048a7" />
        </symbol>
        <symbol
           overflow="visible"
           id="id-0dc6d391-c4e2-4d4f-b01b-2731f86a391b">
          <path
             style="stroke:none"
             d="M 3.015625,-3.15625 H 4.71875 c 1.40625,0 2.796875,-1.03125 2.796875,-2.140625 0,-0.78125 -0.65625,-1.515625 -1.96875,-1.515625 h -3.21875 c -0.1875,0 -0.296875,0 -0.296875,0.1875 0,0.125 0.078125,0.125 0.28125,0.125 0.125,0 0.3125,0.015625 0.421875,0.015625 0.171875,0.03125 0.21875,0.046875 0.21875,0.171875 0,0.03125 0,0.0625 -0.03125,0.1875 l -1.34375,5.34375 c -0.09375,0.390625 -0.109375,0.46875 -0.90625,0.46875 -0.15625,0 -0.265625,0 -0.265625,0.1875 C 0.40625,0 0.515625,0 0.546875,0 0.828125,0 1.53125,-0.03125 1.8125,-0.03125 c 0.21875,0 0.4375,0.015625 0.640625,0.015625 0.21875,0 0.4375,0.015625 0.640625,0.015625 0.078125,0 0.203125,0 0.203125,-0.203125 0,-0.109375 -0.09375,-0.109375 -0.28125,-0.109375 -0.359375,0 -0.640625,0 -0.640625,-0.171875 0,-0.0625 0.015625,-0.109375 0.03125,-0.171875 z M 3.734375,-6.125 C 3.828125,-6.46875 3.84375,-6.5 4.28125,-6.5 h 0.953125 c 0.828125,0 1.359375,0.265625 1.359375,0.953125 0,0.390625 -0.203125,1.25 -0.59375,1.609375 -0.5,0.453125 -1.09375,0.53125 -1.53125,0.53125 H 3.0625 Z m 0,0"
             id="id-67bad185-6a4c-406f-a631-5848065a41ed" />
        </symbol>
        <symbol
           overflow="visible"
           id="id-77ce3f52-8bfa-4371-8bd6-63b902c35aea">
          <path
             style="stroke:none"
             d="M 3.328125,-3.015625 C 3.390625,-3.265625 3.625,-4.1875 4.3125,-4.1875 c 0.046875,0 0.296875,0 0.5,0.125 C 4.53125,-4 4.34375,-3.765625 4.34375,-3.515625 c 0,0.15625 0.109375,0.34375 0.375,0.34375 0.21875,0 0.53125,-0.171875 0.53125,-0.578125 0,-0.515625 -0.578125,-0.65625 -0.921875,-0.65625 -0.578125,0 -0.921875,0.53125 -1.046875,0.75 -0.25,-0.65625 -0.78125,-0.75 -1.078125,-0.75 -1.03125,0 -1.609375,1.28125 -1.609375,1.53125 0,0.109375 0.109375,0.109375 0.125,0.109375 0.078125,0 0.109375,-0.03125 0.125,-0.109375 0.34375,-1.0625 1,-1.3125 1.34375,-1.3125 0.1875,0 0.53125,0.09375 0.53125,0.671875 0,0.3125 -0.171875,0.96875 -0.53125,2.375 -0.15625,0.609375 -0.515625,1.03125 -0.953125,1.03125 -0.0625,0 -0.28125,0 -0.5,-0.125 0.25,-0.0625 0.46875,-0.265625 0.46875,-0.546875 0,-0.265625 -0.21875,-0.34375 -0.359375,-0.34375 -0.3125,0 -0.546875,0.25 -0.546875,0.578125 0,0.453125 0.484375,0.65625 0.921875,0.65625 0.671875,0 1.03125,-0.703125 1.046875,-0.75 0.125,0.359375 0.484375,0.75 1.078125,0.75 1.03125,0 1.59375,-1.28125 1.59375,-1.53125 0,-0.109375 -0.078125,-0.109375 -0.109375,-0.109375 -0.09375,0 -0.109375,0.046875 -0.140625,0.109375 -0.328125,1.078125 -1,1.3125 -1.3125,1.3125 -0.390625,0 -0.546875,-0.3125 -0.546875,-0.65625 0,-0.21875 0.046875,-0.4375 0.15625,-0.875 z m 0,0"
             id="id-e35ca43c-0231-49d2-83d6-1e180920d56b" />
        </symbol>
        <symbol
           overflow="visible"
           id="id-ac549064-9caf-4652-8659-a4737b8a8389">
          <path
             style="stroke:none"
             d=""
             id="id-8efc2a10-b659-4604-828c-c7cec265de50" />
        </symbol>
        <symbol
           overflow="visible"
           id="id-23b2501c-6519-479b-8038-9c1be9b6ba09">
          <path
             style="stroke:none"
             d="m 3.296875,2.390625 c 0,-0.03125 0,-0.046875 -0.171875,-0.21875 C 1.890625,0.921875 1.5625,-0.96875 1.5625,-2.5 c 0,-1.734375 0.375,-3.46875 1.609375,-4.703125 0.125,-0.125 0.125,-0.140625 0.125,-0.171875 0,-0.078125 -0.03125,-0.109375 -0.09375,-0.109375 -0.109375,0 -1,0.6875 -1.59375,1.953125 -0.5,1.09375 -0.625,2.203125 -0.625,3.03125 0,0.78125 0.109375,1.984375 0.65625,3.125 C 2.25,1.84375 3.09375,2.5 3.203125,2.5 c 0.0625,0 0.09375,-0.03125 0.09375,-0.109375 z m 0,0"
             id="id-58bbbd8f-6317-4016-8a56-aa9916c65349" />
        </symbol>
        <symbol
           overflow="visible"
           id="id-21ac38ad-1463-44b9-9dee-5d973cb1d4b8">
          <path
             style="stroke:none"
             d="m 2.875,-2.5 c 0,-0.765625 -0.109375,-1.96875 -0.65625,-3.109375 -0.59375,-1.21875 -1.453125,-1.875 -1.546875,-1.875 -0.0625,0 -0.109375,0.046875 -0.109375,0.109375 0,0.03125 0,0.046875 0.1875,0.234375 0.984375,0.984375 1.546875,2.5625 1.546875,4.640625 0,1.71875 -0.359375,3.46875 -1.59375,4.71875 C 0.5625,2.34375 0.5625,2.359375 0.5625,2.390625 0.5625,2.453125 0.609375,2.5 0.671875,2.5 0.765625,2.5 1.671875,1.8125 2.25,0.546875 2.765625,-0.546875 2.875,-1.65625 2.875,-2.5 Z m 0,0"
             id="id-f47ad228-8c54-4c1d-b57e-171286bcdf3a" />
        </symbol>
        <symbol
           overflow="visible"
           id="id-78ec11a3-1252-4c76-95cf-02870b9a0eaa">
          <path
             style="stroke:none"
             d=""
             id="id-2b91ae18-bb6e-4b2a-9bf1-d3d6852cdc98" />
        </symbol>
        <symbol
           overflow="visible"
           id="id-4c2c1aee-d531-4dfc-99dc-5b2dd6cf8af6">
          <path
             style="stroke:none"
             d="m 2.25,-1.734375 c 0.578125,-0.25 0.828125,-0.34375 1,-0.4375 0.140625,-0.046875 0.203125,-0.078125 0.203125,-0.21875 0,-0.109375 -0.09375,-0.21875 -0.21875,-0.21875 -0.046875,0 -0.0625,0 -0.140625,0.0625 L 2.140625,-1.90625 2.25,-2.9375 c 0.015625,-0.125 0,-0.296875 -0.21875,-0.296875 -0.078125,0 -0.21875,0.046875 -0.21875,0.203125 0,0.0625 0.03125,0.265625 0.046875,0.34375 0.015625,0.109375 0.0625,0.625 0.078125,0.78125 L 0.984375,-2.546875 c -0.0625,-0.03125 -0.078125,-0.0625 -0.140625,-0.0625 -0.140625,0 -0.21875,0.109375 -0.21875,0.21875 0,0.140625 0.078125,0.1875 0.140625,0.203125 L 1.8125,-1.734375 c -0.5625,0.25 -0.828125,0.34375 -1,0.421875 -0.125,0.0625 -0.1875,0.09375 -0.1875,0.21875 0,0.125 0.078125,0.21875 0.21875,0.21875 0.046875,0 0.0625,0 0.140625,-0.0625 l 0.953125,-0.625 -0.125,1.109375 c 0,0.15625 0.140625,0.21875 0.21875,0.21875 0.09375,0 0.21875,-0.0625 0.21875,-0.21875 0,-0.0625 -0.03125,-0.265625 -0.03125,-0.328125 -0.015625,-0.125 -0.0625,-0.625 -0.078125,-0.78125 L 2.96875,-1.015625 C 3.15625,-0.875 3.171875,-0.875 3.234375,-0.875 c 0.125,0 0.21875,-0.09375 0.21875,-0.21875 0,-0.140625 -0.09375,-0.171875 -0.15625,-0.203125 z m 0,0"
             id="id-cc875bc0-5c29-4a30-9c28-c50f09568a92" />
        </symbol>
      </g>
    </defs>
    <g
       id="id-f3bec9bb-3a7e-440b-8b65-d336701d7fd5"
       transform="translate(-149.118,-127.281)">
      <g
         style="fill:#000000;fill-opacity:1"
         id="id-c641a3c9-6d0e-4024-befb-e52bf43c7b59">
        <g
           transform="translate(148.712,134.765)"
           id="g8076">
          <path
             style="stroke:none"
             d="M 3.015625,-3.15625 H 4.71875 c 1.40625,0 2.796875,-1.03125 2.796875,-2.140625 0,-0.78125 -0.65625,-1.515625 -1.96875,-1.515625 h -3.21875 c -0.1875,0 -0.296875,0 -0.296875,0.1875 0,0.125 0.078125,0.125 0.28125,0.125 0.125,0 0.3125,0.015625 0.421875,0.015625 0.171875,0.03125 0.21875,0.046875 0.21875,0.171875 0,0.03125 0,0.0625 -0.03125,0.1875 l -1.34375,5.34375 c -0.09375,0.390625 -0.109375,0.46875 -0.90625,0.46875 -0.15625,0 -0.265625,0 -0.265625,0.1875 C 0.40625,0 0.515625,0 0.546875,0 0.828125,0 1.53125,-0.03125 1.8125,-0.03125 c 0.21875,0 0.4375,0.015625 0.640625,0.015625 0.21875,0 0.4375,0.015625 0.640625,0.015625 0.078125,0 0.203125,0 0.203125,-0.203125 0,-0.109375 -0.09375,-0.109375 -0.28125,-0.109375 -0.359375,0 -0.640625,0 -0.640625,-0.171875 0,-0.0625 0.015625,-0.109375 0.03125,-0.171875 z M 3.734375,-6.125 C 3.828125,-6.46875 3.84375,-6.5 4.28125,-6.5 h 0.953125 c 0.828125,0 1.359375,0.265625 1.359375,0.953125 0,0.390625 -0.203125,1.25 -0.59375,1.609375 -0.5,0.453125 -1.09375,0.53125 -1.53125,0.53125 H 3.0625 Z m 0,0"
             id="id-0ba67443-8898-40c9-8352-49a57e50bb21" />
        </g>
      </g>
      <g
         style="fill:#000000;fill-opacity:1"
         id="id-dc074d6e-fd5b-4ccf-9cdc-0a4d747708d5">
        <g
           transform="translate(156.492,134.765)"
           id="g3662">
          <path
             style="stroke:none"
             d="m 3.296875,2.390625 c 0,-0.03125 0,-0.046875 -0.171875,-0.21875 C 1.890625,0.921875 1.5625,-0.96875 1.5625,-2.5 c 0,-1.734375 0.375,-3.46875 1.609375,-4.703125 0.125,-0.125 0.125,-0.140625 0.125,-0.171875 0,-0.078125 -0.03125,-0.109375 -0.09375,-0.109375 -0.109375,0 -1,0.6875 -1.59375,1.953125 -0.5,1.09375 -0.625,2.203125 -0.625,3.03125 0,0.78125 0.109375,1.984375 0.65625,3.125 C 2.25,1.84375 3.09375,2.5 3.203125,2.5 c 0.0625,0 0.09375,-0.03125 0.09375,-0.109375 z m 0,0"
             id="id-bbc8090f-5ca0-4ab3-b634-8cfd744c2d2f" />
        </g>
      </g>
      <g
         style="fill:#000000;fill-opacity:1"
         id="id-96075baf-ef6b-4e53-8328-598a8c28c3c0">
        <g
           transform="translate(160.367,134.765)"
           id="g3035">
          <path
             style="stroke:none"
             d="M 3.328125,-3.015625 C 3.390625,-3.265625 3.625,-4.1875 4.3125,-4.1875 c 0.046875,0 0.296875,0 0.5,0.125 C 4.53125,-4 4.34375,-3.765625 4.34375,-3.515625 c 0,0.15625 0.109375,0.34375 0.375,0.34375 0.21875,0 0.53125,-0.171875 0.53125,-0.578125 0,-0.515625 -0.578125,-0.65625 -0.921875,-0.65625 -0.578125,0 -0.921875,0.53125 -1.046875,0.75 -0.25,-0.65625 -0.78125,-0.75 -1.078125,-0.75 -1.03125,0 -1.609375,1.28125 -1.609375,1.53125 0,0.109375 0.109375,0.109375 0.125,0.109375 0.078125,0 0.109375,-0.03125 0.125,-0.109375 0.34375,-1.0625 1,-1.3125 1.34375,-1.3125 0.1875,0 0.53125,0.09375 0.53125,0.671875 0,0.3125 -0.171875,0.96875 -0.53125,2.375 -0.15625,0.609375 -0.515625,1.03125 -0.953125,1.03125 -0.0625,0 -0.28125,0 -0.5,-0.125 0.25,-0.0625 0.46875,-0.265625 0.46875,-0.546875 0,-0.265625 -0.21875,-0.34375 -0.359375,-0.34375 -0.3125,0 -0.546875,0.25 -0.546875,0.578125 0,0.453125 0.484375,0.65625 0.921875,0.65625 0.671875,0 1.03125,-0.703125 1.046875,-0.75 0.125,0.359375 0.484375,0.75 1.078125,0.75 1.03125,0 1.59375,-1.28125 1.59375,-1.53125 0,-0.109375 -0.078125,-0.109375 -0.109375,-0.109375 -0.09375,0 -0.109375,0.046875 -0.140625,0.109375 -0.328125,1.078125 -1,1.3125 -1.3125,1.3125 -0.390625,0 -0.546875,-0.3125 -0.546875,-0.65625 0,-0.21875 0.046875,-0.4375 0.15625,-0.875 z m 0,0"
             id="id-bad90f36-6ef5-4feb-bf44-f764caecec4a" />
        </g>
      </g>
      <g
         style="fill:#000000;fill-opacity:1"
         id="id-b5d798c2-560b-414f-b722-455e0389a3c4">
        <g
           transform="translate(166.06,136.259)"
           id="g8371">
          <path
             style="stroke:none"
             d="m 2.25,-1.734375 c 0.578125,-0.25 0.828125,-0.34375 1,-0.4375 0.140625,-0.046875 0.203125,-0.078125 0.203125,-0.21875 0,-0.109375 -0.09375,-0.21875 -0.21875,-0.21875 -0.046875,0 -0.0625,0 -0.140625,0.0625 L 2.140625,-1.90625 2.25,-2.9375 c 0.015625,-0.125 0,-0.296875 -0.21875,-0.296875 -0.078125,0 -0.21875,0.046875 -0.21875,0.203125 0,0.0625 0.03125,0.265625 0.046875,0.34375 0.015625,0.109375 0.0625,0.625 0.078125,0.78125 L 0.984375,-2.546875 c -0.0625,-0.03125 -0.078125,-0.0625 -0.140625,-0.0625 -0.140625,0 -0.21875,0.109375 -0.21875,0.21875 0,0.140625 0.078125,0.1875 0.140625,0.203125 L 1.8125,-1.734375 c -0.5625,0.25 -0.828125,0.34375 -1,0.421875 -0.125,0.0625 -0.1875,0.09375 -0.1875,0.21875 0,0.125 0.078125,0.21875 0.21875,0.21875 0.046875,0 0.0625,0 0.140625,-0.0625 l 0.953125,-0.625 -0.125,1.109375 c 0,0.15625 0.140625,0.21875 0.21875,0.21875 0.09375,0 0.21875,-0.0625 0.21875,-0.21875 0,-0.0625 -0.03125,-0.265625 -0.03125,-0.328125 -0.015625,-0.125 -0.0625,-0.625 -0.078125,-0.78125 L 2.96875,-1.015625 C 3.15625,-0.875 3.171875,-0.875 3.234375,-0.875 c 0.125,0 0.21875,-0.09375 0.21875,-0.21875 0,-0.140625 -0.09375,-0.171875 -0.15625,-0.203125 z m 0,0"
             id="id-91a177fa-0c49-4a23-9cdf-a9a3ab1d6c91" />
        </g>
      </g>
      <g
         style="fill:#000000;fill-opacity:1"
         id="id-f076a921-3443-4c12-bc1c-445178cf0236">
        <g
           transform="translate(170.64,134.765)"
           id="g4915">
          <path
             style="stroke:none"
             d="m 2.875,-2.5 c 0,-0.765625 -0.109375,-1.96875 -0.65625,-3.109375 -0.59375,-1.21875 -1.453125,-1.875 -1.546875,-1.875 -0.0625,0 -0.109375,0.046875 -0.109375,0.109375 0,0.03125 0,0.046875 0.1875,0.234375 0.984375,0.984375 1.546875,2.5625 1.546875,4.640625 0,1.71875 -0.359375,3.46875 -1.59375,4.71875 C 0.5625,2.34375 0.5625,2.359375 0.5625,2.390625 0.5625,2.453125 0.609375,2.5 0.671875,2.5 0.765625,2.5 1.671875,1.8125 2.25,0.546875 2.765625,-0.546875 2.875,-1.65625 2.875,-2.5 Z m 0,0"
             id="id-3a5a2841-e915-4591-8114-9fa7fb37f0ba" />
        </g>
      </g>
    </g>
  </g>
  <g
     transform="matrix(10.6666,0,0,10.6666,1181.1551,732.58)"
     ns2:version="1.10.1"
     ns2:texconverter="pdflatex"
     ns2:pdfconverter="inkscape"
     ns2:text="\\[x_*\\]"
     ns2:preamble="/home/onofrio/.config/inkscape/extensions/textext/default_packages.tex"
     ns2:scale="8.0"
     ns2:alignment="middle center"
     ns2:stroke-to-path="0"
     ns2:inkscapeversion="1.3.2"
     id="g9350"
     ns2:jacobian_sqrt="10.6666">
    <defs
       id="id-733546b7-b245-4bb5-9d22-e1eba47841e2">
      <g
         id="id-bc2b8103-5eab-44bd-bec0-f947e0a6e5b4">
        <symbol
           overflow="visible"
           id="id-e15d813c-d384-4e12-9c1e-0edcb2da6fa5">
          <path
             style="stroke:none"
             d=""
             id="id-115c5bb6-6ae5-4925-861c-e602d66512b3" />
        </symbol>
        <symbol
           overflow="visible"
           id="id-9d8132fb-c208-44ed-be6b-2c99c62f9b8f">
          <path
             style="stroke:none"
             d="M 3.328125,-3.015625 C 3.390625,-3.265625 3.625,-4.1875 4.3125,-4.1875 c 0.046875,0 0.296875,0 0.5,0.125 C 4.53125,-4 4.34375,-3.765625 4.34375,-3.515625 c 0,0.15625 0.109375,0.34375 0.375,0.34375 0.21875,0 0.53125,-0.171875 0.53125,-0.578125 0,-0.515625 -0.578125,-0.65625 -0.921875,-0.65625 -0.578125,0 -0.921875,0.53125 -1.046875,0.75 -0.25,-0.65625 -0.78125,-0.75 -1.078125,-0.75 -1.03125,0 -1.609375,1.28125 -1.609375,1.53125 0,0.109375 0.109375,0.109375 0.125,0.109375 0.078125,0 0.109375,-0.03125 0.125,-0.109375 0.34375,-1.0625 1,-1.3125 1.34375,-1.3125 0.1875,0 0.53125,0.09375 0.53125,0.671875 0,0.3125 -0.171875,0.96875 -0.53125,2.375 -0.15625,0.609375 -0.515625,1.03125 -0.953125,1.03125 -0.0625,0 -0.28125,0 -0.5,-0.125 0.25,-0.0625 0.46875,-0.265625 0.46875,-0.546875 0,-0.265625 -0.21875,-0.34375 -0.359375,-0.34375 -0.3125,0 -0.546875,0.25 -0.546875,0.578125 0,0.453125 0.484375,0.65625 0.921875,0.65625 0.671875,0 1.03125,-0.703125 1.046875,-0.75 0.125,0.359375 0.484375,0.75 1.078125,0.75 1.03125,0 1.59375,-1.28125 1.59375,-1.53125 0,-0.109375 -0.078125,-0.109375 -0.109375,-0.109375 -0.09375,0 -0.109375,0.046875 -0.140625,0.109375 -0.328125,1.078125 -1,1.3125 -1.3125,1.3125 -0.390625,0 -0.546875,-0.3125 -0.546875,-0.65625 0,-0.21875 0.046875,-0.4375 0.15625,-0.875 z m 0,0"
             id="id-c5dea93f-f7b9-4568-b579-32bc3ccf31bf" />
        </symbol>
        <symbol
           overflow="visible"
           id="id-14721f9c-f0f4-4b96-a147-89d684405027">
          <path
             style="stroke:none"
             d=""
             id="id-8379593e-9f07-403d-b1b0-d2fe6178b810" />
        </symbol>
        <symbol
           overflow="visible"
           id="id-83587175-4826-4d39-8667-f03eda1218e2">
          <path
             style="stroke:none"
             d="m 2.25,-1.734375 c 0.578125,-0.25 0.828125,-0.34375 1,-0.4375 0.140625,-0.046875 0.203125,-0.078125 0.203125,-0.21875 0,-0.109375 -0.09375,-0.21875 -0.21875,-0.21875 -0.046875,0 -0.0625,0 -0.140625,0.0625 L 2.140625,-1.90625 2.25,-2.9375 c 0.015625,-0.125 0,-0.296875 -0.21875,-0.296875 -0.078125,0 -0.21875,0.046875 -0.21875,0.203125 0,0.0625 0.03125,0.265625 0.046875,0.34375 0.015625,0.109375 0.0625,0.625 0.078125,0.78125 L 0.984375,-2.546875 c -0.0625,-0.03125 -0.078125,-0.0625 -0.140625,-0.0625 -0.140625,0 -0.21875,0.109375 -0.21875,0.21875 0,0.140625 0.078125,0.1875 0.140625,0.203125 L 1.8125,-1.734375 c -0.5625,0.25 -0.828125,0.34375 -1,0.421875 -0.125,0.0625 -0.1875,0.09375 -0.1875,0.21875 0,0.125 0.078125,0.21875 0.21875,0.21875 0.046875,0 0.0625,0 0.140625,-0.0625 l 0.953125,-0.625 -0.125,1.109375 c 0,0.15625 0.140625,0.21875 0.21875,0.21875 0.09375,0 0.21875,-0.0625 0.21875,-0.21875 0,-0.0625 -0.03125,-0.265625 -0.03125,-0.328125 -0.015625,-0.125 -0.0625,-0.625 -0.078125,-0.78125 L 2.96875,-1.015625 C 3.15625,-0.875 3.171875,-0.875 3.234375,-0.875 c 0.125,0 0.21875,-0.09375 0.21875,-0.21875 0,-0.140625 -0.09375,-0.171875 -0.15625,-0.203125 z m 0,0"
             id="id-ee4cb60e-e2a5-4a1b-af88-993558fdcb8d" />
        </symbol>
      </g>
    </defs>
    <g
       id="id-b5502034-bf68-481b-87fa-e3dc04caf135"
       transform="translate(-300.784,-142.314)">
      <g
         style="fill:#000000;fill-opacity:1"
         id="id-85962cf6-d377-42e1-b5b3-86d8d160a10b">
        <g
           transform="translate(300.487,146.72)"
           id="g6575">
          <path
             style="stroke:none"
             d="M 3.328125,-3.015625 C 3.390625,-3.265625 3.625,-4.1875 4.3125,-4.1875 c 0.046875,0 0.296875,0 0.5,0.125 C 4.53125,-4 4.34375,-3.765625 4.34375,-3.515625 c 0,0.15625 0.109375,0.34375 0.375,0.34375 0.21875,0 0.53125,-0.171875 0.53125,-0.578125 0,-0.515625 -0.578125,-0.65625 -0.921875,-0.65625 -0.578125,0 -0.921875,0.53125 -1.046875,0.75 -0.25,-0.65625 -0.78125,-0.75 -1.078125,-0.75 -1.03125,0 -1.609375,1.28125 -1.609375,1.53125 0,0.109375 0.109375,0.109375 0.125,0.109375 0.078125,0 0.109375,-0.03125 0.125,-0.109375 0.34375,-1.0625 1,-1.3125 1.34375,-1.3125 0.1875,0 0.53125,0.09375 0.53125,0.671875 0,0.3125 -0.171875,0.96875 -0.53125,2.375 -0.15625,0.609375 -0.515625,1.03125 -0.953125,1.03125 -0.0625,0 -0.28125,0 -0.5,-0.125 0.25,-0.0625 0.46875,-0.265625 0.46875,-0.546875 0,-0.265625 -0.21875,-0.34375 -0.359375,-0.34375 -0.3125,0 -0.546875,0.25 -0.546875,0.578125 0,0.453125 0.484375,0.65625 0.921875,0.65625 0.671875,0 1.03125,-0.703125 1.046875,-0.75 0.125,0.359375 0.484375,0.75 1.078125,0.75 1.03125,0 1.59375,-1.28125 1.59375,-1.53125 0,-0.109375 -0.078125,-0.109375 -0.109375,-0.109375 -0.09375,0 -0.109375,0.046875 -0.140625,0.109375 -0.328125,1.078125 -1,1.3125 -1.3125,1.3125 -0.390625,0 -0.546875,-0.3125 -0.546875,-0.65625 0,-0.21875 0.046875,-0.4375 0.15625,-0.875 z m 0,0"
             id="id-412dbd72-748e-42d7-bd30-f046d9720fae" />
        </g>
      </g>
      <g
         style="fill:#000000;fill-opacity:1"
         id="id-735e3e05-00ce-4c97-9763-e3e54554d6c0">
        <g
           transform="translate(306.181,148.214)"
           id="g5857">
          <path
             style="stroke:none"
             d="m 2.25,-1.734375 c 0.578125,-0.25 0.828125,-0.34375 1,-0.4375 0.140625,-0.046875 0.203125,-0.078125 0.203125,-0.21875 0,-0.109375 -0.09375,-0.21875 -0.21875,-0.21875 -0.046875,0 -0.0625,0 -0.140625,0.0625 L 2.140625,-1.90625 2.25,-2.9375 c 0.015625,-0.125 0,-0.296875 -0.21875,-0.296875 -0.078125,0 -0.21875,0.046875 -0.21875,0.203125 0,0.0625 0.03125,0.265625 0.046875,0.34375 0.015625,0.109375 0.0625,0.625 0.078125,0.78125 L 0.984375,-2.546875 c -0.0625,-0.03125 -0.078125,-0.0625 -0.140625,-0.0625 -0.140625,0 -0.21875,0.109375 -0.21875,0.21875 0,0.140625 0.078125,0.1875 0.140625,0.203125 L 1.8125,-1.734375 c -0.5625,0.25 -0.828125,0.34375 -1,0.421875 -0.125,0.0625 -0.1875,0.09375 -0.1875,0.21875 0,0.125 0.078125,0.21875 0.21875,0.21875 0.046875,0 0.0625,0 0.140625,-0.0625 l 0.953125,-0.625 -0.125,1.109375 c 0,0.15625 0.140625,0.21875 0.21875,0.21875 0.09375,0 0.21875,-0.0625 0.21875,-0.21875 0,-0.0625 -0.03125,-0.265625 -0.03125,-0.328125 -0.015625,-0.125 -0.0625,-0.625 -0.078125,-0.78125 L 2.96875,-1.015625 C 3.15625,-0.875 3.171875,-0.875 3.234375,-0.875 c 0.125,0 0.21875,-0.09375 0.21875,-0.21875 0,-0.140625 -0.09375,-0.171875 -0.15625,-0.203125 z m 0,0"
             id="id-259d56eb-995e-41dd-9d20-62d6ff86d7aa" />
        </g>
      </g>
    </g>
  </g>
</svg>
