<?xml version="1.0" encoding="UTF-8" standalone="no"?>
<svg
   width="672.30261"
   height="412.54166"
   viewBox="0 0 2689.2104 1650.1666"
   version="1.1"
   id="svg26"
   sodipodi:docname="cut-off-justification.svg"
   inkscape:version="1.3.2 (1:1.3.2+202311252150+091e20ef0f)"
   inkscape:export-filename="cut-off-justification.png"
   inkscape:export-xdpi="96"
   inkscape:export-ydpi="96"
   xmlns:inkscape="http://www.inkscape.org/namespaces/inkscape"
   xmlns:sodipodi="http://sodipodi.sourceforge.net/DTD/sodipodi-0.dtd"
   xmlns="http://www.w3.org/2000/svg"
   xmlns:svg="http://www.w3.org/2000/svg"
   xmlns:ns1="http://www.iki.fi/pav/software/textext/">
  <sodipodi:namedview
     id="namedview26"
     pagecolor="#ffffff"
     bordercolor="#666666"
     borderopacity="1.0"
     inkscape:showpageshadow="2"
     inkscape:pageopacity="0.0"
     inkscape:pagecheckerboard="0"
     inkscape:deskcolor="#d1d1d1"
     inkscape:zoom="1.0425"
     inkscape:cx="292.56595"
     inkscape:cy="161.15108"
     inkscape:window-width="1920"
     inkscape:window-height="1016"
     inkscape:window-x="0"
     inkscape:window-y="27"
     inkscape:window-maximized="1"
     inkscape:current-layer="svg26" />
  <defs
     id="defs1">
    <marker
       style="overflow:visible"
       id="Triangle"
       refX="0"
       refY="0"
       orient="auto-start-reverse"
       inkscape:stockid="Triangle arrow"
       markerWidth="1"
       markerHeight="1"
       viewBox="0 0 1 1"
       inkscape:isstock="true"
       inkscape:collect="always"
       preserveAspectRatio="xMidYMid">
      <path
         transform="scale(0.5)"
         style="fill:context-stroke;fill-rule:evenodd;stroke:context-stroke;stroke-width:1pt"
         d="M 5.77,0 -2.88,5 V -5 Z"
         id="path135" />
    </marker>
    <clipPath
       id="clip980">
      <rect
         x="0"
         y="0"
         width="2400"
         height="1600"
         id="rect1" />
    </clipPath>
  </defs>
  <defs
     id="defs2">
    <clipPath
       id="clip981">
      <rect
         x="480"
         y="0"
         width="1681"
         height="1600"
         id="rect2" />
    </clipPath>
  </defs>
  <defs
     id="defs3">
    <clipPath
       id="clip982">
      <rect
         x="158"
         y="47"
         width="2195"
         height="1428"
         id="rect3" />
    </clipPath>
  </defs>
  <polyline
     clip-path="url(#clip980)"
     style="fill:none;stroke:#000000;stroke-width:4;stroke-linecap:round;stroke-linejoin:round;stroke-opacity:1"
     points="158.35,1474.16 2352.76,1474.16 "
     id="polyline5"
     transform="translate(289.21033)" />
  <polyline
     clip-path="url(#clip980)"
     style="fill:none;stroke:#000000;stroke-width:4;stroke-linecap:round;stroke-linejoin:round;stroke-opacity:1"
     points="1048.53,1474.16 1048.53,1455.27 "
     id="polyline6"
     transform="translate(289.21033)" />
  <polyline
     clip-path="url(#clip980)"
     style="fill:none;stroke:#000000;stroke-width:4;stroke-linecap:round;stroke-linejoin:round;stroke-opacity:1"
     points="2290.65,1474.16 2290.65,1455.27 "
     id="polyline7"
     transform="translate(289.21033)" />
  <path
     clip-path="url(#clip980)"
     d="m 1013.98,1548.29 h 7.64 v -26.37 l -8.31,1.67 v -4.26 l 8.26,-1.67 h 4.68 v 30.63 h 7.63 v 3.93 h -19.9 z"
     fill="#000000"
     fill-rule="nonzero"
     fill-opacity="1"
     id="path7"
     transform="translate(289.21033)" />
  <path
     clip-path="url(#clip980)"
     d="m 1053.33,1520.74 q -3.61,0 -5.44,3.57 -1.81,3.54 -1.81,10.67 0,7.11 1.81,10.67 1.83,3.54 5.44,3.54 3.63,0 5.44,-3.54 1.83,-3.56 1.83,-10.67 0,-7.13 -1.83,-10.67 -1.81,-3.57 -5.44,-3.57 m 0,-3.7 q 5.81,0 8.86,4.61 3.08,4.58 3.08,13.33 0,8.73 -3.08,13.33 -3.05,4.59 -8.86,4.59 -5.81,0 -8.89,-4.59 -3.06,-4.6 -3.06,-13.33 0,-8.75 3.06,-13.33 3.08,-4.61 8.89,-4.61 z"
     fill="#000000"
     fill-rule="nonzero"
     fill-opacity="1"
     id="path8"
     transform="translate(289.21033)" />
  <path
     clip-path="url(#clip980)"
     d="m 1077.97,1509.67 q 2.73,0.59 4.25,2.43 1.54,1.84 1.54,4.55 0,4.16 -2.86,6.43 -2.86,2.28 -8.12,2.28 -1.77,0 -3.65,-0.36 -1.86,-0.34 -3.86,-1.03 v -3.67 q 1.58,0.92 3.46,1.39 1.88,0.47 3.93,0.47 3.58,0 5.44,-1.41 1.88,-1.41 1.88,-4.1 0,-2.48 -1.75,-3.87 -1.73,-1.41 -4.83,-1.41 h -3.27 v -3.13 h 3.42 q 2.8,0 4.29,-1.11 1.48,-1.12 1.48,-3.23 0,-2.16 -1.54,-3.31 -1.52,-1.17 -4.38,-1.17 -1.56,0 -3.35,0.34 -1.79,0.34 -3.93,1.06 v -3.39 q 2.16,-0.6 4.04,-0.9 1.9,-0.3 3.58,-0.3 4.32,0 6.84,1.97 2.52,1.96 2.52,5.31 0,2.33 -1.33,3.94 -1.34,1.6 -3.8,2.22 z"
     fill="#000000"
     fill-rule="nonzero"
     fill-opacity="1"
     id="path9"
     transform="translate(289.21033)" />
  <path
     clip-path="url(#clip980)"
     d="m 2255.64,1548.29 h 7.64 v -26.37 l -8.31,1.67 v -4.26 l 8.26,-1.67 h 4.68 v 30.63 h 7.64 v 3.93 h -19.91 z"
     fill="#000000"
     fill-rule="nonzero"
     fill-opacity="1"
     id="path10"
     transform="translate(289.21033)" />
  <path
     clip-path="url(#clip980)"
     d="m 2294.99,1520.74 q -3.61,0 -5.44,3.57 -1.8,3.54 -1.8,10.67 0,7.11 1.8,10.67 1.83,3.54 5.44,3.54 3.64,0 5.44,-3.54 1.83,-3.56 1.83,-10.67 0,-7.13 -1.83,-10.67 -1.8,-3.57 -5.44,-3.57 m 0,-3.7 q 5.81,0 8.87,4.61 3.08,4.58 3.08,13.33 0,8.73 -3.08,13.33 -3.06,4.59 -8.87,4.59 -5.81,0 -8.88,-4.59 -3.06,-4.6 -3.06,-13.33 0,-8.75 3.06,-13.33 3.07,-4.61 8.88,-4.61 z"
     fill="#000000"
     fill-rule="nonzero"
     fill-opacity="1"
     id="path11"
     transform="translate(289.21033)" />
  <path
     clip-path="url(#clip980)"
     d="m 2316.96,1509.26 q -2.55,0 -4.06,1.75 -1.49,1.75 -1.49,4.8 0,3.02 1.49,4.79 1.51,1.75 4.06,1.75 2.56,0 4.05,-1.75 1.5,-1.77 1.5,-4.79 0,-3.05 -1.5,-4.8 -1.49,-1.75 -4.05,-1.75 m 7.54,-11.91 v 3.47 q -1.42,-0.68 -2.89,-1.04 -1.45,-0.36 -2.88,-0.36 -3.76,0 -5.75,2.54 -1.98,2.54 -2.26,7.68 1.11,-1.64 2.78,-2.51 1.68,-0.88 3.69,-0.88 4.23,0 6.68,2.58 2.46,2.56 2.46,6.98 0,4.32 -2.56,6.94 -2.56,2.61 -6.81,2.61 -4.87,0 -7.44,-3.72 -2.58,-3.75 -2.58,-10.84 0,-6.66 3.16,-10.61 3.16,-3.96 8.48,-3.96 1.43,0 2.88,0.28 1.46,0.28 3.04,0.84 z"
     fill="#000000"
     fill-rule="nonzero"
     fill-opacity="1"
     id="path12"
     transform="translate(289.21033)" />
  <polyline
     clip-path="url(#clip980)"
     style="fill:none;stroke:#000000;stroke-width:4;stroke-linecap:round;stroke-linejoin:round;stroke-opacity:1"
     points="158.35,1474.16 158.35,47.2441 "
     id="polyline14"
     transform="translate(289.21033)" />
  <polyline
     clip-path="url(#clip980)"
     style="fill:none;stroke:#000000;stroke-width:4;stroke-linecap:round;stroke-linejoin:round;stroke-opacity:1"
     points="158.35,894.86 177.248,894.86 "
     id="polyline15"
     transform="translate(289.21033)" />
  <polyline
     clip-path="url(#clip980)"
     style="fill:none;stroke:#000000;stroke-width:4;stroke-linecap:round;stroke-linejoin:round;stroke-opacity:1"
     points="158.35,104.56 177.248,104.56 "
     id="polyline16"
     transform="translate(289.21033)" />
  <path
     clip-path="url(#clip980)"
     d="m 52.5662,914.652 h 7.6388 v -26.366 l -8.3101,1.667 v -4.259 l 8.2638,-1.667 h 4.6759 v 30.625 h 7.6389 v 3.935 H 52.5662 Z"
     fill="#000000"
     fill-rule="nonzero"
     fill-opacity="1"
     id="path16"
     transform="translate(289.21033)" />
  <path
     clip-path="url(#clip980)"
     d="m 91.9178,887.106 q -3.6111,0 -5.4398,3.565 -1.8055,3.541 -1.8055,10.671 0,7.106 1.8055,10.671 1.8287,3.542 5.4398,3.542 3.6343,0 5.4398,-3.542 1.8287,-3.565 1.8287,-10.671 0,-7.13 -1.8287,-10.671 -1.8055,-3.565 -5.4398,-3.565 m 0,-3.704 q 5.8102,0 8.8662,4.607 3.078,4.583 3.078,13.333 0,8.727 -3.078,13.333 -3.056,4.583 -8.8662,4.583 -5.8101,0 -8.8888,-4.583 -3.0555,-4.606 -3.0555,-13.333 0,-8.75 3.0555,-13.333 3.0787,-4.607 8.8888,-4.607 z"
     fill="#000000"
     fill-rule="nonzero"
     fill-opacity="1"
     id="path17"
     transform="translate(289.21033)" />
  <path
     clip-path="url(#clip980)"
     d="m 116.557,876.037 q 2.728,0.583 4.251,2.426 1.542,1.843 1.542,4.551 0,4.157 -2.859,6.432 -2.858,2.276 -8.124,2.276 -1.768,0 -3.649,-0.357 -1.862,-0.339 -3.856,-1.035 v -3.667 q 1.58,0.921 3.461,1.392 1.881,0.47 3.931,0.47 3.573,0 5.435,-1.411 1.881,-1.41 1.881,-4.1 0,-2.482 -1.749,-3.874 -1.731,-1.411 -4.834,-1.411 h -3.272 v -3.122 h 3.423 q 2.802,0 4.288,-1.11 1.486,-1.128 1.486,-3.234 0,-2.163 -1.543,-3.311 -1.523,-1.166 -4.382,-1.166 -1.561,0 -3.348,0.339 -1.786,0.338 -3.93,1.053 v -3.385 q 2.162,-0.602 4.043,-0.903 1.9,-0.301 3.574,-0.301 4.325,0 6.846,1.975 2.52,1.956 2.52,5.304 0,2.332 -1.335,3.949 -1.336,1.599 -3.8,2.22 z"
     fill="#000000"
     fill-rule="nonzero"
     fill-opacity="1"
     id="path18"
     transform="translate(289.21033)" />
  <path
     clip-path="url(#clip980)"
     d="m 51.6634,124.352 h 7.6389 V 97.9867 l -8.3102,1.6666 v -4.2592 l 8.2639,-1.6667 h 4.6759 v 30.6246 h 7.6388 v 3.935 H 51.6634 Z"
     fill="#000000"
     fill-rule="nonzero"
     fill-opacity="1"
     id="path19"
     transform="translate(289.21033)" />
  <path
     clip-path="url(#clip980)"
     d="m 91.0151,96.8061 q -3.6111,0 -5.4398,3.5649 -1.8056,3.542 -1.8056,10.671 0,7.107 1.8056,10.671 1.8287,3.542 5.4398,3.542 3.6342,0 5.4397,-3.542 1.8287,-3.564 1.8287,-10.671 0,-7.129 -1.8287,-10.671 -1.8055,-3.5649 -5.4397,-3.5649 m 0,-3.7037 q 5.8101,0 8.8657,4.6065 3.0782,4.5831 3.0782,13.3331 0,8.727 -3.0782,13.333 -3.0556,4.584 -8.8657,4.584 -5.8102,0 -8.8889,-4.584 -3.0555,-4.606 -3.0555,-13.333 0,-8.75 3.0555,-13.3331 3.0787,-4.6065 8.8889,-4.6065 z"
     fill="#000000"
     fill-rule="nonzero"
     fill-opacity="1"
     id="path20"
     transform="translate(289.21033)" />
  <path
     clip-path="url(#clip980)"
     d="m 112.984,85.323 q -2.558,0 -4.062,1.7491 -1.486,1.7492 -1.486,4.796 0,3.0281 1.486,4.796 1.504,1.7491 4.062,1.7491 2.558,0 4.044,-1.7491 1.504,-1.7679 1.504,-4.796 0,-3.0468 -1.504,-4.796 -1.486,-1.7491 -4.044,-1.7491 m 7.542,-11.9053 v 3.4606 q -1.429,-0.6771 -2.896,-1.0344 -1.449,-0.3574 -2.878,-0.3574 -3.762,0 -5.755,2.5391 -1.975,2.539 -2.257,7.6736 1.109,-1.6363 2.783,-2.5015 1.674,-0.8839 3.687,-0.8839 4.231,0 6.676,2.5766 2.464,2.5579 2.464,6.9777 0,4.3258 -2.558,6.9401 -2.557,2.6138 -6.808,2.6138 -4.871,0 -7.448,-3.7235 -2.577,-3.7427 -2.577,-10.8333 0,-6.6579 3.16,-10.6075 3.16,-3.9685 8.482,-3.9685 1.43,0 2.878,0.2821 1.467,0.2822 3.047,0.8464 z"
     fill="#000000"
     fill-rule="nonzero"
     fill-opacity="1"
     id="path21"
     transform="translate(289.21033)" />
  <circle
     clip-path="url(#clip982)"
     cx="220.45599"
     cy="1112.35"
     r="18"
     fill="#009af9"
     fill-rule="evenodd"
     fill-opacity="1"
     stroke="#000000"
     stroke-opacity="1"
     stroke-width="0"
     id="circle21"
     transform="matrix(1.3333333,0,0,1.3333333,221.725,-364.7833)" />
  <circle
     clip-path="url(#clip982)"
     cx="634.495"
     cy="817.987"
     r="18"
     fill="#009af9"
     fill-rule="evenodd"
     fill-opacity="1"
     stroke="#000000"
     stroke-opacity="1"
     stroke-width="0"
     id="circle22"
     transform="matrix(1.3333333,0,0,1.3333333,83.712012,-266.66232)" />
  <circle
     clip-path="url(#clip982)"
     cx="1048.53"
     cy="975.479"
     r="18"
     fill="#009af9"
     fill-rule="evenodd"
     fill-opacity="1"
     stroke="#000000"
     stroke-opacity="1"
     stroke-width="0"
     id="circle23"
     transform="matrix(1.3333333,0,0,1.3333333,-54.299656,-319.15965)" />
  <circle
     clip-path="url(#clip982)"
     cx="1462.5699"
     cy="374.37201"
     r="18"
     fill="#009af9"
     fill-rule="evenodd"
     fill-opacity="1"
     stroke="#000000"
     stroke-opacity="1"
     stroke-width="0"
     id="circle24"
     transform="matrix(1.3333333,0,0,1.3333333,-192.31295,-118.79066)" />
  <circle
     clip-path="url(#clip982)"
     cx="1876.61"
     cy="422.444"
     r="18"
     fill="#009af9"
     fill-rule="evenodd"
     fill-opacity="1"
     stroke="#000000"
     stroke-opacity="1"
     stroke-width="0"
     id="circle25"
     transform="matrix(1.3333333,0,0,1.3333333,-330.32629,-134.81466)" />
  <circle
     clip-path="url(#clip982)"
     cx="2290.6499"
     cy="87.628601"
     r="18"
     fill="#009af9"
     fill-rule="evenodd"
     fill-opacity="1"
     stroke="#000000"
     stroke-opacity="1"
     stroke-width="0"
     id="circle26"
     transform="matrix(1.3333333,0,0,1.3333333,-468.33959,-23.209532)" />
  <polyline
     clip-path="url(#clip982)"
     style="fill:none;stroke:#000000;stroke-width:8;stroke-linecap:round;stroke-linejoin:round;stroke-opacity:1"
     points="220.456,1433.78 634.495,1159.44 1048.53,894.974 1462.57,631.438 1876.61,367.994 2290.65,104.56 "
     id="polyline26"
     transform="translate(289.21033)" />
  <g
     transform="matrix(10.6666,0,0,10.6666,1444.4646,1577.4951)"
     ns1:version="1.10.1"
     ns1:texconverter="pdflatex"
     ns1:pdfconverter="inkscape"
     ns1:text="\\[N\\]"
     ns1:preamble="/home/onofrio/.config/inkscape/extensions/textext/default_packages.tex"
     ns1:scale="8.0"
     ns1:alignment="middle center"
     ns1:stroke-to-path="0"
     id="g6766"
     ns1:jacobian_sqrt="10.6666">
    <defs
       id="id-cd7933f9-1c6a-4e4e-b5c4-028edb098bc0">
      <g
         id="id-0d00b971-4cd1-4ae2-8b5c-10d86dc4c8d7">
        <symbol
           overflow="visible"
           id="id-4c01af69-cd19-4439-a876-d3dd67d047a7">
          <path
             style="stroke:none;stroke-width:0"
             d=""
             id="id-4e1067ed-ef7d-4638-ad94-6604f8a7c177" />
        </symbol>
        <symbol
           overflow="visible"
           id="id-520cf1f7-b532-40a4-bbea-72dfb156ac1a">
          <path
             style="stroke:none;stroke-width:0"
             d="M 7.53125,-5.765625 C 7.640625,-6.15625 7.8125,-6.46875 8.609375,-6.5 c 0.046875,0 0.171875,-0.015625 0.171875,-0.203125 0,0 0,-0.109375 -0.125,-0.109375 -0.328125,0 -0.6875,0.03125 -1.015625,0.03125 -0.328125,0 -0.6875,-0.03125 -1.015625,-0.03125 -0.0625,0 -0.171875,0 -0.171875,0.203125 C 6.453125,-6.5 6.546875,-6.5 6.625,-6.5 c 0.578125,0.015625 0.6875,0.21875 0.6875,0.4375 0,0.03125 -0.03125,0.1875 -0.03125,0.203125 l -1.125,4.4375 L 3.953125,-6.625 C 3.875,-6.796875 3.875,-6.8125 3.640625,-6.8125 h -1.34375 c -0.1875,0 -0.28125,0 -0.28125,0.203125 0,0.109375 0.09375,0.109375 0.28125,0.109375 0.046875,0 0.671875,0 0.671875,0.09375 L 1.640625,-1.0625 c -0.109375,0.40625 -0.28125,0.71875 -1.078125,0.75 -0.0625,0 -0.171875,0.015625 -0.171875,0.203125 0,0.0625 0.046875,0.109375 0.125,0.109375 0.328125,0 0.671875,-0.03125 1,-0.03125 C 1.859375,-0.03125 2.21875,0 2.546875,0 2.59375,0 2.71875,0 2.71875,-0.203125 2.71875,-0.296875 2.625,-0.3125 2.515625,-0.3125 1.9375,-0.328125 1.859375,-0.546875 1.859375,-0.75 c 0,-0.0625 0.015625,-0.125 0.046875,-0.234375 l 1.3125,-5.25 C 3.265625,-6.1875 3.265625,-6.15625 3.3125,-6.0625 l 2.484375,5.875 C 5.859375,-0.015625 5.890625,0 5.984375,0 6.09375,0 6.09375,-0.03125 6.140625,-0.203125 Z m 0,0"
             id="id-4b330f5b-fa27-4e55-815b-959e3f358730" />
        </symbol>
      </g>
    </defs>
    <g
       id="id-182f9436-84fa-4667-881b-d53bf6c22836"
       transform="translate(-301.469,-139.907)">
      <g
         style="fill:#000000;fill-opacity:1"
         id="id-81a61e78-26da-4404-b1a0-dad80f8c4761">
        <g
           transform="translate(301.078,146.72)"
           id="g9399">
          <path
             style="stroke:none;stroke-width:0"
             d="M 7.53125,-5.765625 C 7.640625,-6.15625 7.8125,-6.46875 8.609375,-6.5 c 0.046875,0 0.171875,-0.015625 0.171875,-0.203125 0,0 0,-0.109375 -0.125,-0.109375 -0.328125,0 -0.6875,0.03125 -1.015625,0.03125 -0.328125,0 -0.6875,-0.03125 -1.015625,-0.03125 -0.0625,0 -0.171875,0 -0.171875,0.203125 C 6.453125,-6.5 6.546875,-6.5 6.625,-6.5 c 0.578125,0.015625 0.6875,0.21875 0.6875,0.4375 0,0.03125 -0.03125,0.1875 -0.03125,0.203125 l -1.125,4.4375 L 3.953125,-6.625 C 3.875,-6.796875 3.875,-6.8125 3.640625,-6.8125 h -1.34375 c -0.1875,0 -0.28125,0 -0.28125,0.203125 0,0.109375 0.09375,0.109375 0.28125,0.109375 0.046875,0 0.671875,0 0.671875,0.09375 L 1.640625,-1.0625 c -0.109375,0.40625 -0.28125,0.71875 -1.078125,0.75 -0.0625,0 -0.171875,0.015625 -0.171875,0.203125 0,0.0625 0.046875,0.109375 0.125,0.109375 0.328125,0 0.671875,-0.03125 1,-0.03125 C 1.859375,-0.03125 2.21875,0 2.546875,0 2.59375,0 2.71875,0 2.71875,-0.203125 2.71875,-0.296875 2.625,-0.3125 2.515625,-0.3125 1.9375,-0.328125 1.859375,-0.546875 1.859375,-0.75 c 0,-0.0625 0.015625,-0.125 0.046875,-0.234375 l 1.3125,-5.25 C 3.265625,-6.1875 3.265625,-6.15625 3.3125,-6.0625 l 2.484375,5.875 C 5.859375,-0.015625 5.890625,0 5.984375,0 6.09375,0 6.09375,-0.03125 6.140625,-0.203125 Z m 0,0"
             id="id-0fdc388e-65c3-4f87-af39-1f5b403e1388" />
        </g>
      </g>
    </g>
  </g>
  <path
     style="fill:#666666;stroke:#999999;stroke-width:12;stroke-linecap:butt;stroke-linejoin:miter;stroke-dasharray:none;stroke-opacity:1;marker-start:url(#Triangle)"
     d="m 1908.5779,625.21336 206.4066,384.27434"
     id="path26"
     sodipodi:nodetypes="cc" />
  <g
     transform="matrix(0,-10.6666,10.6666,0,-0.00399997,1138.9919)"
     ns1:version="1.10.1"
     ns1:texconverter="pdflatex"
     ns1:pdfconverter="inkscape"
     ns1:text="\\[\\bar{x}_N\\equiv\\frac{1}{N}\\sum_{i=1}^Nx_i\\]"
     ns1:preamble="/home/onofrio/.config/inkscape/extensions/textext/default_packages.tex"
     ns1:scale="8.0"
     ns1:alignment="middle center"
     ns1:stroke-to-path="0"
     id="g8873"
     ns1:jacobian_sqrt="10.6666">
    <defs
       id="id-ddb5be0f-9e2d-4c1d-9d54-144ef744b614">
      <g
         id="id-a98c9fbd-412a-4bbb-988f-ed69cb8ec6fa">
        <symbol
           overflow="visible"
           id="id-a7854f3a-8651-45d2-98ce-67cbcedc35ae">
          <path
             style="stroke:none;stroke-width:0"
             d=""
             id="id-bf47036f-6c97-451d-ba1b-a4063f4b416e" />
        </symbol>
        <symbol
           overflow="visible"
           id="id-17609801-b4a8-4ec2-9752-21deece294af">
          <path
             style="stroke:none;stroke-width:0"
             d="M 4.28125,-5.578125 V -5.875 H 0.6875 v 0.296875 z m 0,0"
             id="id-db83fd12-5728-4fae-adfa-d99d0a6ac26b" />
        </symbol>
        <symbol
           overflow="visible"
           id="id-aa4a2aa2-f4d8-423a-afbc-ce0f3c3cc24f">
          <path
             style="stroke:none;stroke-width:0"
             d="m 2.9375,-6.375 c 0,-0.25 0,-0.265625 -0.234375,-0.265625 C 2.078125,-6 1.203125,-6 0.890625,-6 v 0.3125 c 0.203125,0 0.78125,0 1.296875,-0.265625 v 5.171875 c 0,0.359375 -0.03125,0.46875 -0.921875,0.46875 h -0.3125 V 0 c 0.34375,-0.03125 1.203125,-0.03125 1.609375,-0.03125 0.390625,0 1.265625,0 1.609375,0.03125 v -0.3125 h -0.3125 c -0.90625,0 -0.921875,-0.109375 -0.921875,-0.46875 z m 0,0"
             id="id-2122c16e-5ee4-4c58-9fef-3651265ed9d9" />
        </symbol>
        <symbol
           overflow="visible"
           id="id-c51b7925-40de-420e-85a8-742a6bace8ec">
          <path
             style="stroke:none;stroke-width:0"
             d=""
             id="id-10138994-219c-4c81-af16-acd0a2b6725c" />
        </symbol>
        <symbol
           overflow="visible"
           id="id-88d89203-fc4c-477d-b216-124b740a120e">
          <path
             style="stroke:none;stroke-width:0"
             d="M 3.328125,-3.015625 C 3.390625,-3.265625 3.625,-4.1875 4.3125,-4.1875 c 0.046875,0 0.296875,0 0.5,0.125 C 4.53125,-4 4.34375,-3.765625 4.34375,-3.515625 c 0,0.15625 0.109375,0.34375 0.375,0.34375 0.21875,0 0.53125,-0.171875 0.53125,-0.578125 0,-0.515625 -0.578125,-0.65625 -0.921875,-0.65625 -0.578125,0 -0.921875,0.53125 -1.046875,0.75 -0.25,-0.65625 -0.78125,-0.75 -1.078125,-0.75 -1.03125,0 -1.609375,1.28125 -1.609375,1.53125 0,0.109375 0.109375,0.109375 0.125,0.109375 0.078125,0 0.109375,-0.03125 0.125,-0.109375 0.34375,-1.0625 1,-1.3125 1.34375,-1.3125 0.1875,0 0.53125,0.09375 0.53125,0.671875 0,0.3125 -0.171875,0.96875 -0.53125,2.375 -0.15625,0.609375 -0.515625,1.03125 -0.953125,1.03125 -0.0625,0 -0.28125,0 -0.5,-0.125 0.25,-0.0625 0.46875,-0.265625 0.46875,-0.546875 0,-0.265625 -0.21875,-0.34375 -0.359375,-0.34375 -0.3125,0 -0.546875,0.25 -0.546875,0.578125 0,0.453125 0.484375,0.65625 0.921875,0.65625 0.671875,0 1.03125,-0.703125 1.046875,-0.75 0.125,0.359375 0.484375,0.75 1.078125,0.75 1.03125,0 1.59375,-1.28125 1.59375,-1.53125 0,-0.109375 -0.078125,-0.109375 -0.109375,-0.109375 -0.09375,0 -0.109375,0.046875 -0.140625,0.109375 -0.328125,1.078125 -1,1.3125 -1.3125,1.3125 -0.390625,0 -0.546875,-0.3125 -0.546875,-0.65625 0,-0.21875 0.046875,-0.4375 0.15625,-0.875 z m 0,0"
             id="id-cbf11897-fc93-48b4-b21e-bfc8ccc81bb1" />
        </symbol>
        <symbol
           overflow="visible"
           id="id-947748c7-503c-44a4-b942-e32419a59bd4">
          <path
             style="stroke:none;stroke-width:0"
             d="M 7.53125,-5.765625 C 7.640625,-6.15625 7.8125,-6.46875 8.609375,-6.5 c 0.046875,0 0.171875,-0.015625 0.171875,-0.203125 0,0 0,-0.109375 -0.125,-0.109375 -0.328125,0 -0.6875,0.03125 -1.015625,0.03125 -0.328125,0 -0.6875,-0.03125 -1.015625,-0.03125 -0.0625,0 -0.171875,0 -0.171875,0.203125 C 6.453125,-6.5 6.546875,-6.5 6.625,-6.5 c 0.578125,0.015625 0.6875,0.21875 0.6875,0.4375 0,0.03125 -0.03125,0.1875 -0.03125,0.203125 l -1.125,4.4375 L 3.953125,-6.625 C 3.875,-6.796875 3.875,-6.8125 3.640625,-6.8125 h -1.34375 c -0.1875,0 -0.28125,0 -0.28125,0.203125 0,0.109375 0.09375,0.109375 0.28125,0.109375 0.046875,0 0.671875,0 0.671875,0.09375 L 1.640625,-1.0625 c -0.109375,0.40625 -0.28125,0.71875 -1.078125,0.75 -0.0625,0 -0.171875,0.015625 -0.171875,0.203125 0,0.0625 0.046875,0.109375 0.125,0.109375 0.328125,0 0.671875,-0.03125 1,-0.03125 C 1.859375,-0.03125 2.21875,0 2.546875,0 2.59375,0 2.71875,0 2.71875,-0.203125 2.71875,-0.296875 2.625,-0.3125 2.515625,-0.3125 1.9375,-0.328125 1.859375,-0.546875 1.859375,-0.75 c 0,-0.0625 0.015625,-0.125 0.046875,-0.234375 l 1.3125,-5.25 C 3.265625,-6.1875 3.265625,-6.15625 3.3125,-6.0625 l 2.484375,5.875 C 5.859375,-0.015625 5.890625,0 5.984375,0 6.09375,0 6.09375,-0.03125 6.140625,-0.203125 Z m 0,0"
             id="id-3cd9060e-00e4-4761-a3f7-4c550ea2973e" />
        </symbol>
        <symbol
           overflow="visible"
           id="id-f3f7380a-fd5b-494c-9674-88bd924c1103">
          <path
             style="stroke:none;stroke-width:0"
             d=""
             id="id-4954fa6b-2462-4630-b201-5570ab52d1b3" />
        </symbol>
        <symbol
           overflow="visible"
           id="id-e30805a8-43c6-48fa-8780-6cbdd8436273">
          <path
             style="stroke:none;stroke-width:0"
             d="M 5.8125,-4 C 5.875,-4.265625 6,-4.5 6.546875,-4.515625 c 0.03125,0 0.140625,0 0.140625,-0.140625 0,-0.046875 -0.03125,-0.109375 -0.109375,-0.109375 -0.21875,0 -0.484375,0.03125 -0.71875,0.03125 -0.171875,0 -0.5625,-0.03125 -0.734375,-0.03125 -0.03125,0 -0.140625,0 -0.140625,0.15625 0,0.09375 0.09375,0.09375 0.15625,0.09375 0.328125,0.015625 0.4375,0.125 0.4375,0.296875 0,0.046875 0,0.09375 -0.03125,0.15625 l -0.75,3.046875 -1.765625,-3.625 c -0.0625,-0.125 -0.078125,-0.125 -0.25,-0.125 H 1.828125 c -0.125,0 -0.21875,0 -0.21875,0.15625 0,0.09375 0.078125,0.09375 0.234375,0.09375 0.140625,0 0.296875,0.015625 0.4375,0.046875 L 1.359375,-0.75 c -0.0625,0.265625 -0.1875,0.484375 -0.734375,0.5 -0.046875,0 -0.140625,0 -0.140625,0.140625 C 0.484375,-0.03125 0.53125,0 0.578125,0 0.8125,0 1.078125,-0.03125 1.3125,-0.03125 1.484375,-0.03125 1.875,0 2.046875,0 2.125,0 2.1875,-0.03125 2.1875,-0.140625 2.1875,-0.25 2.109375,-0.25 2.03125,-0.25 c -0.4375,-0.015625 -0.4375,-0.203125 -0.4375,-0.296875 0,-0.03125 0,-0.0625 0.015625,-0.171875 l 0.90625,-3.5625 2.03125,4.15625 C 4.59375,0 4.625,0 4.703125,0 4.8125,0 4.8125,-0.015625 4.84375,-0.140625 Z m 0,0"
             id="id-c871c6e6-9ebc-4e65-a71c-b440455a5910" />
        </symbol>
        <symbol
           overflow="visible"
           id="id-8f2a0ed7-fb56-4755-b9e2-db3033f9cb6a">
          <path
             style="stroke:none;stroke-width:0"
             d="m 2.265625,-4.359375 c 0,-0.109375 -0.09375,-0.265625 -0.28125,-0.265625 -0.1875,0 -0.390625,0.1875 -0.390625,0.390625 0,0.109375 0.078125,0.265625 0.28125,0.265625 0.1875,0 0.390625,-0.203125 0.390625,-0.390625 z M 0.84375,-0.8125 c -0.03125,0.09375 -0.0625,0.171875 -0.0625,0.296875 0,0.328125 0.265625,0.578125 0.65625,0.578125 0.6875,0 1,-0.953125 1,-1.0625 0,-0.09375 -0.09375,-0.09375 -0.109375,-0.09375 -0.09375,0 -0.109375,0.046875 -0.140625,0.125 -0.15625,0.5625 -0.453125,0.84375 -0.734375,0.84375 -0.140625,0 -0.171875,-0.09375 -0.171875,-0.25 0,-0.15625 0.046875,-0.28125 0.109375,-0.4375 C 1.46875,-1 1.546875,-1.1875 1.609375,-1.375 1.671875,-1.546875 1.9375,-2.171875 1.953125,-2.265625 1.984375,-2.328125 2,-2.40625 2,-2.484375 2,-2.8125 1.71875,-3.078125 1.34375,-3.078125 0.640625,-3.078125 0.328125,-2.125 0.328125,-2 c 0,0.078125 0.09375,0.078125 0.125,0.078125 0.09375,0 0.09375,-0.03125 0.125,-0.109375 C 0.75,-2.625 1.0625,-2.875 1.3125,-2.875 c 0.109375,0 0.171875,0.046875 0.171875,0.234375 0,0.171875 -0.03125,0.265625 -0.203125,0.703125 z m 0,0"
             id="id-2cb1d962-4602-4dbc-899e-e2e54c383b8f" />
        </symbol>
        <symbol
           overflow="visible"
           id="id-4c4a8c2e-1014-49f7-a286-8652b806fc7a">
          <path
             style="stroke:none;stroke-width:0"
             d=""
             id="id-57e791f6-ebbc-4d96-a9b8-bd2f934a6c3e" />
        </symbol>
        <symbol
           overflow="visible"
           id="id-05a50ed7-318f-416a-a9db-853b1c773724">
          <path
             style="stroke:none;stroke-width:0"
             d="m 6.84375,-4.234375 c 0.171875,0 0.359375,0 0.359375,-0.1875 C 7.203125,-4.625 7.015625,-4.625 6.84375,-4.625 H 0.890625 c -0.15625,0 -0.34375,0 -0.34375,0.203125 0,0.1875 0.203125,0.1875 0.359375,0.1875 z m 0,3.875 c 0.171875,0 0.359375,0 0.359375,-0.203125 0,-0.1875 -0.1875,-0.1875 -0.359375,-0.1875 h -5.9375 c -0.15625,0 -0.359375,0 -0.359375,0.1875 0,0.203125 0.1875,0.203125 0.34375,0.203125 z m 0,-1.9375 c 0.171875,0 0.359375,0 0.359375,-0.203125 0,-0.1875 -0.1875,-0.1875 -0.359375,-0.1875 H 0.890625 c -0.15625,0 -0.34375,0 -0.34375,0.1875 0,0.203125 0.1875,0.203125 0.34375,0.203125 z m 0,0"
             id="id-56a89f7a-6d1a-4aca-b358-2ee320a688e6" />
        </symbol>
        <symbol
           overflow="visible"
           id="id-896e652b-6d3f-4545-929c-271bc6b8dfb0">
          <path
             style="stroke:none;stroke-width:0"
             d=""
             id="id-fc9e6aa1-41cb-4263-bcea-f35e5eae30e2" />
        </symbol>
        <symbol
           overflow="visible"
           id="id-96dbe712-1ccb-48fa-ba73-f92ee38ab6d8">
          <path
             style="stroke:none;stroke-width:0"
             d="m 12.625,13.953125 1.203125,-3.1875 h -0.25 c -0.390625,1.03125 -1.453125,1.71875 -2.59375,2.015625 -0.203125,0.04687 -1.1875,0.3125 -3.09375,0.3125 H 1.875 L 6.953125,7.140625 C 7.015625,7.0625 7.03125,7.03125 7.03125,6.984375 c 0,-0.03125 0,-0.0625 -0.0625,-0.15625 L 2.328125,0.484375 H 7.78125 c 1.34375,0 2.25,0.140625 2.34375,0.15625 0.53125,0.078125 1.40625,0.25 2.1875,0.75 0.25,0.15625 0.921875,0.609375 1.265625,1.40625 h 0.25 L 12.625,0 H 0.84375 c -0.234375,0 -0.25,0.015625 -0.28125,0.0625 0,0.03125 0,0.234375 0,0.34375 l 5.265625,7.203125 -5.15625,6.0625 C 0.5625,13.78125 0.5625,13.84375 0.5625,13.84375 c 0,0.109375 0.09375,0.109375 0.28125,0.109375 z m 0,0"
             id="id-0a27609f-88f3-4fa1-bc18-b53e781dbaaa" />
        </symbol>
        <symbol
           overflow="visible"
           id="id-d0a47e76-81e4-41e3-97b3-7c7aa47c17db">
          <path
             style="stroke:none;stroke-width:0"
             d=""
             id="id-d35a99d2-f276-4f4f-b487-ef9aaea82fbe" />
        </symbol>
        <symbol
           overflow="visible"
           id="id-248f0b86-5a6e-4c0d-8f95-8438c7d48d2f">
          <path
             style="stroke:none;stroke-width:0"
             d="m 5.359375,-2.34375 c 0.09375,0 0.25,0 0.25,-0.171875 0,-0.171875 -0.15625,-0.171875 -0.25,-0.171875 H 0.75 c -0.09375,0 -0.265625,0 -0.265625,0.171875 0,0.171875 0.15625,0.171875 0.265625,0.171875 z m 0,1.53125 c 0.09375,0 0.25,0 0.25,-0.15625 0,-0.1875 -0.15625,-0.1875 -0.25,-0.1875 H 0.75 c -0.109375,0 -0.265625,0 -0.265625,0.1875 0,0.15625 0.171875,0.15625 0.265625,0.15625 z m 0,0"
             id="id-405cfcd7-a17c-4e94-930d-8e88998041f6" />
        </symbol>
        <symbol
           overflow="visible"
           id="id-635ba1d6-ebb0-4c06-90cb-13123bd2b1b4">
          <path
             style="stroke:none;stroke-width:0"
             d="m 2.328125,-4.4375 c 0,-0.1875 0,-0.1875 -0.203125,-0.1875 -0.453125,0.4375 -1.078125,0.4375 -1.359375,0.4375 v 0.25 c 0.15625,0 0.625,0 1,-0.1875 v 3.546875 c 0,0.234375 0,0.328125 -0.6875,0.328125 H 0.8125 V 0 c 0.125,0 0.984375,-0.03125 1.234375,-0.03125 0.21875,0 1.09375,0.03125 1.25,0.03125 V -0.25 H 3.03125 c -0.703125,0 -0.703125,-0.09375 -0.703125,-0.328125 z m 0,0"
             id="id-38348615-c310-4305-b5b0-8852e80adc04" />
        </symbol>
      </g>
    </defs>
    <g
       id="id-81abca7b-29ac-40aa-b89c-76e2856e190a"
       transform="translate(-273.552,-136.757)">
      <g
         style="fill:#000000;fill-opacity:1"
         id="id-f21ca48f-4b42-4f7b-9d6d-fa0a885a058d">
        <g
           transform="translate(273.888,153.976)"
           id="g1397">
          <path
             style="stroke:none;stroke-width:0"
             d="M 4.28125,-5.578125 V -5.875 H 0.6875 v 0.296875 z m 0,0"
             id="id-07aadb4c-6ad0-4fb0-80bb-7a0606f83574" />
        </g>
      </g>
      <g
         style="fill:#000000;fill-opacity:1"
         id="id-cf90ad30-b7ff-4001-80d1-a0cf6c8510ac">
        <g
           transform="translate(273.255,153.976)"
           id="g2298">
          <path
             style="stroke:none;stroke-width:0"
             d="M 3.328125,-3.015625 C 3.390625,-3.265625 3.625,-4.1875 4.3125,-4.1875 c 0.046875,0 0.296875,0 0.5,0.125 C 4.53125,-4 4.34375,-3.765625 4.34375,-3.515625 c 0,0.15625 0.109375,0.34375 0.375,0.34375 0.21875,0 0.53125,-0.171875 0.53125,-0.578125 0,-0.515625 -0.578125,-0.65625 -0.921875,-0.65625 -0.578125,0 -0.921875,0.53125 -1.046875,0.75 -0.25,-0.65625 -0.78125,-0.75 -1.078125,-0.75 -1.03125,0 -1.609375,1.28125 -1.609375,1.53125 0,0.109375 0.109375,0.109375 0.125,0.109375 0.078125,0 0.109375,-0.03125 0.125,-0.109375 0.34375,-1.0625 1,-1.3125 1.34375,-1.3125 0.1875,0 0.53125,0.09375 0.53125,0.671875 0,0.3125 -0.171875,0.96875 -0.53125,2.375 -0.15625,0.609375 -0.515625,1.03125 -0.953125,1.03125 -0.0625,0 -0.28125,0 -0.5,-0.125 0.25,-0.0625 0.46875,-0.265625 0.46875,-0.546875 0,-0.265625 -0.21875,-0.34375 -0.359375,-0.34375 -0.3125,0 -0.546875,0.25 -0.546875,0.578125 0,0.453125 0.484375,0.65625 0.921875,0.65625 0.671875,0 1.03125,-0.703125 1.046875,-0.75 0.125,0.359375 0.484375,0.75 1.078125,0.75 1.03125,0 1.59375,-1.28125 1.59375,-1.53125 0,-0.109375 -0.078125,-0.109375 -0.109375,-0.109375 -0.09375,0 -0.109375,0.046875 -0.140625,0.109375 -0.328125,1.078125 -1,1.3125 -1.3125,1.3125 -0.390625,0 -0.546875,-0.3125 -0.546875,-0.65625 0,-0.21875 0.046875,-0.4375 0.15625,-0.875 z m 0,0"
             id="id-97a7b2fd-cf68-4f60-a66e-07ea32300a7d" />
        </g>
      </g>
      <g
         style="fill:#000000;fill-opacity:1"
         id="id-969eab0d-470f-4b71-b323-9d1b895ebb27">
        <g
           transform="translate(278.949,155.47)"
           id="g3038">
          <path
             style="stroke:none;stroke-width:0"
             d="M 5.8125,-4 C 5.875,-4.265625 6,-4.5 6.546875,-4.515625 c 0.03125,0 0.140625,0 0.140625,-0.140625 0,-0.046875 -0.03125,-0.109375 -0.109375,-0.109375 -0.21875,0 -0.484375,0.03125 -0.71875,0.03125 -0.171875,0 -0.5625,-0.03125 -0.734375,-0.03125 -0.03125,0 -0.140625,0 -0.140625,0.15625 0,0.09375 0.09375,0.09375 0.15625,0.09375 0.328125,0.015625 0.4375,0.125 0.4375,0.296875 0,0.046875 0,0.09375 -0.03125,0.15625 l -0.75,3.046875 -1.765625,-3.625 c -0.0625,-0.125 -0.078125,-0.125 -0.25,-0.125 H 1.828125 c -0.125,0 -0.21875,0 -0.21875,0.15625 0,0.09375 0.078125,0.09375 0.234375,0.09375 0.140625,0 0.296875,0.015625 0.4375,0.046875 L 1.359375,-0.75 c -0.0625,0.265625 -0.1875,0.484375 -0.734375,0.5 -0.046875,0 -0.140625,0 -0.140625,0.140625 C 0.484375,-0.03125 0.53125,0 0.578125,0 0.8125,0 1.078125,-0.03125 1.3125,-0.03125 1.484375,-0.03125 1.875,0 2.046875,0 2.125,0 2.1875,-0.03125 2.1875,-0.140625 2.1875,-0.25 2.109375,-0.25 2.03125,-0.25 c -0.4375,-0.015625 -0.4375,-0.203125 -0.4375,-0.296875 0,-0.03125 0,-0.0625 0.015625,-0.171875 l 0.90625,-3.5625 2.03125,4.15625 C 4.59375,0 4.625,0 4.703125,0 4.8125,0 4.8125,-0.015625 4.84375,-0.140625 Z m 0,0"
             id="id-e4bd941c-7b08-46bb-b235-797b7774375a" />
        </g>
      </g>
      <g
         style="fill:#000000;fill-opacity:1"
         id="id-b31ce79e-5de1-4599-833c-828cac2728f7">
        <g
           transform="translate(289.273,153.976)"
           id="g5090">
          <path
             style="stroke:none;stroke-width:0"
             d="m 6.84375,-4.234375 c 0.171875,0 0.359375,0 0.359375,-0.1875 C 7.203125,-4.625 7.015625,-4.625 6.84375,-4.625 H 0.890625 c -0.15625,0 -0.34375,0 -0.34375,0.203125 0,0.1875 0.203125,0.1875 0.359375,0.1875 z m 0,3.875 c 0.171875,0 0.359375,0 0.359375,-0.203125 0,-0.1875 -0.1875,-0.1875 -0.359375,-0.1875 h -5.9375 c -0.15625,0 -0.359375,0 -0.359375,0.1875 0,0.203125 0.1875,0.203125 0.34375,0.203125 z m 0,-1.9375 c 0.171875,0 0.359375,0 0.359375,-0.203125 0,-0.1875 -0.1875,-0.1875 -0.359375,-0.1875 H 0.890625 c -0.15625,0 -0.34375,0 -0.34375,0.1875 0,0.203125 0.1875,0.203125 0.34375,0.203125 z m 0,0"
             id="id-9035fbfe-ce66-4308-98d1-cefc9ca83e60" />
        </g>
      </g>
      <g
         style="fill:#000000;fill-opacity:1"
         id="id-699f4013-d00b-460e-8609-d8a138aafdb4">
        <g
           transform="translate(303.039,147.236)"
           id="g3372">
          <path
             style="stroke:none;stroke-width:0"
             d="m 2.9375,-6.375 c 0,-0.25 0,-0.265625 -0.234375,-0.265625 C 2.078125,-6 1.203125,-6 0.890625,-6 v 0.3125 c 0.203125,0 0.78125,0 1.296875,-0.265625 v 5.171875 c 0,0.359375 -0.03125,0.46875 -0.921875,0.46875 h -0.3125 V 0 c 0.34375,-0.03125 1.203125,-0.03125 1.609375,-0.03125 0.390625,0 1.265625,0 1.609375,0.03125 v -0.3125 h -0.3125 c -0.90625,0 -0.921875,-0.109375 -0.921875,-0.46875 z m 0,0"
             id="id-362f2a5a-842d-4185-9314-f9f79b3fb51b" />
        </g>
      </g>
      <path
         style="fill:none;stroke:#000000;stroke-width:0.398;stroke-linecap:butt;stroke-linejoin:miter;stroke-miterlimit:10;stroke-opacity:1"
         d="M 3.75e-4,6.25e-4 H 9.090219"
         transform="matrix(1,0,0,-1,300.984,151.485)"
         id="id-a8b1f259-ec8a-4b7c-ac5c-5f32e20d6507" />
      <g
         style="fill:#000000;fill-opacity:1"
         id="id-60881eb9-11a7-42e1-94f3-72638f31fda7">
        <g
           transform="translate(300.984,160.81)"
           id="g3230">
          <path
             style="stroke:none;stroke-width:0"
             d="M 7.53125,-5.765625 C 7.640625,-6.15625 7.8125,-6.46875 8.609375,-6.5 c 0.046875,0 0.171875,-0.015625 0.171875,-0.203125 0,0 0,-0.109375 -0.125,-0.109375 -0.328125,0 -0.6875,0.03125 -1.015625,0.03125 -0.328125,0 -0.6875,-0.03125 -1.015625,-0.03125 -0.0625,0 -0.171875,0 -0.171875,0.203125 C 6.453125,-6.5 6.546875,-6.5 6.625,-6.5 c 0.578125,0.015625 0.6875,0.21875 0.6875,0.4375 0,0.03125 -0.03125,0.1875 -0.03125,0.203125 l -1.125,4.4375 L 3.953125,-6.625 C 3.875,-6.796875 3.875,-6.8125 3.640625,-6.8125 h -1.34375 c -0.1875,0 -0.28125,0 -0.28125,0.203125 0,0.109375 0.09375,0.109375 0.28125,0.109375 0.046875,0 0.671875,0 0.671875,0.09375 L 1.640625,-1.0625 c -0.109375,0.40625 -0.28125,0.71875 -1.078125,0.75 -0.0625,0 -0.171875,0.015625 -0.171875,0.203125 0,0.0625 0.046875,0.109375 0.125,0.109375 0.328125,0 0.671875,-0.03125 1,-0.03125 C 1.859375,-0.03125 2.21875,0 2.546875,0 2.59375,0 2.71875,0 2.71875,-0.203125 2.71875,-0.296875 2.625,-0.3125 2.515625,-0.3125 1.9375,-0.328125 1.859375,-0.546875 1.859375,-0.75 c 0,-0.0625 0.015625,-0.125 0.046875,-0.234375 l 1.3125,-5.25 C 3.265625,-6.1875 3.265625,-6.15625 3.3125,-6.0625 l 2.484375,5.875 C 5.859375,-0.015625 5.890625,0 5.984375,0 6.09375,0 6.09375,-0.03125 6.140625,-0.203125 Z m 0,0"
             id="id-0f905efa-871c-4c5b-93a1-6a4799af283a" />
        </g>
      </g>
      <g
         style="fill:#000000;fill-opacity:1"
         id="id-0f842780-e0df-43e1-b89c-7f3c939884b5">
        <g
           transform="translate(316.597,141.523)"
           id="g6425">
          <path
             style="stroke:none;stroke-width:0"
             d="M 5.8125,-4 C 5.875,-4.265625 6,-4.5 6.546875,-4.515625 c 0.03125,0 0.140625,0 0.140625,-0.140625 0,-0.046875 -0.03125,-0.109375 -0.109375,-0.109375 -0.21875,0 -0.484375,0.03125 -0.71875,0.03125 -0.171875,0 -0.5625,-0.03125 -0.734375,-0.03125 -0.03125,0 -0.140625,0 -0.140625,0.15625 0,0.09375 0.09375,0.09375 0.15625,0.09375 0.328125,0.015625 0.4375,0.125 0.4375,0.296875 0,0.046875 0,0.09375 -0.03125,0.15625 l -0.75,3.046875 -1.765625,-3.625 c -0.0625,-0.125 -0.078125,-0.125 -0.25,-0.125 H 1.828125 c -0.125,0 -0.21875,0 -0.21875,0.15625 0,0.09375 0.078125,0.09375 0.234375,0.09375 0.140625,0 0.296875,0.015625 0.4375,0.046875 L 1.359375,-0.75 c -0.0625,0.265625 -0.1875,0.484375 -0.734375,0.5 -0.046875,0 -0.140625,0 -0.140625,0.140625 C 0.484375,-0.03125 0.53125,0 0.578125,0 0.8125,0 1.078125,-0.03125 1.3125,-0.03125 1.484375,-0.03125 1.875,0 2.046875,0 2.125,0 2.1875,-0.03125 2.1875,-0.140625 2.1875,-0.25 2.109375,-0.25 2.03125,-0.25 c -0.4375,-0.015625 -0.4375,-0.203125 -0.4375,-0.296875 0,-0.03125 0,-0.0625 0.015625,-0.171875 l 0.90625,-3.5625 2.03125,4.15625 C 4.59375,0 4.625,0 4.703125,0 4.8125,0 4.8125,-0.015625 4.84375,-0.140625 Z m 0,0"
             id="id-483eb575-1933-4c57-8fc8-0a3088373c50" />
        </g>
      </g>
      <g
         style="fill:#000000;fill-opacity:1"
         id="id-5b117a37-9505-4512-bf1f-0cc7ac1f1dcd">
        <g
           transform="translate(312.931,144.511)"
           id="g7816">
          <path
             style="stroke:none;stroke-width:0"
             d="m 12.625,13.953125 1.203125,-3.1875 h -0.25 c -0.390625,1.03125 -1.453125,1.71875 -2.59375,2.015625 -0.203125,0.04687 -1.1875,0.3125 -3.09375,0.3125 H 1.875 L 6.953125,7.140625 C 7.015625,7.0625 7.03125,7.03125 7.03125,6.984375 c 0,-0.03125 0,-0.0625 -0.0625,-0.15625 L 2.328125,0.484375 H 7.78125 c 1.34375,0 2.25,0.140625 2.34375,0.15625 0.53125,0.078125 1.40625,0.25 2.1875,0.75 0.25,0.15625 0.921875,0.609375 1.265625,1.40625 h 0.25 L 12.625,0 H 0.84375 c -0.234375,0 -0.25,0.015625 -0.28125,0.0625 0,0.03125 0,0.234375 0,0.34375 l 5.265625,7.203125 -5.15625,6.0625 C 0.5625,13.78125 0.5625,13.84375 0.5625,13.84375 c 0,0.109375 0.09375,0.109375 0.28125,0.109375 z m 0,0"
             id="id-710f6be1-e16b-4cec-bac8-9d537c9aba64" />
        </g>
      </g>
      <g
         style="fill:#000000;fill-opacity:1"
         id="id-299c613d-463c-4a25-aeeb-648d34b21c98">
        <g
           transform="translate(313.673,165.731)"
           id="g9473">
          <path
             style="stroke:none;stroke-width:0"
             d="m 2.265625,-4.359375 c 0,-0.109375 -0.09375,-0.265625 -0.28125,-0.265625 -0.1875,0 -0.390625,0.1875 -0.390625,0.390625 0,0.109375 0.078125,0.265625 0.28125,0.265625 0.1875,0 0.390625,-0.203125 0.390625,-0.390625 z M 0.84375,-0.8125 c -0.03125,0.09375 -0.0625,0.171875 -0.0625,0.296875 0,0.328125 0.265625,0.578125 0.65625,0.578125 0.6875,0 1,-0.953125 1,-1.0625 0,-0.09375 -0.09375,-0.09375 -0.109375,-0.09375 -0.09375,0 -0.109375,0.046875 -0.140625,0.125 -0.15625,0.5625 -0.453125,0.84375 -0.734375,0.84375 -0.140625,0 -0.171875,-0.09375 -0.171875,-0.25 0,-0.15625 0.046875,-0.28125 0.109375,-0.4375 C 1.46875,-1 1.546875,-1.1875 1.609375,-1.375 1.671875,-1.546875 1.9375,-2.171875 1.953125,-2.265625 1.984375,-2.328125 2,-2.40625 2,-2.484375 2,-2.8125 1.71875,-3.078125 1.34375,-3.078125 0.640625,-3.078125 0.328125,-2.125 0.328125,-2 c 0,0.078125 0.09375,0.078125 0.125,0.078125 0.09375,0 0.09375,-0.03125 0.125,-0.109375 C 0.75,-2.625 1.0625,-2.875 1.3125,-2.875 c 0.109375,0 0.171875,0.046875 0.171875,0.234375 0,0.171875 -0.03125,0.265625 -0.203125,0.703125 z m 0,0"
             id="id-22dcda71-80a0-495d-b824-5cba483c4d62" />
        </g>
      </g>
      <g
         style="fill:#000000;fill-opacity:1"
         id="id-807a4bda-d2d2-473f-9731-2a8a81e3b6bf">
        <g
           transform="translate(316.492,165.731)"
           id="g1757">
          <path
             style="stroke:none;stroke-width:0"
             d="m 5.359375,-2.34375 c 0.09375,0 0.25,0 0.25,-0.171875 0,-0.171875 -0.15625,-0.171875 -0.25,-0.171875 H 0.75 c -0.09375,0 -0.265625,0 -0.265625,0.171875 0,0.171875 0.15625,0.171875 0.265625,0.171875 z m 0,1.53125 c 0.09375,0 0.25,0 0.25,-0.15625 0,-0.1875 -0.15625,-0.1875 -0.25,-0.1875 H 0.75 c -0.109375,0 -0.265625,0 -0.265625,0.1875 0,0.15625 0.171875,0.15625 0.265625,0.15625 z m 0,0"
             id="id-5b3bbfa6-10b3-48fb-b85c-d2c8d39c7e75" />
        </g>
        <g
           transform="translate(322.608,165.731)"
           id="g1042">
          <path
             style="stroke:none;stroke-width:0"
             d="m 2.328125,-4.4375 c 0,-0.1875 0,-0.1875 -0.203125,-0.1875 -0.453125,0.4375 -1.078125,0.4375 -1.359375,0.4375 v 0.25 c 0.15625,0 0.625,0 1,-0.1875 v 3.546875 c 0,0.234375 0,0.328125 -0.6875,0.328125 H 0.8125 V 0 c 0.125,0 0.984375,-0.03125 1.234375,-0.03125 0.21875,0 1.09375,0.03125 1.25,0.03125 V -0.25 H 3.03125 c -0.703125,0 -0.703125,-0.09375 -0.703125,-0.328125 z m 0,0"
             id="id-c81a7bf7-7055-49ab-b90e-6d40a922d45b" />
        </g>
      </g>
      <g
         style="fill:#000000;fill-opacity:1"
         id="id-45151ef5-9ffe-4024-9d9a-84cff7445b29">
        <g
           transform="translate(328.982,153.976)"
           id="g6253">
          <path
             style="stroke:none;stroke-width:0"
             d="M 3.328125,-3.015625 C 3.390625,-3.265625 3.625,-4.1875 4.3125,-4.1875 c 0.046875,0 0.296875,0 0.5,0.125 C 4.53125,-4 4.34375,-3.765625 4.34375,-3.515625 c 0,0.15625 0.109375,0.34375 0.375,0.34375 0.21875,0 0.53125,-0.171875 0.53125,-0.578125 0,-0.515625 -0.578125,-0.65625 -0.921875,-0.65625 -0.578125,0 -0.921875,0.53125 -1.046875,0.75 -0.25,-0.65625 -0.78125,-0.75 -1.078125,-0.75 -1.03125,0 -1.609375,1.28125 -1.609375,1.53125 0,0.109375 0.109375,0.109375 0.125,0.109375 0.078125,0 0.109375,-0.03125 0.125,-0.109375 0.34375,-1.0625 1,-1.3125 1.34375,-1.3125 0.1875,0 0.53125,0.09375 0.53125,0.671875 0,0.3125 -0.171875,0.96875 -0.53125,2.375 -0.15625,0.609375 -0.515625,1.03125 -0.953125,1.03125 -0.0625,0 -0.28125,0 -0.5,-0.125 0.25,-0.0625 0.46875,-0.265625 0.46875,-0.546875 0,-0.265625 -0.21875,-0.34375 -0.359375,-0.34375 -0.3125,0 -0.546875,0.25 -0.546875,0.578125 0,0.453125 0.484375,0.65625 0.921875,0.65625 0.671875,0 1.03125,-0.703125 1.046875,-0.75 0.125,0.359375 0.484375,0.75 1.078125,0.75 1.03125,0 1.59375,-1.28125 1.59375,-1.53125 0,-0.109375 -0.078125,-0.109375 -0.109375,-0.109375 -0.09375,0 -0.109375,0.046875 -0.140625,0.109375 -0.328125,1.078125 -1,1.3125 -1.3125,1.3125 -0.390625,0 -0.546875,-0.3125 -0.546875,-0.65625 0,-0.21875 0.046875,-0.4375 0.15625,-0.875 z m 0,0"
             id="id-1d5f8d77-3103-457c-9bd4-7473750dc4de" />
        </g>
      </g>
      <g
         style="fill:#000000;fill-opacity:1"
         id="id-779addc2-1921-4a43-9e1f-d34251827631">
        <g
           transform="translate(334.676,155.47)"
           id="g6662">
          <path
             style="stroke:none;stroke-width:0"
             d="m 2.265625,-4.359375 c 0,-0.109375 -0.09375,-0.265625 -0.28125,-0.265625 -0.1875,0 -0.390625,0.1875 -0.390625,0.390625 0,0.109375 0.078125,0.265625 0.28125,0.265625 0.1875,0 0.390625,-0.203125 0.390625,-0.390625 z M 0.84375,-0.8125 c -0.03125,0.09375 -0.0625,0.171875 -0.0625,0.296875 0,0.328125 0.265625,0.578125 0.65625,0.578125 0.6875,0 1,-0.953125 1,-1.0625 0,-0.09375 -0.09375,-0.09375 -0.109375,-0.09375 -0.09375,0 -0.109375,0.046875 -0.140625,0.125 -0.15625,0.5625 -0.453125,0.84375 -0.734375,0.84375 -0.140625,0 -0.171875,-0.09375 -0.171875,-0.25 0,-0.15625 0.046875,-0.28125 0.109375,-0.4375 C 1.46875,-1 1.546875,-1.1875 1.609375,-1.375 1.671875,-1.546875 1.9375,-2.171875 1.953125,-2.265625 1.984375,-2.328125 2,-2.40625 2,-2.484375 2,-2.8125 1.71875,-3.078125 1.34375,-3.078125 0.640625,-3.078125 0.328125,-2.125 0.328125,-2 c 0,0.078125 0.09375,0.078125 0.125,0.078125 0.09375,0 0.09375,-0.03125 0.125,-0.109375 C 0.75,-2.625 1.0625,-2.875 1.3125,-2.875 c 0.109375,0 0.171875,0.046875 0.171875,0.234375 0,0.171875 -0.03125,0.265625 -0.203125,0.703125 z m 0,0"
             id="id-d417f1d8-9353-4e1c-b509-896ea72fa559" />
        </g>
      </g>
    </g>
  </g>
  <g
     transform="matrix(8.5095 0 0 8.5095 1539.03 1023.37)"
     ns1:version="1.10.1"
     ns1:texconverter="pdflatex"
     ns1:pdfconverter="inkscape"
     ns1:text="\\[\\langle x\\rangle_{\\Lambda}\\equiv\\int_1^{\\Lambda}dx P(x) x = N -1\\]"
     ns1:preamble="/home/onofrio/.config/inkscape/extensions/textext/default_packages.tex"
     ns1:scale="6.382163613522584"
     ns1:alignment="middle center"
     ns1:stroke-to-path="0"
     ns1:inkscapeversion="1.3.2"
     id="g8699"
     ns1:jacobian_sqrt="8.5095">
    <defs
       id="id-79b16e78-26c8-4488-bd3c-6e50d0dfe74e">
      <g
         id="id-ad1f8932-7079-4ade-b881-bdabe93ec705">
        <symbol
           overflow="visible"
           id="id-b2fdcbbc-15de-40c9-8a6c-cbd299033229">
          <path
             style="stroke:none"
             d=""
             id="id-a93bb02f-e756-4679-a235-ec6ad7926c99" />
        </symbol>
        <symbol
           overflow="visible"
           id="id-9dc4a7cf-6cf4-4d26-81bd-1193f401e3d5">
          <path
             style="stroke:none"
             d="M 3.265625,-7.09375 C 3.3125,-7.203125 3.3125,-7.234375 3.3125,-7.28125 c 0,-0.109375 -0.078125,-0.203125 -0.1875,-0.203125 -0.09375,0 -0.171875,0.0625 -0.234375,0.234375 l -1.75,4.578125 C 1.125,-2.609375 1.09375,-2.546875 1.09375,-2.5 c 0,0.03125 0,0.0625 0.046875,0.171875 L 2.890625,2.25 C 2.9375,2.359375 2.984375,2.5 3.125,2.5 c 0.109375,0 0.1875,-0.09375 0.1875,-0.203125 0,-0.03125 0,-0.046875 -0.046875,-0.15625 L 1.5,-2.5 Z m 0,0"
             id="id-7fb9f775-555f-44c3-b56b-039d3513cd3b" />
        </symbol>
        <symbol
           overflow="visible"
           id="id-31f986a7-df77-4c90-a4ea-c159deed59ba">
          <path
             style="stroke:none"
             d="M 2.71875,-2.328125 C 2.765625,-2.4375 2.765625,-2.46875 2.765625,-2.5 c 0,-0.015625 0,-0.046875 -0.046875,-0.15625 L 0.984375,-7.25 c -0.0625,-0.171875 -0.125,-0.234375 -0.234375,-0.234375 -0.109375,0 -0.203125,0.09375 -0.203125,0.203125 0,0.03125 0,0.046875 0.046875,0.15625 L 2.359375,-2.5 0.59375,2.109375 C 0.546875,2.21875 0.546875,2.25 0.546875,2.296875 0.546875,2.40625 0.640625,2.5 0.75,2.5 0.875,2.5 0.921875,2.390625 0.953125,2.296875 Z m 0,0"
             id="id-db74834d-1751-4894-aa21-67f1278eaafe" />
        </symbol>
        <symbol
           overflow="visible"
           id="id-ebab7b77-d3ea-404b-9212-106fae0660cd">
          <path
             style="stroke:none"
             d="m 6.84375,-4.234375 c 0.171875,0 0.359375,0 0.359375,-0.1875 C 7.203125,-4.625 7.015625,-4.625 6.84375,-4.625 H 0.890625 c -0.15625,0 -0.34375,0 -0.34375,0.203125 0,0.1875 0.203125,0.1875 0.359375,0.1875 z m 0,3.875 c 0.171875,0 0.359375,0 0.359375,-0.203125 0,-0.1875 -0.1875,-0.1875 -0.359375,-0.1875 h -5.9375 c -0.15625,0 -0.359375,0 -0.359375,0.1875 0,0.203125 0.1875,0.203125 0.34375,0.203125 z m 0,-1.9375 c 0.171875,0 0.359375,0 0.359375,-0.203125 0,-0.1875 -0.1875,-0.1875 -0.359375,-0.1875 H 0.890625 c -0.15625,0 -0.34375,0 -0.34375,0.1875 0,0.203125 0.1875,0.203125 0.34375,0.203125 z m 0,0"
             id="id-552e00a7-2b82-4260-b13e-2b32dd2a111a" />
        </symbol>
        <symbol
           overflow="visible"
           id="id-871ffb4c-ee74-4b99-b828-51916a5b4c4f">
          <path
             style="stroke:none"
             d="m 6.5625,-2.296875 c 0.171875,0 0.359375,0 0.359375,-0.203125 0,-0.1875 -0.1875,-0.1875 -0.359375,-0.1875 H 1.171875 c -0.171875,0 -0.34375,0 -0.34375,0.1875 0,0.203125 0.171875,0.203125 0.34375,0.203125 z m 0,0"
             id="id-647b384c-487f-4ded-be5a-7e34545dd4fd" />
        </symbol>
        <symbol
           overflow="visible"
           id="id-4fb6098b-f32b-41c0-bdf9-cbeb1d2f05d5">
          <path
             style="stroke:none"
             d=""
             id="id-e5be4c46-4c6e-4f54-a2e6-47e898dae5d6" />
        </symbol>
        <symbol
           overflow="visible"
           id="id-7f9bb230-8e24-4883-9da1-7bb3eed45f81">
          <path
             style="stroke:none"
             d="M 3.328125,-3.015625 C 3.390625,-3.265625 3.625,-4.1875 4.3125,-4.1875 c 0.046875,0 0.296875,0 0.5,0.125 C 4.53125,-4 4.34375,-3.765625 4.34375,-3.515625 c 0,0.15625 0.109375,0.34375 0.375,0.34375 0.21875,0 0.53125,-0.171875 0.53125,-0.578125 0,-0.515625 -0.578125,-0.65625 -0.921875,-0.65625 -0.578125,0 -0.921875,0.53125 -1.046875,0.75 -0.25,-0.65625 -0.78125,-0.75 -1.078125,-0.75 -1.03125,0 -1.609375,1.28125 -1.609375,1.53125 0,0.109375 0.109375,0.109375 0.125,0.109375 0.078125,0 0.109375,-0.03125 0.125,-0.109375 0.34375,-1.0625 1,-1.3125 1.34375,-1.3125 0.1875,0 0.53125,0.09375 0.53125,0.671875 0,0.3125 -0.171875,0.96875 -0.53125,2.375 -0.15625,0.609375 -0.515625,1.03125 -0.953125,1.03125 -0.0625,0 -0.28125,0 -0.5,-0.125 0.25,-0.0625 0.46875,-0.265625 0.46875,-0.546875 0,-0.265625 -0.21875,-0.34375 -0.359375,-0.34375 -0.3125,0 -0.546875,0.25 -0.546875,0.578125 0,0.453125 0.484375,0.65625 0.921875,0.65625 0.671875,0 1.03125,-0.703125 1.046875,-0.75 0.125,0.359375 0.484375,0.75 1.078125,0.75 1.03125,0 1.59375,-1.28125 1.59375,-1.53125 0,-0.109375 -0.078125,-0.109375 -0.109375,-0.109375 -0.09375,0 -0.109375,0.046875 -0.140625,0.109375 -0.328125,1.078125 -1,1.3125 -1.3125,1.3125 -0.390625,0 -0.546875,-0.3125 -0.546875,-0.65625 0,-0.21875 0.046875,-0.4375 0.15625,-0.875 z m 0,0"
             id="id-12acef52-c1aa-4ae3-b9a1-d9e8e020028e" />
        </symbol>
        <symbol
           overflow="visible"
           id="id-6d794329-24e6-44ed-85fe-9f71fafe6b44">
          <path
             style="stroke:none"
             d="m 5.140625,-6.8125 c 0,0 0,-0.109375 -0.125,-0.109375 -0.15625,0 -1.09375,0.09375 -1.265625,0.109375 -0.078125,0.015625 -0.140625,0.0625 -0.140625,0.1875 0,0.125 0.09375,0.125 0.234375,0.125 0.484375,0 0.5,0.0625 0.5,0.171875 L 4.3125,-6.125 3.71875,-3.765625 C 3.53125,-4.140625 3.25,-4.40625 2.796875,-4.40625 c -1.15625,0 -2.390625,1.46875 -2.390625,2.921875 0,0.9375 0.546875,1.59375 1.3125,1.59375 0.203125,0 0.703125,-0.046875 1.296875,-0.75 0.078125,0.421875 0.4375,0.75 0.90625,0.75 0.359375,0 0.578125,-0.234375 0.75,-0.546875 0.15625,-0.359375 0.296875,-0.96875 0.296875,-0.984375 0,-0.109375 -0.09375,-0.109375 -0.125,-0.109375 -0.09375,0 -0.109375,0.046875 -0.140625,0.1875 -0.171875,0.640625 -0.34375,1.234375 -0.75,1.234375 -0.28125,0 -0.296875,-0.265625 -0.296875,-0.453125 0,-0.25 0.015625,-0.3125 0.046875,-0.484375 z m -2.0625,5.625 C 3.015625,-1 3.015625,-0.984375 2.875,-0.8125 2.4375,-0.265625 2.03125,-0.109375 1.75,-0.109375 c -0.5,0 -0.640625,-0.546875 -0.640625,-0.9375 0,-0.5 0.3125,-1.71875 0.546875,-2.1875 0.3125,-0.578125 0.75,-0.953125 1.15625,-0.953125 0.640625,0 0.78125,0.8125 0.78125,0.875 0,0.0625 -0.015625,0.125 -0.03125,0.171875 z m 0,0"
             id="id-b2de5a89-8e75-4737-8084-4e44cd1d06a1" />
        </symbol>
        <symbol
           overflow="visible"
           id="id-9d81de83-d04c-49b0-ab9a-915b14d9c518">
          <path
             style="stroke:none"
             d="M 3.015625,-3.15625 H 4.71875 c 1.40625,0 2.796875,-1.03125 2.796875,-2.140625 0,-0.78125 -0.65625,-1.515625 -1.96875,-1.515625 h -3.21875 c -0.1875,0 -0.296875,0 -0.296875,0.1875 0,0.125 0.078125,0.125 0.28125,0.125 0.125,0 0.3125,0.015625 0.421875,0.015625 0.171875,0.03125 0.21875,0.046875 0.21875,0.171875 0,0.03125 0,0.0625 -0.03125,0.1875 l -1.34375,5.34375 c -0.09375,0.390625 -0.109375,0.46875 -0.90625,0.46875 -0.15625,0 -0.265625,0 -0.265625,0.1875 C 0.40625,0 0.515625,0 0.546875,0 0.828125,0 1.53125,-0.03125 1.8125,-0.03125 c 0.21875,0 0.4375,0.015625 0.640625,0.015625 0.21875,0 0.4375,0.015625 0.640625,0.015625 0.078125,0 0.203125,0 0.203125,-0.203125 0,-0.109375 -0.09375,-0.109375 -0.28125,-0.109375 -0.359375,0 -0.640625,0 -0.640625,-0.171875 0,-0.0625 0.015625,-0.109375 0.03125,-0.171875 z M 3.734375,-6.125 C 3.828125,-6.46875 3.84375,-6.5 4.28125,-6.5 h 0.953125 c 0.828125,0 1.359375,0.265625 1.359375,0.953125 0,0.390625 -0.203125,1.25 -0.59375,1.609375 -0.5,0.453125 -1.09375,0.53125 -1.53125,0.53125 H 3.0625 Z m 0,0"
             id="id-00561c48-1366-43c7-9341-47f865dedd1a" />
        </symbol>
        <symbol
           overflow="visible"
           id="id-914011ce-8d55-4080-b5cf-52020e410ceb">
          <path
             style="stroke:none"
             d="M 7.53125,-5.765625 C 7.640625,-6.15625 7.8125,-6.46875 8.609375,-6.5 c 0.046875,0 0.171875,-0.015625 0.171875,-0.203125 0,0 0,-0.109375 -0.125,-0.109375 -0.328125,0 -0.6875,0.03125 -1.015625,0.03125 -0.328125,0 -0.6875,-0.03125 -1.015625,-0.03125 -0.0625,0 -0.171875,0 -0.171875,0.203125 C 6.453125,-6.5 6.546875,-6.5 6.625,-6.5 c 0.578125,0.015625 0.6875,0.21875 0.6875,0.4375 0,0.03125 -0.03125,0.1875 -0.03125,0.203125 l -1.125,4.4375 L 3.953125,-6.625 C 3.875,-6.796875 3.875,-6.8125 3.640625,-6.8125 h -1.34375 c -0.1875,0 -0.28125,0 -0.28125,0.203125 0,0.109375 0.09375,0.109375 0.28125,0.109375 0.046875,0 0.671875,0 0.671875,0.09375 L 1.640625,-1.0625 c -0.109375,0.40625 -0.28125,0.71875 -1.078125,0.75 -0.0625,0 -0.171875,0.015625 -0.171875,0.203125 0,0.0625 0.046875,0.109375 0.125,0.109375 0.328125,0 0.671875,-0.03125 1,-0.03125 C 1.859375,-0.03125 2.21875,0 2.546875,0 2.59375,0 2.71875,0 2.71875,-0.203125 2.71875,-0.296875 2.625,-0.3125 2.515625,-0.3125 1.9375,-0.328125 1.859375,-0.546875 1.859375,-0.75 c 0,-0.0625 0.015625,-0.125 0.046875,-0.234375 l 1.3125,-5.25 C 3.265625,-6.1875 3.265625,-6.15625 3.3125,-6.0625 l 2.484375,5.875 C 5.859375,-0.015625 5.890625,0 5.984375,0 6.09375,0 6.09375,-0.03125 6.140625,-0.203125 Z m 0,0"
             id="id-965ea769-ef30-4b9a-8091-02545d7bee56" />
        </symbol>
        <symbol
           overflow="visible"
           id="id-fdcbb74b-0a58-4ea1-a84f-32c94053112f">
          <path
             style="stroke:none"
             d=""
             id="id-95b64551-a718-4a20-97a4-4a6146753cc3" />
        </symbol>
        <symbol
           overflow="visible"
           id="id-0dcfb9b0-243d-407a-bf54-4a155d57ca43">
          <path
             style="stroke:none"
             d="M 2.90625,-4.828125 C 2.859375,-4.96875 2.78125,-4.96875 2.71875,-4.96875 c -0.140625,0 -0.15625,0.0625 -0.1875,0.15625 l -1.5,4.109375 c -0.125,0.375 -0.421875,0.4375 -0.71875,0.453125 V 0 C 0.53125,-0.015625 0.75,-0.03125 0.96875,-0.03125 1.1875,-0.03125 1.6875,0 1.796875,0 v -0.25 c -0.375,-0.015625 -0.515625,-0.171875 -0.515625,-0.34375 0,-0.046875 0,-0.046875 0.03125,-0.140625 L 2.5,-4 3.75,-0.578125 c 0.046875,0.09375 0.046875,0.109375 0.046875,0.125 C 3.796875,-0.25 3.40625,-0.25 3.21875,-0.25 V 0 C 3.5625,-0.015625 4.015625,-0.03125 4.265625,-0.03125 4.546875,-0.03125 5.046875,0 5.125,0 v -0.25 c -0.4375,0 -0.546875,0 -0.65625,-0.28125 z m 0,0"
             id="id-44844527-5535-4b45-a534-223670d97538" />
        </symbol>
        <symbol
           overflow="visible"
           id="id-8c89eb34-a00a-4a71-9872-035b6a4d0777">
          <path
             style="stroke:none"
             d="m 2.328125,-4.4375 c 0,-0.1875 0,-0.1875 -0.203125,-0.1875 -0.453125,0.4375 -1.078125,0.4375 -1.359375,0.4375 v 0.25 c 0.15625,0 0.625,0 1,-0.1875 v 3.546875 c 0,0.234375 0,0.328125 -0.6875,0.328125 H 0.8125 V 0 c 0.125,0 0.984375,-0.03125 1.234375,-0.03125 0.21875,0 1.09375,0.03125 1.25,0.03125 V -0.25 H 3.03125 c -0.703125,0 -0.703125,-0.09375 -0.703125,-0.328125 z m 0,0"
             id="id-b07c6565-86ec-4c07-b810-70b5ccf0ff39" />
        </symbol>
        <symbol
           overflow="visible"
           id="id-1588feca-5b3a-46ae-9bc8-cfff39a91103">
          <path
             style="stroke:none"
             d=""
             id="id-747e7865-8595-43b8-bb59-a2af3a44f6ad" />
        </symbol>
        <symbol
           overflow="visible"
           id="id-5b065a90-47d6-4ebf-a260-2d3c9fe47868">
          <path
             style="stroke:none"
             d="m 1.03125,21.703125 c 0.328125,-0.01563 0.5,-0.234375 0.5,-0.484375 0,-0.328125 -0.25,-0.5 -0.484375,-0.5 -0.234375,0 -0.484375,0.15625 -0.484375,0.5 0,0.515625 0.5,0.9375 1.109375,0.9375 1.515625,0 2.078125,-2.34375 2.78125,-5.234375 C 5.21875,13.78125 5.875,10.59375 6.40625,7.390625 6.78125,5.28125 7.140625,3.28125 7.484375,2 7.609375,1.5 7.9375,0.21875 8.328125,0.21875 c 0.3125,0 0.5625,0.1875 0.609375,0.234375 -0.328125,0.015625 -0.5,0.234375 -0.5,0.484375 0,0.328125 0.25,0.484375 0.46875,0.484375 0.25,0 0.5,-0.140625 0.5,-0.5 C 9.40625,0.390625 8.859375,0 8.3125,0 7.5625,0 7,1.09375 6.453125,3.125 6.421875,3.234375 5.0625,8.234375 3.96875,14.75 3.703125,16.28125 3.421875,17.9375 3.09375,19.328125 2.90625,20.0625 2.453125,21.9375 1.640625,21.9375 c -0.359375,0 -0.59375,-0.234375 -0.609375,-0.234375 z m 0,0"
             id="id-a8be984d-21fe-432e-8cd2-9ba68fe3675f" />
        </symbol>
        <symbol
           overflow="visible"
           id="id-261345e0-c7d1-4b59-b0ac-18ff6385e925">
          <path
             style="stroke:none"
             d=""
             id="id-11d398b4-e346-4c88-b96f-01019cdc36d6" />
        </symbol>
        <symbol
           overflow="visible"
           id="id-5114786e-76ce-4e9c-9dff-8c8d868060c7">
          <path
             style="stroke:none"
             d="m 3.296875,2.390625 c 0,-0.03125 0,-0.046875 -0.171875,-0.21875 C 1.890625,0.921875 1.5625,-0.96875 1.5625,-2.5 c 0,-1.734375 0.375,-3.46875 1.609375,-4.703125 0.125,-0.125 0.125,-0.140625 0.125,-0.171875 0,-0.078125 -0.03125,-0.109375 -0.09375,-0.109375 -0.109375,0 -1,0.6875 -1.59375,1.953125 -0.5,1.09375 -0.625,2.203125 -0.625,3.03125 0,0.78125 0.109375,1.984375 0.65625,3.125 C 2.25,1.84375 3.09375,2.5 3.203125,2.5 c 0.0625,0 0.09375,-0.03125 0.09375,-0.109375 z m 0,0"
             id="id-0c6a4282-6b04-44c2-915d-d460635a8bae" />
        </symbol>
        <symbol
           overflow="visible"
           id="id-0c68eed9-01b7-49c7-a8db-f8f5e55f32a6">
          <path
             style="stroke:none"
             d="m 2.875,-2.5 c 0,-0.765625 -0.109375,-1.96875 -0.65625,-3.109375 -0.59375,-1.21875 -1.453125,-1.875 -1.546875,-1.875 -0.0625,0 -0.109375,0.046875 -0.109375,0.109375 0,0.03125 0,0.046875 0.1875,0.234375 0.984375,0.984375 1.546875,2.5625 1.546875,4.640625 0,1.71875 -0.359375,3.46875 -1.59375,4.71875 C 0.5625,2.34375 0.5625,2.359375 0.5625,2.390625 0.5625,2.453125 0.609375,2.5 0.671875,2.5 0.765625,2.5 1.671875,1.8125 2.25,0.546875 2.765625,-0.546875 2.875,-1.65625 2.875,-2.5 Z m 0,0"
             id="id-caad8d85-d449-45b2-89ec-1de3e9b9fb84" />
        </symbol>
        <symbol
           overflow="visible"
           id="id-3796cc4a-13e1-4f17-baf2-e494e23af3a3">
          <path
             style="stroke:none"
             d="m 6.84375,-3.265625 c 0.15625,0 0.34375,0 0.34375,-0.1875 C 7.1875,-3.65625 7,-3.65625 6.859375,-3.65625 h -5.96875 c -0.140625,0 -0.328125,0 -0.328125,0.203125 0,0.1875 0.1875,0.1875 0.328125,0.1875 z m 0.015625,1.9375 c 0.140625,0 0.328125,0 0.328125,-0.203125 0,-0.1875 -0.1875,-0.1875 -0.34375,-0.1875 H 0.890625 c -0.140625,0 -0.328125,0 -0.328125,0.1875 0,0.203125 0.1875,0.203125 0.328125,0.203125 z m 0,0"
             id="id-62821773-fe63-46e3-befd-f08bc01dc78b" />
        </symbol>
        <symbol
           overflow="visible"
           id="id-3e5cabf3-07b8-4664-a4ee-62c0180385d6">
          <path
             style="stroke:none"
             d="m 2.9375,-6.375 c 0,-0.25 0,-0.265625 -0.234375,-0.265625 C 2.078125,-6 1.203125,-6 0.890625,-6 v 0.3125 c 0.203125,0 0.78125,0 1.296875,-0.265625 v 5.171875 c 0,0.359375 -0.03125,0.46875 -0.921875,0.46875 h -0.3125 V 0 c 0.34375,-0.03125 1.203125,-0.03125 1.609375,-0.03125 0.390625,0 1.265625,0 1.609375,0.03125 v -0.3125 h -0.3125 c -0.90625,0 -0.921875,-0.109375 -0.921875,-0.46875 z m 0,0"
             id="id-d409b897-df25-42d9-98f6-0eb687a5e4bc" />
        </symbol>
      </g>
    </defs>
    <g
       id="id-76555aa2-a8fe-44d9-b9b4-222e3794a0b8"
       transform="translate(-242.929, -135.557)">
      <g
         style="fill:#000000;fill-opacity:1"
         id="id-a65b78aa-bc50-4395-86cf-3bcb545c2720">
        <g
           transform="translate(241.835, 151.624)"
           id="g2389">
          <path
             style="stroke:none"
             d="M 3.265625,-7.09375 C 3.3125,-7.203125 3.3125,-7.234375 3.3125,-7.28125 c 0,-0.109375 -0.078125,-0.203125 -0.1875,-0.203125 -0.09375,0 -0.171875,0.0625 -0.234375,0.234375 l -1.75,4.578125 C 1.125,-2.609375 1.09375,-2.546875 1.09375,-2.5 c 0,0.03125 0,0.0625 0.046875,0.171875 L 2.890625,2.25 C 2.9375,2.359375 2.984375,2.5 3.125,2.5 c 0.109375,0 0.1875,-0.09375 0.1875,-0.203125 0,-0.03125 0,-0.046875 -0.046875,-0.15625 L 1.5,-2.5 Z m 0,0"
             id="id-4a99f698-4964-4b24-9157-a0eeac24dd52" />
        </g>
      </g>
      <g
         style="fill:#000000;fill-opacity:1"
         id="id-8426395f-17e7-44e5-add7-67dbc5414f16">
        <g
           transform="translate(245.71, 151.624)"
           id="g2012">
          <path
             style="stroke:none"
             d="M 3.328125,-3.015625 C 3.390625,-3.265625 3.625,-4.1875 4.3125,-4.1875 c 0.046875,0 0.296875,0 0.5,0.125 C 4.53125,-4 4.34375,-3.765625 4.34375,-3.515625 c 0,0.15625 0.109375,0.34375 0.375,0.34375 0.21875,0 0.53125,-0.171875 0.53125,-0.578125 0,-0.515625 -0.578125,-0.65625 -0.921875,-0.65625 -0.578125,0 -0.921875,0.53125 -1.046875,0.75 -0.25,-0.65625 -0.78125,-0.75 -1.078125,-0.75 -1.03125,0 -1.609375,1.28125 -1.609375,1.53125 0,0.109375 0.109375,0.109375 0.125,0.109375 0.078125,0 0.109375,-0.03125 0.125,-0.109375 0.34375,-1.0625 1,-1.3125 1.34375,-1.3125 0.1875,0 0.53125,0.09375 0.53125,0.671875 0,0.3125 -0.171875,0.96875 -0.53125,2.375 -0.15625,0.609375 -0.515625,1.03125 -0.953125,1.03125 -0.0625,0 -0.28125,0 -0.5,-0.125 0.25,-0.0625 0.46875,-0.265625 0.46875,-0.546875 0,-0.265625 -0.21875,-0.34375 -0.359375,-0.34375 -0.3125,0 -0.546875,0.25 -0.546875,0.578125 0,0.453125 0.484375,0.65625 0.921875,0.65625 0.671875,0 1.03125,-0.703125 1.046875,-0.75 0.125,0.359375 0.484375,0.75 1.078125,0.75 1.03125,0 1.59375,-1.28125 1.59375,-1.53125 0,-0.109375 -0.078125,-0.109375 -0.109375,-0.109375 -0.09375,0 -0.109375,0.046875 -0.140625,0.109375 -0.328125,1.078125 -1,1.3125 -1.3125,1.3125 -0.390625,0 -0.546875,-0.3125 -0.546875,-0.65625 0,-0.21875 0.046875,-0.4375 0.15625,-0.875 z m 0,0"
             id="id-8f5dc2df-8db4-44ed-8df0-fcfc446eed6c" />
        </g>
      </g>
      <g
         style="fill:#000000;fill-opacity:1"
         id="id-f469adde-a317-456a-9d42-af469fcd38e1">
        <g
           transform="translate(251.404, 151.624)"
           id="g3390">
          <path
             style="stroke:none"
             d="M 2.71875,-2.328125 C 2.765625,-2.4375 2.765625,-2.46875 2.765625,-2.5 c 0,-0.015625 0,-0.046875 -0.046875,-0.15625 L 0.984375,-7.25 c -0.0625,-0.171875 -0.125,-0.234375 -0.234375,-0.234375 -0.109375,0 -0.203125,0.09375 -0.203125,0.203125 0,0.03125 0,0.046875 0.046875,0.15625 L 2.359375,-2.5 0.59375,2.109375 C 0.546875,2.21875 0.546875,2.25 0.546875,2.296875 0.546875,2.40625 0.640625,2.5 0.75,2.5 0.875,2.5 0.921875,2.390625 0.953125,2.296875 Z m 0,0"
             id="id-21014df3-363d-4612-96ab-043b66e2f5f7" />
        </g>
      </g>
      <g
         style="fill:#000000;fill-opacity:1"
         id="id-5050cbae-bc7e-4a1e-959a-e364712718f0">
        <g
           transform="translate(255.278, 153.118)"
           id="g2989">
          <path
             style="stroke:none"
             d="M 2.90625,-4.828125 C 2.859375,-4.96875 2.78125,-4.96875 2.71875,-4.96875 c -0.140625,0 -0.15625,0.0625 -0.1875,0.15625 l -1.5,4.109375 c -0.125,0.375 -0.421875,0.4375 -0.71875,0.453125 V 0 C 0.53125,-0.015625 0.75,-0.03125 0.96875,-0.03125 1.1875,-0.03125 1.6875,0 1.796875,0 v -0.25 c -0.375,-0.015625 -0.515625,-0.171875 -0.515625,-0.34375 0,-0.046875 0,-0.046875 0.03125,-0.140625 L 2.5,-4 3.75,-0.578125 c 0.046875,0.09375 0.046875,0.109375 0.046875,0.125 C 3.796875,-0.25 3.40625,-0.25 3.21875,-0.25 V 0 C 3.5625,-0.015625 4.015625,-0.03125 4.265625,-0.03125 4.546875,-0.03125 5.046875,0 5.125,0 v -0.25 c -0.4375,0 -0.546875,0 -0.65625,-0.28125 z m 0,0"
             id="id-45830260-8a15-4a33-b12a-a536d3d54245" />
        </g>
      </g>
      <g
         style="fill:#000000;fill-opacity:1"
         id="id-5b9b98aa-1409-467d-89e8-e6d7b611bee3">
        <g
           transform="translate(263.995, 151.624)"
           id="g2914">
          <path
             style="stroke:none"
             d="m 6.84375,-4.234375 c 0.171875,0 0.359375,0 0.359375,-0.1875 C 7.203125,-4.625 7.015625,-4.625 6.84375,-4.625 H 0.890625 c -0.15625,0 -0.34375,0 -0.34375,0.203125 0,0.1875 0.203125,0.1875 0.359375,0.1875 z m 0,3.875 c 0.171875,0 0.359375,0 0.359375,-0.203125 0,-0.1875 -0.1875,-0.1875 -0.359375,-0.1875 h -5.9375 c -0.15625,0 -0.359375,0 -0.359375,0.1875 0,0.203125 0.1875,0.203125 0.34375,0.203125 z m 0,-1.9375 c 0.171875,0 0.359375,0 0.359375,-0.203125 0,-0.1875 -0.1875,-0.1875 -0.359375,-0.1875 H 0.890625 c -0.15625,0 -0.34375,0 -0.34375,0.1875 0,0.203125 0.1875,0.203125 0.34375,0.203125 z m 0,0"
             id="id-b752eb6f-3a6d-4fd2-824e-2997a5acdd04" />
        </g>
      </g>
      <g
         style="fill:#000000;fill-opacity:1"
         id="id-d5632788-a726-49a3-94a6-469fcb0dc1bb">
        <g
           transform="translate(274.511, 138.063)"
           id="g2135">
          <path
             style="stroke:none"
             d="m 1.03125,21.703125 c 0.328125,-0.01563 0.5,-0.234375 0.5,-0.484375 0,-0.328125 -0.25,-0.5 -0.484375,-0.5 -0.234375,0 -0.484375,0.15625 -0.484375,0.5 0,0.515625 0.5,0.9375 1.109375,0.9375 1.515625,0 2.078125,-2.34375 2.78125,-5.234375 C 5.21875,13.78125 5.875,10.59375 6.40625,7.390625 6.78125,5.28125 7.140625,3.28125 7.484375,2 7.609375,1.5 7.9375,0.21875 8.328125,0.21875 c 0.3125,0 0.5625,0.1875 0.609375,0.234375 -0.328125,0.015625 -0.5,0.234375 -0.5,0.484375 0,0.328125 0.25,0.484375 0.46875,0.484375 0.25,0 0.5,-0.140625 0.5,-0.5 C 9.40625,0.390625 8.859375,0 8.3125,0 7.5625,0 7,1.09375 6.453125,3.125 6.421875,3.234375 5.0625,8.234375 3.96875,14.75 3.703125,16.28125 3.421875,17.9375 3.09375,19.328125 2.90625,20.0625 2.453125,21.9375 1.640625,21.9375 c -0.359375,0 -0.59375,-0.234375 -0.609375,-0.234375 z m 0,0"
             id="id-5786df58-524b-4534-bdda-3ffce066dbbe" />
        </g>
      </g>
      <g
         style="fill:#000000;fill-opacity:1"
         id="id-a63b0092-4e8d-4bf0-b942-a5f442c8929a">
        <g
           transform="translate(284.474, 140.526)"
           id="g4608">
          <path
             style="stroke:none"
             d="M 2.90625,-4.828125 C 2.859375,-4.96875 2.78125,-4.96875 2.71875,-4.96875 c -0.140625,0 -0.15625,0.0625 -0.1875,0.15625 l -1.5,4.109375 c -0.125,0.375 -0.421875,0.4375 -0.71875,0.453125 V 0 C 0.53125,-0.015625 0.75,-0.03125 0.96875,-0.03125 1.1875,-0.03125 1.6875,0 1.796875,0 v -0.25 c -0.375,-0.015625 -0.515625,-0.171875 -0.515625,-0.34375 0,-0.046875 0,-0.046875 0.03125,-0.140625 L 2.5,-4 3.75,-0.578125 c 0.046875,0.09375 0.046875,0.109375 0.046875,0.125 C 3.796875,-0.25 3.40625,-0.25 3.21875,-0.25 V 0 C 3.5625,-0.015625 4.015625,-0.03125 4.265625,-0.03125 4.546875,-0.03125 5.046875,0 5.125,0 v -0.25 c -0.4375,0 -0.546875,0 -0.65625,-0.28125 z m 0,0"
             id="id-500d9d13-b969-4b1c-b186-b9e357e6e785" />
        </g>
      </g>
      <g
         style="fill:#000000;fill-opacity:1"
         id="id-c1e758a0-1dbd-4c28-baa3-8327d8a1535a">
        <g
           transform="translate(280.046, 160.701)"
           id="g27">
          <path
             style="stroke:none"
             d="m 2.328125,-4.4375 c 0,-0.1875 0,-0.1875 -0.203125,-0.1875 -0.453125,0.4375 -1.078125,0.4375 -1.359375,0.4375 v 0.25 c 0.15625,0 0.625,0 1,-0.1875 v 3.546875 c 0,0.234375 0,0.328125 -0.6875,0.328125 H 0.8125 V 0 c 0.125,0 0.984375,-0.03125 1.234375,-0.03125 0.21875,0 1.09375,0.03125 1.25,0.03125 V -0.25 H 3.03125 c -0.703125,0 -0.703125,-0.09375 -0.703125,-0.328125 z m 0,0"
             id="id-8a09efda-6cb2-4507-b413-2c87228022e2" />
        </g>
      </g>
      <g
         style="fill:#000000;fill-opacity:1"
         id="id-f52cc438-07c3-437a-aa8b-b2d4d3861833">
        <g
           transform="translate(292.084, 151.624)"
           id="g3551">
          <path
             style="stroke:none"
             d="m 5.140625,-6.8125 c 0,0 0,-0.109375 -0.125,-0.109375 -0.15625,0 -1.09375,0.09375 -1.265625,0.109375 -0.078125,0.015625 -0.140625,0.0625 -0.140625,0.1875 0,0.125 0.09375,0.125 0.234375,0.125 0.484375,0 0.5,0.0625 0.5,0.171875 L 4.3125,-6.125 3.71875,-3.765625 C 3.53125,-4.140625 3.25,-4.40625 2.796875,-4.40625 c -1.15625,0 -2.390625,1.46875 -2.390625,2.921875 0,0.9375 0.546875,1.59375 1.3125,1.59375 0.203125,0 0.703125,-0.046875 1.296875,-0.75 0.078125,0.421875 0.4375,0.75 0.90625,0.75 0.359375,0 0.578125,-0.234375 0.75,-0.546875 0.15625,-0.359375 0.296875,-0.96875 0.296875,-0.984375 0,-0.109375 -0.09375,-0.109375 -0.125,-0.109375 -0.09375,0 -0.109375,0.046875 -0.140625,0.1875 -0.171875,0.640625 -0.34375,1.234375 -0.75,1.234375 -0.28125,0 -0.296875,-0.265625 -0.296875,-0.453125 0,-0.25 0.015625,-0.3125 0.046875,-0.484375 z m -2.0625,5.625 C 3.015625,-1 3.015625,-0.984375 2.875,-0.8125 2.4375,-0.265625 2.03125,-0.109375 1.75,-0.109375 c -0.5,0 -0.640625,-0.546875 -0.640625,-0.9375 0,-0.5 0.3125,-1.71875 0.546875,-2.1875 0.3125,-0.578125 0.75,-0.953125 1.15625,-0.953125 0.640625,0 0.78125,0.8125 0.78125,0.875 0,0.0625 -0.015625,0.125 -0.03125,0.171875 z m 0,0"
             id="id-7efd031c-8ef9-4784-94c8-41fb1552591a" />
        </g>
        <g
           transform="translate(297.27, 151.624)"
           id="g588">
          <path
             style="stroke:none"
             d="M 3.328125,-3.015625 C 3.390625,-3.265625 3.625,-4.1875 4.3125,-4.1875 c 0.046875,0 0.296875,0 0.5,0.125 C 4.53125,-4 4.34375,-3.765625 4.34375,-3.515625 c 0,0.15625 0.109375,0.34375 0.375,0.34375 0.21875,0 0.53125,-0.171875 0.53125,-0.578125 0,-0.515625 -0.578125,-0.65625 -0.921875,-0.65625 -0.578125,0 -0.921875,0.53125 -1.046875,0.75 -0.25,-0.65625 -0.78125,-0.75 -1.078125,-0.75 -1.03125,0 -1.609375,1.28125 -1.609375,1.53125 0,0.109375 0.109375,0.109375 0.125,0.109375 0.078125,0 0.109375,-0.03125 0.125,-0.109375 0.34375,-1.0625 1,-1.3125 1.34375,-1.3125 0.1875,0 0.53125,0.09375 0.53125,0.671875 0,0.3125 -0.171875,0.96875 -0.53125,2.375 -0.15625,0.609375 -0.515625,1.03125 -0.953125,1.03125 -0.0625,0 -0.28125,0 -0.5,-0.125 0.25,-0.0625 0.46875,-0.265625 0.46875,-0.546875 0,-0.265625 -0.21875,-0.34375 -0.359375,-0.34375 -0.3125,0 -0.546875,0.25 -0.546875,0.578125 0,0.453125 0.484375,0.65625 0.921875,0.65625 0.671875,0 1.03125,-0.703125 1.046875,-0.75 0.125,0.359375 0.484375,0.75 1.078125,0.75 1.03125,0 1.59375,-1.28125 1.59375,-1.53125 0,-0.109375 -0.078125,-0.109375 -0.109375,-0.109375 -0.09375,0 -0.109375,0.046875 -0.140625,0.109375 -0.328125,1.078125 -1,1.3125 -1.3125,1.3125 -0.390625,0 -0.546875,-0.3125 -0.546875,-0.65625 0,-0.21875 0.046875,-0.4375 0.15625,-0.875 z m 0,0"
             id="id-f6d85cc4-774a-424a-ad5d-f24ca8747894" />
        </g>
        <g
           transform="translate(302.963, 151.624)"
           id="g617">
          <path
             style="stroke:none"
             d="M 3.015625,-3.15625 H 4.71875 c 1.40625,0 2.796875,-1.03125 2.796875,-2.140625 0,-0.78125 -0.65625,-1.515625 -1.96875,-1.515625 h -3.21875 c -0.1875,0 -0.296875,0 -0.296875,0.1875 0,0.125 0.078125,0.125 0.28125,0.125 0.125,0 0.3125,0.015625 0.421875,0.015625 0.171875,0.03125 0.21875,0.046875 0.21875,0.171875 0,0.03125 0,0.0625 -0.03125,0.1875 l -1.34375,5.34375 c -0.09375,0.390625 -0.109375,0.46875 -0.90625,0.46875 -0.15625,0 -0.265625,0 -0.265625,0.1875 C 0.40625,0 0.515625,0 0.546875,0 0.828125,0 1.53125,-0.03125 1.8125,-0.03125 c 0.21875,0 0.4375,0.015625 0.640625,0.015625 0.21875,0 0.4375,0.015625 0.640625,0.015625 0.078125,0 0.203125,0 0.203125,-0.203125 0,-0.109375 -0.09375,-0.109375 -0.28125,-0.109375 -0.359375,0 -0.640625,0 -0.640625,-0.171875 0,-0.0625 0.015625,-0.109375 0.03125,-0.171875 z M 3.734375,-6.125 C 3.828125,-6.46875 3.84375,-6.5 4.28125,-6.5 h 0.953125 c 0.828125,0 1.359375,0.265625 1.359375,0.953125 0,0.390625 -0.203125,1.25 -0.59375,1.609375 -0.5,0.453125 -1.09375,0.53125 -1.53125,0.53125 H 3.0625 Z m 0,0"
             id="id-ac749ffe-5c88-474b-8da0-4e56de279428" />
        </g>
      </g>
      <g
         style="fill:#000000;fill-opacity:1"
         id="id-5c26f8cf-4c0f-45ae-ade1-66045a44ecb0">
        <g
           transform="translate(310.744, 151.624)"
           id="g6570">
          <path
             style="stroke:none"
             d="m 3.296875,2.390625 c 0,-0.03125 0,-0.046875 -0.171875,-0.21875 C 1.890625,0.921875 1.5625,-0.96875 1.5625,-2.5 c 0,-1.734375 0.375,-3.46875 1.609375,-4.703125 0.125,-0.125 0.125,-0.140625 0.125,-0.171875 0,-0.078125 -0.03125,-0.109375 -0.09375,-0.109375 -0.109375,0 -1,0.6875 -1.59375,1.953125 -0.5,1.09375 -0.625,2.203125 -0.625,3.03125 0,0.78125 0.109375,1.984375 0.65625,3.125 C 2.25,1.84375 3.09375,2.5 3.203125,2.5 c 0.0625,0 0.09375,-0.03125 0.09375,-0.109375 z m 0,0"
             id="id-04cfe0cd-2f27-4452-bf96-d1f6348fd3f6" />
        </g>
      </g>
      <g
         style="fill:#000000;fill-opacity:1"
         id="id-024c40bf-cbb4-4a46-be51-4cac59d34510">
        <g
           transform="translate(314.618, 151.624)"
           id="g5647">
          <path
             style="stroke:none"
             d="M 3.328125,-3.015625 C 3.390625,-3.265625 3.625,-4.1875 4.3125,-4.1875 c 0.046875,0 0.296875,0 0.5,0.125 C 4.53125,-4 4.34375,-3.765625 4.34375,-3.515625 c 0,0.15625 0.109375,0.34375 0.375,0.34375 0.21875,0 0.53125,-0.171875 0.53125,-0.578125 0,-0.515625 -0.578125,-0.65625 -0.921875,-0.65625 -0.578125,0 -0.921875,0.53125 -1.046875,0.75 -0.25,-0.65625 -0.78125,-0.75 -1.078125,-0.75 -1.03125,0 -1.609375,1.28125 -1.609375,1.53125 0,0.109375 0.109375,0.109375 0.125,0.109375 0.078125,0 0.109375,-0.03125 0.125,-0.109375 0.34375,-1.0625 1,-1.3125 1.34375,-1.3125 0.1875,0 0.53125,0.09375 0.53125,0.671875 0,0.3125 -0.171875,0.96875 -0.53125,2.375 -0.15625,0.609375 -0.515625,1.03125 -0.953125,1.03125 -0.0625,0 -0.28125,0 -0.5,-0.125 0.25,-0.0625 0.46875,-0.265625 0.46875,-0.546875 0,-0.265625 -0.21875,-0.34375 -0.359375,-0.34375 -0.3125,0 -0.546875,0.25 -0.546875,0.578125 0,0.453125 0.484375,0.65625 0.921875,0.65625 0.671875,0 1.03125,-0.703125 1.046875,-0.75 0.125,0.359375 0.484375,0.75 1.078125,0.75 1.03125,0 1.59375,-1.28125 1.59375,-1.53125 0,-0.109375 -0.078125,-0.109375 -0.109375,-0.109375 -0.09375,0 -0.109375,0.046875 -0.140625,0.109375 -0.328125,1.078125 -1,1.3125 -1.3125,1.3125 -0.390625,0 -0.546875,-0.3125 -0.546875,-0.65625 0,-0.21875 0.046875,-0.4375 0.15625,-0.875 z m 0,0"
             id="id-566d783c-3ca9-482b-8fa2-ebdf0dbf4e66" />
        </g>
      </g>
      <g
         style="fill:#000000;fill-opacity:1"
         id="id-342cf076-7ad7-4d7c-a909-60b76328c570">
        <g
           transform="translate(320.312, 151.624)"
           id="g1245">
          <path
             style="stroke:none"
             d="m 2.875,-2.5 c 0,-0.765625 -0.109375,-1.96875 -0.65625,-3.109375 -0.59375,-1.21875 -1.453125,-1.875 -1.546875,-1.875 -0.0625,0 -0.109375,0.046875 -0.109375,0.109375 0,0.03125 0,0.046875 0.1875,0.234375 0.984375,0.984375 1.546875,2.5625 1.546875,4.640625 0,1.71875 -0.359375,3.46875 -1.59375,4.71875 C 0.5625,2.34375 0.5625,2.359375 0.5625,2.390625 0.5625,2.453125 0.609375,2.5 0.671875,2.5 0.765625,2.5 1.671875,1.8125 2.25,0.546875 2.765625,-0.546875 2.875,-1.65625 2.875,-2.5 Z m 0,0"
             id="id-e7f99fc1-3f93-44be-a8cc-d61aeb276a14" />
        </g>
      </g>
      <g
         style="fill:#000000;fill-opacity:1"
         id="id-f790f46d-0ec9-4710-a934-9f322fd25086">
        <g
           transform="translate(324.186, 151.624)"
           id="g2266">
          <path
             style="stroke:none"
             d="M 3.328125,-3.015625 C 3.390625,-3.265625 3.625,-4.1875 4.3125,-4.1875 c 0.046875,0 0.296875,0 0.5,0.125 C 4.53125,-4 4.34375,-3.765625 4.34375,-3.515625 c 0,0.15625 0.109375,0.34375 0.375,0.34375 0.21875,0 0.53125,-0.171875 0.53125,-0.578125 0,-0.515625 -0.578125,-0.65625 -0.921875,-0.65625 -0.578125,0 -0.921875,0.53125 -1.046875,0.75 -0.25,-0.65625 -0.78125,-0.75 -1.078125,-0.75 -1.03125,0 -1.609375,1.28125 -1.609375,1.53125 0,0.109375 0.109375,0.109375 0.125,0.109375 0.078125,0 0.109375,-0.03125 0.125,-0.109375 0.34375,-1.0625 1,-1.3125 1.34375,-1.3125 0.1875,0 0.53125,0.09375 0.53125,0.671875 0,0.3125 -0.171875,0.96875 -0.53125,2.375 -0.15625,0.609375 -0.515625,1.03125 -0.953125,1.03125 -0.0625,0 -0.28125,0 -0.5,-0.125 0.25,-0.0625 0.46875,-0.265625 0.46875,-0.546875 0,-0.265625 -0.21875,-0.34375 -0.359375,-0.34375 -0.3125,0 -0.546875,0.25 -0.546875,0.578125 0,0.453125 0.484375,0.65625 0.921875,0.65625 0.671875,0 1.03125,-0.703125 1.046875,-0.75 0.125,0.359375 0.484375,0.75 1.078125,0.75 1.03125,0 1.59375,-1.28125 1.59375,-1.53125 0,-0.109375 -0.078125,-0.109375 -0.109375,-0.109375 -0.09375,0 -0.109375,0.046875 -0.140625,0.109375 -0.328125,1.078125 -1,1.3125 -1.3125,1.3125 -0.390625,0 -0.546875,-0.3125 -0.546875,-0.65625 0,-0.21875 0.046875,-0.4375 0.15625,-0.875 z m 0,0"
             id="id-b2d129f9-9e5c-4bb5-9ad9-c7a5b9f69f55" />
        </g>
      </g>
      <g
         style="fill:#000000;fill-opacity:1"
         id="id-c67ef4cf-c887-4cef-8c70-90ea5fe919f2">
        <g
           transform="translate(332.648, 151.624)"
           id="g2184">
          <path
             style="stroke:none"
             d="m 6.84375,-3.265625 c 0.15625,0 0.34375,0 0.34375,-0.1875 C 7.1875,-3.65625 7,-3.65625 6.859375,-3.65625 h -5.96875 c -0.140625,0 -0.328125,0 -0.328125,0.203125 0,0.1875 0.1875,0.1875 0.328125,0.1875 z m 0.015625,1.9375 c 0.140625,0 0.328125,0 0.328125,-0.203125 0,-0.1875 -0.1875,-0.1875 -0.34375,-0.1875 H 0.890625 c -0.140625,0 -0.328125,0 -0.328125,0.1875 0,0.203125 0.1875,0.203125 0.328125,0.203125 z m 0,0"
             id="id-7cdc549a-67cf-4e7b-905f-3b7a0096659e" />
        </g>
      </g>
      <g
         style="fill:#000000;fill-opacity:1"
         id="id-99debbef-5145-4930-842f-9f4d5ce1a946">
        <g
           transform="translate(343.164, 151.624)"
           id="g953">
          <path
             style="stroke:none"
             d="M 7.53125,-5.765625 C 7.640625,-6.15625 7.8125,-6.46875 8.609375,-6.5 c 0.046875,0 0.171875,-0.015625 0.171875,-0.203125 0,0 0,-0.109375 -0.125,-0.109375 -0.328125,0 -0.6875,0.03125 -1.015625,0.03125 -0.328125,0 -0.6875,-0.03125 -1.015625,-0.03125 -0.0625,0 -0.171875,0 -0.171875,0.203125 C 6.453125,-6.5 6.546875,-6.5 6.625,-6.5 c 0.578125,0.015625 0.6875,0.21875 0.6875,0.4375 0,0.03125 -0.03125,0.1875 -0.03125,0.203125 l -1.125,4.4375 L 3.953125,-6.625 C 3.875,-6.796875 3.875,-6.8125 3.640625,-6.8125 h -1.34375 c -0.1875,0 -0.28125,0 -0.28125,0.203125 0,0.109375 0.09375,0.109375 0.28125,0.109375 0.046875,0 0.671875,0 0.671875,0.09375 L 1.640625,-1.0625 c -0.109375,0.40625 -0.28125,0.71875 -1.078125,0.75 -0.0625,0 -0.171875,0.015625 -0.171875,0.203125 0,0.0625 0.046875,0.109375 0.125,0.109375 0.328125,0 0.671875,-0.03125 1,-0.03125 C 1.859375,-0.03125 2.21875,0 2.546875,0 2.59375,0 2.71875,0 2.71875,-0.203125 2.71875,-0.296875 2.625,-0.3125 2.515625,-0.3125 1.9375,-0.328125 1.859375,-0.546875 1.859375,-0.75 c 0,-0.0625 0.015625,-0.125 0.046875,-0.234375 l 1.3125,-5.25 C 3.265625,-6.1875 3.265625,-6.15625 3.3125,-6.0625 l 2.484375,5.875 C 5.859375,-0.015625 5.890625,0 5.984375,0 6.09375,0 6.09375,-0.03125 6.140625,-0.203125 Z m 0,0"
             id="id-69f94518-344c-4bb6-ac7e-152881f024b9" />
        </g>
      </g>
      <g
         style="fill:#000000;fill-opacity:1"
         id="id-e48647aa-42a0-4d7f-a492-a00e60bfad91">
        <g
           transform="translate(354.468, 151.624)"
           id="g6621">
          <path
             style="stroke:none"
             d="m 6.5625,-2.296875 c 0.171875,0 0.359375,0 0.359375,-0.203125 0,-0.1875 -0.1875,-0.1875 -0.359375,-0.1875 H 1.171875 c -0.171875,0 -0.34375,0 -0.34375,0.1875 0,0.203125 0.171875,0.203125 0.34375,0.203125 z m 0,0"
             id="id-315edb10-4ce0-4b69-b4b1-4d7282322723" />
        </g>
      </g>
      <g
         style="fill:#000000;fill-opacity:1"
         id="id-bdb4581f-0e41-4b62-a8d7-5b5c375fed34">
        <g
           transform="translate(364.431, 151.624)"
           id="g9530">
          <path
             style="stroke:none"
             d="m 2.9375,-6.375 c 0,-0.25 0,-0.265625 -0.234375,-0.265625 C 2.078125,-6 1.203125,-6 0.890625,-6 v 0.3125 c 0.203125,0 0.78125,0 1.296875,-0.265625 v 5.171875 c 0,0.359375 -0.03125,0.46875 -0.921875,0.46875 h -0.3125 V 0 c 0.34375,-0.03125 1.203125,-0.03125 1.609375,-0.03125 0.390625,0 1.265625,0 1.609375,0.03125 v -0.3125 h -0.3125 c -0.90625,0 -0.921875,-0.109375 -0.921875,-0.46875 z m 0,0"
             id="id-45ad9f27-5151-4670-af8f-e6db8d85bcfd" />
        </g>
      </g>
    </g>
  </g>
</svg>
