<?xml version="1.0" encoding="UTF-8" standalone="no"?>
<svg
   width="600"
   height="400"
   viewBox="0 0 2400 1600"
   version="1.1"
   id="svg85"
   sodipodi:docname="stoch-exp.svg"
   inkscape:export-filename="stoch-exp.png"
   inkscape:export-xdpi="96"
   inkscape:export-ydpi="96"
   inkscape:version="1.3.2 (1:1.3.2+202311252150+091e20ef0f)"
   xmlns:inkscape="http://www.inkscape.org/namespaces/inkscape"
   xmlns:sodipodi="http://sodipodi.sourceforge.net/DTD/sodipodi-0.dtd"
   xmlns="http://www.w3.org/2000/svg"
   xmlns:svg="http://www.w3.org/2000/svg">
  <sodipodi:namedview
     id="namedview85"
     pagecolor="#ffffff"
     bordercolor="#666666"
     borderopacity="1.0"
     inkscape:showpageshadow="2"
     inkscape:pageopacity="0.0"
     inkscape:pagecheckerboard="0"
     inkscape:deskcolor="#d1d1d1"
     inkscape:zoom="1.1833333"
     inkscape:cx="300"
     inkscape:cy="200.28169"
     inkscape:window-width="1366"
     inkscape:window-height="704"
     inkscape:window-x="0"
     inkscape:window-y="27"
     inkscape:window-maximized="1"
     inkscape:current-layer="svg85" />
  <defs
     id="defs1">
    <clipPath
       id="clip610">
      <rect
         x="0"
         y="0"
         width="2400"
         height="1600"
         id="rect1" />
    </clipPath>
  </defs>
  <path
     clip-path="url(#clip610)"
     d="M0 1600 L2400 1600 L2400 0 L0 0  Z"
     fill="#ffffff"
     fill-rule="evenodd"
     fill-opacity="1"
     id="path1" />
  <defs
     id="defs2">
    <clipPath
       id="clip611">
      <rect
         x="480"
         y="0"
         width="1681"
         height="1600"
         id="rect2" />
    </clipPath>
  </defs>
  <defs
     id="defs3">
    <clipPath
       id="clip612">
      <rect
         x="249"
         y="47"
         width="2104"
         height="1377"
         id="rect3" />
    </clipPath>
  </defs>
  <path
     clip-path="url(#clip610)"
     d="M249.542 1423.18 L2352.76 1423.18 L2352.76 47.2441 L249.542 47.2441  Z"
     fill="#ffffff"
     fill-rule="evenodd"
     fill-opacity="1"
     id="path3" />
  <polyline
     clip-path="url(#clip612)"
     style="stroke:#000000; stroke-linecap:round; stroke-linejoin:round; stroke-width:2; stroke-opacity:0.1; fill:none"
     points="441.345,1423.18 441.345,47.2441 "
     id="polyline3" />
  <polyline
     clip-path="url(#clip612)"
     style="stroke:#000000; stroke-linecap:round; stroke-linejoin:round; stroke-width:2; stroke-opacity:0.1; fill:none"
     points="838.177,1423.18 838.177,47.2441 "
     id="polyline4" />
  <polyline
     clip-path="url(#clip612)"
     style="stroke:#000000; stroke-linecap:round; stroke-linejoin:round; stroke-width:2; stroke-opacity:0.1; fill:none"
     points="1235.01,1423.18 1235.01,47.2441 "
     id="polyline5" />
  <polyline
     clip-path="url(#clip612)"
     style="stroke:#000000; stroke-linecap:round; stroke-linejoin:round; stroke-width:2; stroke-opacity:0.1; fill:none"
     points="1631.84,1423.18 1631.84,47.2441 "
     id="polyline6" />
  <polyline
     clip-path="url(#clip612)"
     style="stroke:#000000; stroke-linecap:round; stroke-linejoin:round; stroke-width:2; stroke-opacity:0.1; fill:none"
     points="2028.68,1423.18 2028.68,47.2441 "
     id="polyline7" />
  <polyline
     clip-path="url(#clip610)"
     style="stroke:#000000; stroke-linecap:round; stroke-linejoin:round; stroke-width:4; stroke-opacity:1; fill:none"
     points="249.542,1423.18 2352.76,1423.18 "
     id="polyline8" />
  <polyline
     clip-path="url(#clip610)"
     style="stroke:#000000; stroke-linecap:round; stroke-linejoin:round; stroke-width:4; stroke-opacity:1; fill:none"
     points="441.345,1423.18 441.345,1404.28 "
     id="polyline9" />
  <polyline
     clip-path="url(#clip610)"
     style="stroke:#000000; stroke-linecap:round; stroke-linejoin:round; stroke-width:4; stroke-opacity:1; fill:none"
     points="838.177,1423.18 838.177,1404.28 "
     id="polyline10" />
  <polyline
     clip-path="url(#clip610)"
     style="stroke:#000000; stroke-linecap:round; stroke-linejoin:round; stroke-width:4; stroke-opacity:1; fill:none"
     points="1235.01,1423.18 1235.01,1404.28 "
     id="polyline11" />
  <polyline
     clip-path="url(#clip610)"
     style="stroke:#000000; stroke-linecap:round; stroke-linejoin:round; stroke-width:4; stroke-opacity:1; fill:none"
     points="1631.84,1423.18 1631.84,1404.28 "
     id="polyline12" />
  <polyline
     clip-path="url(#clip610)"
     style="stroke:#000000; stroke-linecap:round; stroke-linejoin:round; stroke-width:4; stroke-opacity:1; fill:none"
     points="2028.68,1423.18 2028.68,1404.28 "
     id="polyline13" />
  <path
     clip-path="url(#clip610)"
     d="M403.567 1454.1 Q399.956 1454.1 398.127 1457.66 Q396.322 1461.2 396.322 1468.33 Q396.322 1475.44 398.127 1479.01 Q399.956 1482.55 403.567 1482.55 Q407.201 1482.55 409.007 1479.01 Q410.835 1475.44 410.835 1468.33 Q410.835 1461.2 409.007 1457.66 Q407.201 1454.1 403.567 1454.1 M403.567 1450.39 Q409.377 1450.39 412.433 1455 Q415.511 1459.58 415.511 1468.33 Q415.511 1477.06 412.433 1481.67 Q409.377 1486.25 403.567 1486.25 Q397.757 1486.25 394.678 1481.67 Q391.623 1477.06 391.623 1468.33 Q391.623 1459.58 394.678 1455 Q397.757 1450.39 403.567 1450.39 Z"
     fill="#000000"
     fill-rule="nonzero"
     fill-opacity="1"
     id="path13" />
  <path
     clip-path="url(#clip610)"
     d="M423.729 1479.7 L428.613 1479.7 L428.613 1485.58 L423.729 1485.58 L423.729 1479.7 Z"
     fill="#000000"
     fill-rule="nonzero"
     fill-opacity="1"
     id="path14" />
  <path
     clip-path="url(#clip610)"
     d="M448.798 1454.1 Q445.187 1454.1 443.358 1457.66 Q441.553 1461.2 441.553 1468.33 Q441.553 1475.44 443.358 1479.01 Q445.187 1482.55 448.798 1482.55 Q452.432 1482.55 454.238 1479.01 Q456.067 1475.44 456.067 1468.33 Q456.067 1461.2 454.238 1457.66 Q452.432 1454.1 448.798 1454.1 M448.798 1450.39 Q454.608 1450.39 457.664 1455 Q460.743 1459.58 460.743 1468.33 Q460.743 1477.06 457.664 1481.67 Q454.608 1486.25 448.798 1486.25 Q442.988 1486.25 439.909 1481.67 Q436.854 1477.06 436.854 1468.33 Q436.854 1459.58 439.909 1455 Q442.988 1450.39 448.798 1450.39 Z"
     fill="#000000"
     fill-rule="nonzero"
     fill-opacity="1"
     id="path15" />
  <path
     clip-path="url(#clip610)"
     d="M479.539 1466.44 Q476.391 1466.44 474.539 1468.59 Q472.71 1470.74 472.71 1474.49 Q472.71 1478.22 474.539 1480.39 Q476.391 1482.55 479.539 1482.55 Q482.687 1482.55 484.516 1480.39 Q486.367 1478.22 486.367 1474.49 Q486.367 1470.74 484.516 1468.59 Q482.687 1466.44 479.539 1466.44 M488.821 1451.78 L488.821 1456.04 Q487.062 1455.21 485.256 1454.77 Q483.474 1454.33 481.715 1454.33 Q477.085 1454.33 474.631 1457.45 Q472.201 1460.58 471.854 1466.9 Q473.219 1464.89 475.28 1463.82 Q477.34 1462.73 479.817 1462.73 Q485.025 1462.73 488.034 1465.9 Q491.067 1469.05 491.067 1474.49 Q491.067 1479.82 487.918 1483.03 Q484.77 1486.25 479.539 1486.25 Q473.543 1486.25 470.372 1481.67 Q467.201 1477.06 467.201 1468.33 Q467.201 1460.14 471.09 1455.28 Q474.979 1450.39 481.53 1450.39 Q483.289 1450.39 485.071 1450.74 Q486.877 1451.09 488.821 1451.78 Z"
     fill="#000000"
     fill-rule="nonzero"
     fill-opacity="1"
     id="path16" />
  <path
     clip-path="url(#clip610)"
     d="M800.573 1454.1 Q796.962 1454.1 795.134 1457.66 Q793.328 1461.2 793.328 1468.33 Q793.328 1475.44 795.134 1479.01 Q796.962 1482.55 800.573 1482.55 Q804.208 1482.55 806.013 1479.01 Q807.842 1475.44 807.842 1468.33 Q807.842 1461.2 806.013 1457.66 Q804.208 1454.1 800.573 1454.1 M800.573 1450.39 Q806.384 1450.39 809.439 1455 Q812.518 1459.58 812.518 1468.33 Q812.518 1477.06 809.439 1481.67 Q806.384 1486.25 800.573 1486.25 Q794.763 1486.25 791.685 1481.67 Q788.629 1477.06 788.629 1468.33 Q788.629 1459.58 791.685 1455 Q794.763 1450.39 800.573 1450.39 Z"
     fill="#000000"
     fill-rule="nonzero"
     fill-opacity="1"
     id="path17" />
  <path
     clip-path="url(#clip610)"
     d="M820.735 1479.7 L825.62 1479.7 L825.62 1485.58 L820.735 1485.58 L820.735 1479.7 Z"
     fill="#000000"
     fill-rule="nonzero"
     fill-opacity="1"
     id="path18" />
  <path
     clip-path="url(#clip610)"
     d="M845.805 1454.1 Q842.194 1454.1 840.365 1457.66 Q838.559 1461.2 838.559 1468.33 Q838.559 1475.44 840.365 1479.01 Q842.194 1482.55 845.805 1482.55 Q849.439 1482.55 851.244 1479.01 Q853.073 1475.44 853.073 1468.33 Q853.073 1461.2 851.244 1457.66 Q849.439 1454.1 845.805 1454.1 M845.805 1450.39 Q851.615 1450.39 854.67 1455 Q857.749 1459.58 857.749 1468.33 Q857.749 1477.06 854.67 1481.67 Q851.615 1486.25 845.805 1486.25 Q839.994 1486.25 836.916 1481.67 Q833.86 1477.06 833.86 1468.33 Q833.86 1459.58 836.916 1455 Q839.994 1450.39 845.805 1450.39 Z"
     fill="#000000"
     fill-rule="nonzero"
     fill-opacity="1"
     id="path19" />
  <path
     clip-path="url(#clip610)"
     d="M866.105 1484.86 L866.105 1480.6 Q867.865 1481.44 869.67 1481.88 Q871.476 1482.32 873.212 1482.32 Q877.842 1482.32 880.272 1479.21 Q882.726 1476.09 883.073 1469.75 Q881.73 1471.74 879.67 1472.8 Q877.61 1473.87 875.11 1473.87 Q869.925 1473.87 866.892 1470.74 Q863.883 1467.59 863.883 1462.15 Q863.883 1456.83 867.031 1453.61 Q870.18 1450.39 875.411 1450.39 Q881.406 1450.39 884.554 1455 Q887.726 1459.58 887.726 1468.33 Q887.726 1476.51 883.837 1481.39 Q879.971 1486.25 873.42 1486.25 Q871.661 1486.25 869.855 1485.9 Q868.05 1485.56 866.105 1484.86 M875.411 1470.21 Q878.559 1470.21 880.388 1468.06 Q882.24 1465.9 882.24 1462.15 Q882.24 1458.43 880.388 1456.27 Q878.559 1454.1 875.411 1454.1 Q872.263 1454.1 870.411 1456.27 Q868.582 1458.43 868.582 1462.15 Q868.582 1465.9 870.411 1468.06 Q872.263 1470.21 875.411 1470.21 Z"
     fill="#000000"
     fill-rule="nonzero"
     fill-opacity="1"
     id="path20" />
  <path
     clip-path="url(#clip610)"
     d="M1198.11 1454.1 Q1194.5 1454.1 1192.67 1457.66 Q1190.87 1461.2 1190.87 1468.33 Q1190.87 1475.44 1192.67 1479.01 Q1194.5 1482.55 1198.11 1482.55 Q1201.75 1482.55 1203.55 1479.01 Q1205.38 1475.44 1205.38 1468.33 Q1205.38 1461.2 1203.55 1457.66 Q1201.75 1454.1 1198.11 1454.1 M1198.11 1450.39 Q1203.92 1450.39 1206.98 1455 Q1210.06 1459.58 1210.06 1468.33 Q1210.06 1477.06 1206.98 1481.67 Q1203.92 1486.25 1198.11 1486.25 Q1192.3 1486.25 1189.22 1481.67 Q1186.17 1477.06 1186.17 1468.33 Q1186.17 1459.58 1189.22 1455 Q1192.3 1450.39 1198.11 1450.39 Z"
     fill="#000000"
     fill-rule="nonzero"
     fill-opacity="1"
     id="path21" />
  <path
     clip-path="url(#clip610)"
     d="M1218.27 1479.7 L1223.16 1479.7 L1223.16 1485.58 L1218.27 1485.58 L1218.27 1479.7 Z"
     fill="#000000"
     fill-rule="nonzero"
     fill-opacity="1"
     id="path22" />
  <path
     clip-path="url(#clip610)"
     d="M1234.15 1481.64 L1241.79 1481.64 L1241.79 1455.28 L1233.48 1456.95 L1233.48 1452.69 L1241.75 1451.02 L1246.42 1451.02 L1246.42 1481.64 L1254.06 1481.64 L1254.06 1485.58 L1234.15 1485.58 L1234.15 1481.64 Z"
     fill="#000000"
     fill-rule="nonzero"
     fill-opacity="1"
     id="path23" />
  <path
     clip-path="url(#clip610)"
     d="M1267.53 1481.64 L1283.85 1481.64 L1283.85 1485.58 L1261.91 1485.58 L1261.91 1481.64 Q1264.57 1478.89 1269.15 1474.26 Q1273.76 1469.61 1274.94 1468.27 Q1277.19 1465.74 1278.07 1464.01 Q1278.97 1462.25 1278.97 1460.56 Q1278.97 1457.8 1277.02 1456.07 Q1275.1 1454.33 1272 1454.33 Q1269.8 1454.33 1267.35 1455.09 Q1264.92 1455.86 1262.14 1457.41 L1262.14 1452.69 Q1264.96 1451.55 1267.42 1450.97 Q1269.87 1450.39 1271.91 1450.39 Q1277.28 1450.39 1280.47 1453.08 Q1283.67 1455.77 1283.67 1460.26 Q1283.67 1462.39 1282.86 1464.31 Q1282.07 1466.2 1279.96 1468.8 Q1279.38 1469.47 1276.28 1472.69 Q1273.18 1475.88 1267.53 1481.64 Z"
     fill="#000000"
     fill-rule="nonzero"
     fill-opacity="1"
     id="path24" />
  <path
     clip-path="url(#clip610)"
     d="M1594.64 1454.1 Q1591.03 1454.1 1589.2 1457.66 Q1587.4 1461.2 1587.4 1468.33 Q1587.4 1475.44 1589.2 1479.01 Q1591.03 1482.55 1594.64 1482.55 Q1598.28 1482.55 1600.08 1479.01 Q1601.91 1475.44 1601.91 1468.33 Q1601.91 1461.2 1600.08 1457.66 Q1598.28 1454.1 1594.64 1454.1 M1594.64 1450.39 Q1600.45 1450.39 1603.51 1455 Q1606.59 1459.58 1606.59 1468.33 Q1606.59 1477.06 1603.51 1481.67 Q1600.45 1486.25 1594.64 1486.25 Q1588.83 1486.25 1585.76 1481.67 Q1582.7 1477.06 1582.7 1468.33 Q1582.7 1459.58 1585.76 1455 Q1588.83 1450.39 1594.64 1450.39 Z"
     fill="#000000"
     fill-rule="nonzero"
     fill-opacity="1"
     id="path25" />
  <path
     clip-path="url(#clip610)"
     d="M1614.81 1479.7 L1619.69 1479.7 L1619.69 1485.58 L1614.81 1485.58 L1614.81 1479.7 Z"
     fill="#000000"
     fill-rule="nonzero"
     fill-opacity="1"
     id="path26" />
  <path
     clip-path="url(#clip610)"
     d="M1630.69 1481.64 L1638.32 1481.64 L1638.32 1455.28 L1630.01 1456.95 L1630.01 1452.69 L1638.28 1451.02 L1642.95 1451.02 L1642.95 1481.64 L1650.59 1481.64 L1650.59 1485.58 L1630.69 1485.58 L1630.69 1481.64 Z"
     fill="#000000"
     fill-rule="nonzero"
     fill-opacity="1"
     id="path27" />
  <path
     clip-path="url(#clip610)"
     d="M1660.08 1451.02 L1678.44 1451.02 L1678.44 1454.96 L1664.37 1454.96 L1664.37 1463.43 Q1665.38 1463.08 1666.4 1462.92 Q1667.42 1462.73 1668.44 1462.73 Q1674.23 1462.73 1677.61 1465.9 Q1680.99 1469.08 1680.99 1474.49 Q1680.99 1480.07 1677.51 1483.17 Q1674.04 1486.25 1667.72 1486.25 Q1665.55 1486.25 1663.28 1485.88 Q1661.03 1485.51 1658.63 1484.77 L1658.63 1480.07 Q1660.71 1481.2 1662.93 1481.76 Q1665.15 1482.32 1667.63 1482.32 Q1671.63 1482.32 1673.97 1480.21 Q1676.31 1478.1 1676.31 1474.49 Q1676.31 1470.88 1673.97 1468.77 Q1671.63 1466.67 1667.63 1466.67 Q1665.75 1466.67 1663.88 1467.08 Q1662.03 1467.5 1660.08 1468.38 L1660.08 1451.02 Z"
     fill="#000000"
     fill-rule="nonzero"
     fill-opacity="1"
     id="path28" />
  <path
     clip-path="url(#clip610)"
     d="M1991.03 1454.1 Q1987.41 1454.1 1985.59 1457.66 Q1983.78 1461.2 1983.78 1468.33 Q1983.78 1475.44 1985.59 1479.01 Q1987.41 1482.55 1991.03 1482.55 Q1994.66 1482.55 1996.47 1479.01 Q1998.29 1475.44 1998.29 1468.33 Q1998.29 1461.2 1996.47 1457.66 Q1994.66 1454.1 1991.03 1454.1 M1991.03 1450.39 Q1996.84 1450.39 1999.89 1455 Q2002.97 1459.58 2002.97 1468.33 Q2002.97 1477.06 1999.89 1481.67 Q1996.84 1486.25 1991.03 1486.25 Q1985.22 1486.25 1982.14 1481.67 Q1979.08 1477.06 1979.08 1468.33 Q1979.08 1459.58 1982.14 1455 Q1985.22 1450.39 1991.03 1450.39 Z"
     fill="#000000"
     fill-rule="nonzero"
     fill-opacity="1"
     id="path29" />
  <path
     clip-path="url(#clip610)"
     d="M2011.19 1479.7 L2016.07 1479.7 L2016.07 1485.58 L2011.19 1485.58 L2011.19 1479.7 Z"
     fill="#000000"
     fill-rule="nonzero"
     fill-opacity="1"
     id="path30" />
  <path
     clip-path="url(#clip610)"
     d="M2027.07 1481.64 L2034.71 1481.64 L2034.71 1455.28 L2026.4 1456.95 L2026.4 1452.69 L2034.66 1451.02 L2039.34 1451.02 L2039.34 1481.64 L2046.97 1481.64 L2046.97 1485.58 L2027.07 1485.58 L2027.07 1481.64 Z"
     fill="#000000"
     fill-rule="nonzero"
     fill-opacity="1"
     id="path31" />
  <path
     clip-path="url(#clip610)"
     d="M2066.42 1469.17 Q2063.09 1469.17 2061.16 1470.95 Q2059.27 1472.73 2059.27 1475.86 Q2059.27 1478.98 2061.16 1480.77 Q2063.09 1482.55 2066.42 1482.55 Q2069.75 1482.55 2071.67 1480.77 Q2073.59 1478.96 2073.59 1475.86 Q2073.59 1472.73 2071.67 1470.95 Q2069.78 1469.17 2066.42 1469.17 M2061.74 1467.18 Q2058.73 1466.44 2057.04 1464.38 Q2055.38 1462.32 2055.38 1459.35 Q2055.38 1455.21 2058.32 1452.8 Q2061.28 1450.39 2066.42 1450.39 Q2071.58 1450.39 2074.52 1452.8 Q2077.46 1455.21 2077.46 1459.35 Q2077.46 1462.32 2075.77 1464.38 Q2074.1 1466.44 2071.12 1467.18 Q2074.5 1467.96 2076.37 1470.26 Q2078.27 1472.55 2078.27 1475.86 Q2078.27 1480.88 2075.19 1483.57 Q2072.14 1486.25 2066.42 1486.25 Q2060.7 1486.25 2057.62 1483.57 Q2054.57 1480.88 2054.57 1475.86 Q2054.57 1472.55 2056.46 1470.26 Q2058.36 1467.96 2061.74 1467.18 M2060.03 1459.79 Q2060.03 1462.48 2061.7 1463.98 Q2063.39 1465.49 2066.42 1465.49 Q2069.43 1465.49 2071.12 1463.98 Q2072.83 1462.48 2072.83 1459.79 Q2072.83 1457.11 2071.12 1455.6 Q2069.43 1454.1 2066.42 1454.1 Q2063.39 1454.1 2061.7 1455.6 Q2060.03 1457.11 2060.03 1459.79 Z"
     fill="#000000"
     fill-rule="nonzero"
     fill-opacity="1"
     id="path32" />
  <path
     clip-path="url(#clip610)"
     d="M1302.94 1520.07 Q1302.94 1522.32 1299.72 1522.32 L1292.47 1522.32 Q1294.5 1525.22 1294.5 1529.51 Q1294.5 1533.18 1292.99 1536.62 Q1291.51 1540.04 1289.12 1542.42 Q1286.77 1544.8 1283.81 1546.25 Q1280.85 1547.67 1277.95 1547.67 Q1273.54 1547.67 1270.8 1544.68 Q1268.06 1541.68 1268.06 1537.24 Q1268.06 1534.88 1268.87 1532.28 Q1269.7 1529.67 1271.28 1527.25 Q1272.86 1524.8 1274.92 1522.84 Q1277.01 1520.88 1279.72 1519.68 Q1282.46 1518.49 1285.32 1518.49 L1300.36 1518.49 Q1301.17 1518.49 1301.59 1518.56 Q1302.04 1518.59 1302.49 1518.98 Q1302.94 1519.33 1302.94 1520.07 M1290.28 1528.73 Q1290.28 1527.96 1290.19 1527.28 Q1290.09 1526.58 1289.74 1525.64 Q1289.38 1524.68 1288.77 1524 Q1288.16 1523.29 1286.97 1522.81 Q1285.81 1522.32 1284.23 1522.32 Q1282.01 1522.32 1279.56 1523.55 Q1277.11 1524.77 1275.24 1527.8 Q1273.7 1530.38 1272.92 1533.73 Q1272.15 1537.07 1272.15 1539.07 Q1272.15 1542.49 1273.79 1544.35 Q1275.47 1546.19 1278.01 1546.19 Q1280.11 1546.19 1282.49 1544.77 Q1284.87 1543.32 1286.71 1540.59 Q1288.32 1538.2 1289.28 1534.72 Q1290.28 1531.25 1290.28 1528.73 Z"
     fill="#000000"
     fill-rule="nonzero"
     fill-opacity="1"
     id="path33" />
  <path
     clip-path="url(#clip610)"
     d="M1327.19 1554.45 Q1327.37 1554.65 1327.37 1554.85 Q1327.37 1555.06 1326.92 1555.64 Q1326.49 1556.23 1325.57 1557.02 Q1324.65 1557.81 1323.45 1558.55 Q1322.26 1559.3 1320.5 1559.79 Q1318.74 1560.31 1316.89 1560.31 Q1313.58 1560.31 1311.59 1557.94 Q1309.63 1555.58 1309.63 1551.95 Q1309.63 1549.62 1310.4 1547.57 Q1311.16 1545.5 1312.4 1544.03 Q1313.67 1542.57 1315.25 1541.51 Q1316.85 1540.43 1318.51 1539.91 Q1320.18 1539.39 1321.74 1539.39 Q1324.01 1539.39 1325.35 1540.54 Q1326.68 1541.69 1326.68 1543.31 Q1326.68 1543.7 1326.56 1544.17 Q1326.47 1544.64 1326.16 1545.39 Q1325.86 1546.13 1325.1 1546.87 Q1324.33 1547.6 1323.2 1548.07 Q1320.7 1549.13 1316.15 1549.13 L1313.69 1549.13 Q1312.97 1552.04 1312.97 1553.93 Q1312.97 1554.67 1313.1 1555.44 Q1313.24 1556.18 1313.6 1557.13 Q1313.98 1558.08 1314.84 1558.69 Q1315.72 1559.27 1316.98 1559.27 Q1317.39 1559.27 1317.82 1559.25 Q1318.27 1559.23 1319.39 1558.98 Q1320.54 1558.73 1321.56 1558.3 Q1322.57 1557.88 1323.86 1556.95 Q1325.16 1556 1326.2 1554.72 Q1326.56 1554.25 1326.81 1554.25 Q1327.01 1554.25 1327.19 1554.45 M1325.14 1543.31 Q1325.14 1542.07 1324.22 1541.24 Q1323.32 1540.4 1321.74 1540.4 Q1321.24 1540.4 1320.63 1540.52 Q1320.02 1540.63 1319.01 1541.1 Q1318.02 1541.58 1317.14 1542.37 Q1316.26 1543.13 1315.38 1544.64 Q1314.5 1546.13 1313.98 1548.11 L1315.88 1548.11 Q1316.53 1548.11 1317 1548.11 Q1317.48 1548.09 1318.51 1548 Q1319.57 1547.91 1320.34 1547.75 Q1321.11 1547.57 1322.08 1547.21 Q1323.05 1546.85 1323.65 1546.38 Q1324.29 1545.88 1324.71 1545.09 Q1325.14 1544.3 1325.14 1543.31 Z"
     fill="#000000"
     fill-rule="nonzero"
     fill-opacity="1"
     id="path34" />
  <polyline
     clip-path="url(#clip612)"
     style="stroke:#000000; stroke-linecap:round; stroke-linejoin:round; stroke-width:2; stroke-opacity:0.1; fill:none"
     points="249.542,1384.24 2352.76,1384.24 "
     id="polyline34" />
  <polyline
     clip-path="url(#clip612)"
     style="stroke:#000000; stroke-linecap:round; stroke-linejoin:round; stroke-width:2; stroke-opacity:0.1; fill:none"
     points="249.542,1059.73 2352.76,1059.73 "
     id="polyline35" />
  <polyline
     clip-path="url(#clip612)"
     style="stroke:#000000; stroke-linecap:round; stroke-linejoin:round; stroke-width:2; stroke-opacity:0.1; fill:none"
     points="249.542,735.212 2352.76,735.212 "
     id="polyline36" />
  <polyline
     clip-path="url(#clip612)"
     style="stroke:#000000; stroke-linecap:round; stroke-linejoin:round; stroke-width:2; stroke-opacity:0.1; fill:none"
     points="249.542,410.699 2352.76,410.699 "
     id="polyline37" />
  <polyline
     clip-path="url(#clip612)"
     style="stroke:#000000; stroke-linecap:round; stroke-linejoin:round; stroke-width:2; stroke-opacity:0.1; fill:none"
     points="249.542,86.1857 2352.76,86.1857 "
     id="polyline38" />
  <polyline
     clip-path="url(#clip610)"
     style="stroke:#000000; stroke-linecap:round; stroke-linejoin:round; stroke-width:4; stroke-opacity:1; fill:none"
     points="249.542,1423.18 249.542,47.2441 "
     id="polyline39" />
  <polyline
     clip-path="url(#clip610)"
     style="stroke:#000000; stroke-linecap:round; stroke-linejoin:round; stroke-width:4; stroke-opacity:1; fill:none"
     points="249.542,1384.24 268.44,1384.24 "
     id="polyline40" />
  <polyline
     clip-path="url(#clip610)"
     style="stroke:#000000; stroke-linecap:round; stroke-linejoin:round; stroke-width:4; stroke-opacity:1; fill:none"
     points="249.542,1059.73 268.44,1059.73 "
     id="polyline41" />
  <polyline
     clip-path="url(#clip610)"
     style="stroke:#000000; stroke-linecap:round; stroke-linejoin:round; stroke-width:4; stroke-opacity:1; fill:none"
     points="249.542,735.212 268.44,735.212 "
     id="polyline42" />
  <polyline
     clip-path="url(#clip610)"
     style="stroke:#000000; stroke-linecap:round; stroke-linejoin:round; stroke-width:4; stroke-opacity:1; fill:none"
     points="249.542,410.699 268.44,410.699 "
     id="polyline43" />
  <polyline
     clip-path="url(#clip610)"
     style="stroke:#000000; stroke-linecap:round; stroke-linejoin:round; stroke-width:4; stroke-opacity:1; fill:none"
     points="249.542,86.1857 268.44,86.1857 "
     id="polyline44" />
  <path
     clip-path="url(#clip610)"
     d="M126.205 1370.04 Q122.593 1370.04 120.765 1373.6 Q118.959 1377.14 118.959 1384.27 Q118.959 1391.38 120.765 1394.94 Q122.593 1398.49 126.205 1398.49 Q129.839 1398.49 131.644 1394.94 Q133.473 1391.38 133.473 1384.27 Q133.473 1377.14 131.644 1373.6 Q129.839 1370.04 126.205 1370.04 M126.205 1366.33 Q132.015 1366.33 135.07 1370.94 Q138.149 1375.52 138.149 1384.27 Q138.149 1393 135.07 1397.61 Q132.015 1402.19 126.205 1402.19 Q120.394 1402.19 117.316 1397.61 Q114.26 1393 114.26 1384.27 Q114.26 1375.52 117.316 1370.94 Q120.394 1366.33 126.205 1366.33 Z"
     fill="#000000"
     fill-rule="nonzero"
     fill-opacity="1"
     id="path44" />
  <path
     clip-path="url(#clip610)"
     d="M146.366 1395.64 L151.251 1395.64 L151.251 1401.52 L146.366 1401.52 L146.366 1395.64 Z"
     fill="#000000"
     fill-rule="nonzero"
     fill-opacity="1"
     id="path45" />
  <path
     clip-path="url(#clip610)"
     d="M171.436 1370.04 Q167.825 1370.04 165.996 1373.6 Q164.19 1377.14 164.19 1384.27 Q164.19 1391.38 165.996 1394.94 Q167.825 1398.49 171.436 1398.49 Q175.07 1398.49 176.876 1394.94 Q178.704 1391.38 178.704 1384.27 Q178.704 1377.14 176.876 1373.6 Q175.07 1370.04 171.436 1370.04 M171.436 1366.33 Q177.246 1366.33 180.301 1370.94 Q183.38 1375.52 183.38 1384.27 Q183.38 1393 180.301 1397.61 Q177.246 1402.19 171.436 1402.19 Q165.626 1402.19 162.547 1397.61 Q159.491 1393 159.491 1384.27 Q159.491 1375.52 162.547 1370.94 Q165.626 1366.33 171.436 1366.33 Z"
     fill="#000000"
     fill-rule="nonzero"
     fill-opacity="1"
     id="path46" />
  <path
     clip-path="url(#clip610)"
     d="M201.598 1370.04 Q197.987 1370.04 196.158 1373.6 Q194.352 1377.14 194.352 1384.27 Q194.352 1391.38 196.158 1394.94 Q197.987 1398.49 201.598 1398.49 Q205.232 1398.49 207.037 1394.94 Q208.866 1391.38 208.866 1384.27 Q208.866 1377.14 207.037 1373.6 Q205.232 1370.04 201.598 1370.04 M201.598 1366.33 Q207.408 1366.33 210.463 1370.94 Q213.542 1375.52 213.542 1384.27 Q213.542 1393 210.463 1397.61 Q207.408 1402.19 201.598 1402.19 Q195.787 1402.19 192.709 1397.61 Q189.653 1393 189.653 1384.27 Q189.653 1375.52 192.709 1370.94 Q195.787 1366.33 201.598 1366.33 Z"
     fill="#000000"
     fill-rule="nonzero"
     fill-opacity="1"
     id="path47" />
  <path
     clip-path="url(#clip610)"
     d="M127.2 1045.52 Q123.589 1045.52 121.76 1049.09 Q119.955 1052.63 119.955 1059.76 Q119.955 1066.87 121.76 1070.43 Q123.589 1073.97 127.2 1073.97 Q130.834 1073.97 132.64 1070.43 Q134.468 1066.87 134.468 1059.76 Q134.468 1052.63 132.64 1049.09 Q130.834 1045.52 127.2 1045.52 M127.2 1041.82 Q133.01 1041.82 136.066 1046.43 Q139.144 1051.01 139.144 1059.76 Q139.144 1068.49 136.066 1073.09 Q133.01 1077.68 127.2 1077.68 Q121.39 1077.68 118.311 1073.09 Q115.256 1068.49 115.256 1059.76 Q115.256 1051.01 118.311 1046.43 Q121.39 1041.82 127.2 1041.82 Z"
     fill="#000000"
     fill-rule="nonzero"
     fill-opacity="1"
     id="path48" />
  <path
     clip-path="url(#clip610)"
     d="M147.362 1071.13 L152.246 1071.13 L152.246 1077.01 L147.362 1077.01 L147.362 1071.13 Z"
     fill="#000000"
     fill-rule="nonzero"
     fill-opacity="1"
     id="path49" />
  <path
     clip-path="url(#clip610)"
     d="M166.459 1073.07 L182.778 1073.07 L182.778 1077.01 L160.834 1077.01 L160.834 1073.07 Q163.496 1070.32 168.079 1065.69 Q172.686 1061.03 173.866 1059.69 Q176.112 1057.17 176.991 1055.43 Q177.894 1053.67 177.894 1051.98 Q177.894 1049.23 175.95 1047.49 Q174.028 1045.76 170.927 1045.76 Q168.727 1045.76 166.274 1046.52 Q163.843 1047.28 161.065 1048.83 L161.065 1044.11 Q163.89 1042.98 166.343 1042.4 Q168.797 1041.82 170.834 1041.82 Q176.204 1041.82 179.399 1044.51 Q182.593 1047.19 182.593 1051.68 Q182.593 1053.81 181.783 1055.73 Q180.996 1057.63 178.889 1060.22 Q178.311 1060.89 175.209 1064.11 Q172.107 1067.31 166.459 1073.07 Z"
     fill="#000000"
     fill-rule="nonzero"
     fill-opacity="1"
     id="path50" />
  <path
     clip-path="url(#clip610)"
     d="M192.639 1042.45 L210.996 1042.45 L210.996 1046.38 L196.922 1046.38 L196.922 1054.85 Q197.94 1054.51 198.959 1054.34 Q199.977 1054.16 200.996 1054.16 Q206.783 1054.16 210.162 1057.33 Q213.542 1060.5 213.542 1065.92 Q213.542 1071.5 210.07 1074.6 Q206.598 1077.68 200.278 1077.68 Q198.102 1077.68 195.834 1077.31 Q193.588 1076.94 191.181 1076.19 L191.181 1071.5 Q193.264 1072.63 195.487 1073.19 Q197.709 1073.74 200.186 1073.74 Q204.19 1073.74 206.528 1071.63 Q208.866 1069.53 208.866 1065.92 Q208.866 1062.31 206.528 1060.2 Q204.19 1058.09 200.186 1058.09 Q198.311 1058.09 196.436 1058.51 Q194.584 1058.93 192.639 1059.81 L192.639 1042.45 Z"
     fill="#000000"
     fill-rule="nonzero"
     fill-opacity="1"
     id="path51" />
  <path
     clip-path="url(#clip610)"
     d="M126.205 721.011 Q122.593 721.011 120.765 724.575 Q118.959 728.117 118.959 735.247 Q118.959 742.353 120.765 745.918 Q122.593 749.46 126.205 749.46 Q129.839 749.46 131.644 745.918 Q133.473 742.353 133.473 735.247 Q133.473 728.117 131.644 724.575 Q129.839 721.011 126.205 721.011 M126.205 717.307 Q132.015 717.307 135.07 721.913 Q138.149 726.497 138.149 735.247 Q138.149 743.973 135.07 748.58 Q132.015 753.163 126.205 753.163 Q120.394 753.163 117.316 748.58 Q114.26 743.973 114.26 735.247 Q114.26 726.497 117.316 721.913 Q120.394 717.307 126.205 717.307 Z"
     fill="#000000"
     fill-rule="nonzero"
     fill-opacity="1"
     id="path52" />
  <path
     clip-path="url(#clip610)"
     d="M146.366 746.612 L151.251 746.612 L151.251 752.492 L146.366 752.492 L146.366 746.612 Z"
     fill="#000000"
     fill-rule="nonzero"
     fill-opacity="1"
     id="path53" />
  <path
     clip-path="url(#clip610)"
     d="M161.482 717.932 L179.839 717.932 L179.839 721.867 L165.765 721.867 L165.765 730.339 Q166.783 729.992 167.802 729.83 Q168.82 729.645 169.839 729.645 Q175.626 729.645 179.005 732.816 Q182.385 735.987 182.385 741.404 Q182.385 746.983 178.913 750.085 Q175.44 753.163 169.121 753.163 Q166.945 753.163 164.677 752.793 Q162.431 752.423 160.024 751.682 L160.024 746.983 Q162.107 748.117 164.329 748.673 Q166.552 749.228 169.028 749.228 Q173.033 749.228 175.371 747.122 Q177.709 745.015 177.709 741.404 Q177.709 737.793 175.371 735.687 Q173.033 733.58 169.028 733.58 Q167.153 733.58 165.278 733.997 Q163.427 734.413 161.482 735.293 L161.482 717.932 Z"
     fill="#000000"
     fill-rule="nonzero"
     fill-opacity="1"
     id="path54" />
  <path
     clip-path="url(#clip610)"
     d="M201.598 721.011 Q197.987 721.011 196.158 724.575 Q194.352 728.117 194.352 735.247 Q194.352 742.353 196.158 745.918 Q197.987 749.46 201.598 749.46 Q205.232 749.46 207.037 745.918 Q208.866 742.353 208.866 735.247 Q208.866 728.117 207.037 724.575 Q205.232 721.011 201.598 721.011 M201.598 717.307 Q207.408 717.307 210.463 721.913 Q213.542 726.497 213.542 735.247 Q213.542 743.973 210.463 748.58 Q207.408 753.163 201.598 753.163 Q195.787 753.163 192.709 748.58 Q189.653 743.973 189.653 735.247 Q189.653 726.497 192.709 721.913 Q195.787 717.307 201.598 717.307 Z"
     fill="#000000"
     fill-rule="nonzero"
     fill-opacity="1"
     id="path55" />
  <path
     clip-path="url(#clip610)"
     d="M127.2 396.498 Q123.589 396.498 121.76 400.062 Q119.955 403.604 119.955 410.734 Q119.955 417.84 121.76 421.405 Q123.589 424.946 127.2 424.946 Q130.834 424.946 132.64 421.405 Q134.468 417.84 134.468 410.734 Q134.468 403.604 132.64 400.062 Q130.834 396.498 127.2 396.498 M127.2 392.794 Q133.01 392.794 136.066 397.4 Q139.144 401.984 139.144 410.734 Q139.144 419.46 136.066 424.067 Q133.01 428.65 127.2 428.65 Q121.39 428.65 118.311 424.067 Q115.256 419.46 115.256 410.734 Q115.256 401.984 118.311 397.4 Q121.39 392.794 127.2 392.794 Z"
     fill="#000000"
     fill-rule="nonzero"
     fill-opacity="1"
     id="path56" />
  <path
     clip-path="url(#clip610)"
     d="M147.362 422.099 L152.246 422.099 L152.246 427.979 L147.362 427.979 L147.362 422.099 Z"
     fill="#000000"
     fill-rule="nonzero"
     fill-opacity="1"
     id="path57" />
  <path
     clip-path="url(#clip610)"
     d="M161.251 393.419 L183.473 393.419 L183.473 395.41 L170.927 427.979 L166.042 427.979 L177.848 397.354 L161.251 397.354 L161.251 393.419 Z"
     fill="#000000"
     fill-rule="nonzero"
     fill-opacity="1"
     id="path58" />
  <path
     clip-path="url(#clip610)"
     d="M192.639 393.419 L210.996 393.419 L210.996 397.354 L196.922 397.354 L196.922 405.826 Q197.94 405.479 198.959 405.317 Q199.977 405.132 200.996 405.132 Q206.783 405.132 210.162 408.303 Q213.542 411.474 213.542 416.891 Q213.542 422.47 210.07 425.571 Q206.598 428.65 200.278 428.65 Q198.102 428.65 195.834 428.28 Q193.588 427.909 191.181 427.169 L191.181 422.47 Q193.264 423.604 195.487 424.159 Q197.709 424.715 200.186 424.715 Q204.19 424.715 206.528 422.608 Q208.866 420.502 208.866 416.891 Q208.866 413.28 206.528 411.173 Q204.19 409.067 200.186 409.067 Q198.311 409.067 196.436 409.484 Q194.584 409.9 192.639 410.78 L192.639 393.419 Z"
     fill="#000000"
     fill-rule="nonzero"
     fill-opacity="1"
     id="path59" />
  <path
     clip-path="url(#clip610)"
     d="M117.015 99.5305 L124.654 99.5305 L124.654 73.1649 L116.343 74.8316 L116.343 70.5723 L124.607 68.9057 L129.283 68.9057 L129.283 99.5305 L136.922 99.5305 L136.922 103.466 L117.015 103.466 L117.015 99.5305 Z"
     fill="#000000"
     fill-rule="nonzero"
     fill-opacity="1"
     id="path60" />
  <path
     clip-path="url(#clip610)"
     d="M146.366 97.5861 L151.251 97.5861 L151.251 103.466 L146.366 103.466 L146.366 97.5861 Z"
     fill="#000000"
     fill-rule="nonzero"
     fill-opacity="1"
     id="path61" />
  <path
     clip-path="url(#clip610)"
     d="M171.436 71.9844 Q167.825 71.9844 165.996 75.5492 Q164.19 79.0908 164.19 86.2204 Q164.19 93.3268 165.996 96.8916 Q167.825 100.433 171.436 100.433 Q175.07 100.433 176.876 96.8916 Q178.704 93.3268 178.704 86.2204 Q178.704 79.0908 176.876 75.5492 Q175.07 71.9844 171.436 71.9844 M171.436 68.2807 Q177.246 68.2807 180.301 72.8871 Q183.38 77.4704 183.38 86.2204 Q183.38 94.9472 180.301 99.5537 Q177.246 104.137 171.436 104.137 Q165.626 104.137 162.547 99.5537 Q159.491 94.9472 159.491 86.2204 Q159.491 77.4704 162.547 72.8871 Q165.626 68.2807 171.436 68.2807 Z"
     fill="#000000"
     fill-rule="nonzero"
     fill-opacity="1"
     id="path62" />
  <path
     clip-path="url(#clip610)"
     d="M201.598 71.9844 Q197.987 71.9844 196.158 75.5492 Q194.352 79.0908 194.352 86.2204 Q194.352 93.3268 196.158 96.8916 Q197.987 100.433 201.598 100.433 Q205.232 100.433 207.037 96.8916 Q208.866 93.3268 208.866 86.2204 Q208.866 79.0908 207.037 75.5492 Q205.232 71.9844 201.598 71.9844 M201.598 68.2807 Q207.408 68.2807 210.463 72.8871 Q213.542 77.4704 213.542 86.2204 Q213.542 94.9472 210.463 99.5537 Q207.408 104.137 201.598 104.137 Q195.787 104.137 192.709 99.5537 Q189.653 94.9472 189.653 86.2204 Q189.653 77.4704 192.709 72.8871 Q195.787 68.2807 201.598 68.2807 Z"
     fill="#000000"
     fill-rule="nonzero"
     fill-opacity="1"
     id="path63" />
  <path
     clip-path="url(#clip610)"
     d="M66.0841 1059.75 L64.0551 1059.75 L64.0551 1058.17 Q64.0551 1054.6 63.4754 1053.79 Q62.8635 1052.96 60.9312 1052.96 L26.181 1052.96 Q24.2809 1052.96 23.7012 1053.79 Q23.0893 1054.63 23.0893 1058.17 L23.0893 1059.75 L21.0281 1059.75 L21.0281 1036.47 Q21.0281 1029.8 24.6996 1025.36 Q28.371 1020.91 33.2985 1020.91 Q38.1938 1020.91 41.7365 1025.45 Q45.2469 1029.96 45.2469 1035.95 L45.2469 1047.09 L60.9312 1047.09 Q62.8313 1047.09 63.4432 1046.29 Q64.0551 1045.45 64.0551 1041.88 L64.0551 1040.3 L66.0841 1040.3 Q65.8909 1042.62 65.8909 1050.06 Q65.8909 1057.43 66.0841 1059.75 M43.54 1047.29 L43.54 1038.21 Q43.54 1035.24 42.7026 1033.08 Q41.8653 1030.93 40.8669 1029.96 Q39.8363 1028.96 38.1938 1028.41 Q36.5191 1027.84 35.6174 1027.77 Q34.6834 1027.71 33.2985 1027.71 Q31.8493 1027.71 30.9475 1027.77 Q30.0135 1027.84 28.371 1028.41 Q26.6963 1028.96 25.6979 1029.96 Q24.6674 1030.93 23.8944 1033.08 Q23.0893 1035.21 23.0893 1038.21 L23.0893 1044.07 Q23.0893 1046.32 23.5402 1046.8 Q23.991 1047.29 25.7302 1047.29 L43.54 1047.29 Z"
     fill="#000000"
     fill-rule="nonzero"
     fill-opacity="1"
     id="path64" />
  <path
     clip-path="url(#clip610)"
     d="M66.0841 1007.96 L64.0551 1007.96 Q64.0551 1004.45 63.6364 1003.64 Q63.1856 1002.8 61.06 1002.8 L43.379 1002.8 Q40.9313 1002.8 40.3194 1003.67 Q39.7075 1004.51 39.7075 1007.96 L37.6463 1007.96 L36.9378 998.778 L44.1841 998.778 Q41.35 997.844 39.16 995.879 Q36.9378 993.882 36.9378 990.662 Q36.9378 988.536 38.1294 987.184 Q39.321 985.799 40.9635 985.799 Q42.4128 985.799 43.1535 986.701 Q43.8621 987.57 43.8621 988.633 Q43.8621 989.824 43.1213 990.662 Q42.3484 991.467 41.0279 991.467 Q40.2228 991.467 39.6109 991.113 Q38.9668 990.726 38.7413 990.436 Q38.5159 990.147 38.4515 989.953 Q38.3871 990.082 38.3871 990.662 Q38.3871 994.301 42.0263 996.394 Q45.6334 998.456 50.7863 998.456 L60.9312 998.456 Q62.8313 998.456 63.4432 997.683 Q64.0551 996.878 64.0551 993.432 L64.0551 992.047 L66.0841 992.047 Q65.8909 994.688 65.8909 1000.42 Q65.8909 1001.23 65.9231 1002.48 Q65.9553 1003.74 66.0197 1005.38 Q66.0841 1007.02 66.0841 1007.96 Z"
     fill="#000000"
     fill-rule="nonzero"
     fill-opacity="1"
     id="path65" />
  <path
     clip-path="url(#clip610)"
     d="M62.5415 975.783 Q58.2259 980.131 51.9779 980.131 Q45.6978 980.131 41.1246 975.879 Q36.5191 971.596 36.5191 965.477 Q36.5191 959.487 41.0923 955.203 Q45.6334 950.888 51.9779 950.888 Q58.1937 950.888 62.5092 955.235 Q66.8248 959.551 66.8248 965.541 Q66.8248 971.403 62.5415 975.783 M51.4304 974.656 Q57.8394 974.656 60.7379 972.981 Q65.1501 970.404 65.1501 965.477 Q65.1501 963.029 63.8297 961 Q62.5092 958.939 60.287 957.812 Q57.3885 956.363 51.4304 956.363 Q45.0859 956.363 42.284 958.102 Q38.0006 960.678 38.0006 965.541 Q38.0006 967.667 39.1278 969.76 Q40.2228 971.821 42.4128 973.078 Q45.3113 974.656 51.4304 974.656 Z"
     fill="#000000"
     fill-rule="nonzero"
     fill-opacity="1"
     id="path66" />
  <path
     clip-path="url(#clip610)"
     d="M23.0893 947.467 L21.0281 947.467 L20.3196 937.966 L41.2212 937.966 Q36.9378 934.133 36.9378 928.916 Q36.9378 923.248 41.2856 919.093 Q45.6334 914.939 51.8491 914.939 Q58.1292 914.939 62.477 919.286 Q66.8248 923.634 66.8248 929.657 Q66.8248 935.132 61.994 938.288 Q66.0197 940.607 66.0841 940.671 L66.0841 942.314 L26.7607 942.314 Q24.3131 942.314 23.7012 943.183 Q23.0893 944.053 23.0893 947.467 M58.5801 937.773 Q59.965 937.773 61.3498 936.839 Q65.3434 934.23 65.3434 929.979 Q65.3434 929.947 65.3434 929.914 Q65.3434 925.309 61.1244 922.443 Q57.9682 920.414 51.7847 920.414 Q45.6656 920.414 42.606 922.314 Q38.3871 924.955 38.3871 929.238 Q38.3871 934.069 42.606 937.032 Q43.6688 937.773 44.9893 937.773 L58.5801 937.773 Z"
     fill="#000000"
     fill-rule="nonzero"
     fill-opacity="1"
     id="path67" />
  <path
     clip-path="url(#clip610)"
     d="M59.804 911.494 Q54.2001 911.494 51.2372 904.892 Q49.337 900.93 48.854 892.75 L46.4385 892.75 Q42.3484 892.75 40.1906 894.908 Q38.0006 897.033 38.0006 899.739 Q38.0006 904.57 41.0279 906.888 Q41.0923 904.924 42.0907 904.215 Q43.0569 903.507 44.0553 903.507 Q45.3757 903.507 46.2453 904.344 Q47.0826 905.149 47.0826 906.534 Q47.0826 907.855 46.2775 908.724 Q45.4401 909.594 43.9909 909.594 Q40.7703 909.594 38.6447 906.695 Q36.5191 903.764 36.5191 899.61 Q36.5191 894.199 40.1584 890.592 Q41.2856 889.465 42.7348 888.918 Q44.1841 888.338 45.1503 888.273 Q46.0843 888.209 47.9522 888.209 L61.1244 888.209 Q61.5109 888.209 62.155 888.08 Q62.7991 887.951 63.6364 887.372 Q64.4416 886.76 64.4416 885.761 Q64.4416 883.378 60.2226 883.41 L56.519 883.41 L56.519 881.736 L60.2226 881.736 Q63.7331 881.736 65.1179 883.604 Q66.4706 885.439 66.4706 887.146 Q66.4706 889.336 64.8603 890.721 Q63.25 892.106 61.06 892.299 Q63.572 893.298 65.2145 895.584 Q66.8248 897.839 66.8248 900.93 Q66.8248 903.314 66.2129 905.568 Q65.6332 907.79 63.9907 909.658 Q62.316 911.494 59.804 911.494 M59.7395 906.405 Q62.1872 906.405 63.7653 904.666 Q65.3434 902.927 65.3434 900.479 Q65.3434 897.71 63.2178 895.23 Q61.06 892.75 56.841 892.75 L50.2388 892.75 Q50.4965 900.061 53.4272 903.249 Q56.3257 906.405 59.7395 906.405 Z"
     fill="#000000"
     fill-rule="nonzero"
     fill-opacity="1"
     id="path68" />
  <path
     clip-path="url(#clip610)"
     d="M23.0893 878.83 L21.0281 878.83 L20.3196 869.329 L41.2212 869.329 Q36.9378 865.497 36.9378 860.279 Q36.9378 854.611 41.2856 850.456 Q45.6334 846.302 51.8491 846.302 Q58.1292 846.302 62.477 850.65 Q66.8248 854.997 66.8248 861.02 Q66.8248 866.495 61.994 869.651 Q66.0197 871.97 66.0841 872.034 L66.0841 873.677 L26.7607 873.677 Q24.3131 873.677 23.7012 874.546 Q23.0893 875.416 23.0893 878.83 M58.5801 869.136 Q59.965 869.136 61.3498 868.202 Q65.3434 865.593 65.3434 861.342 Q65.3434 861.31 65.3434 861.278 Q65.3434 856.672 61.1244 853.806 Q57.9682 851.777 51.7847 851.777 Q45.6656 851.777 42.606 853.677 Q38.3871 856.318 38.3871 860.601 Q38.3871 865.432 42.606 868.395 Q43.6688 869.136 44.9893 869.136 L58.5801 869.136 Z"
     fill="#000000"
     fill-rule="nonzero"
     fill-opacity="1"
     id="path69" />
  <path
     clip-path="url(#clip610)"
     d="M66.0841 844.177 L64.0551 844.177 Q64.0551 840.667 63.6364 839.862 Q63.1856 839.056 61.06 839.056 L43.3146 839.056 Q40.8669 839.056 40.2872 839.894 Q39.7075 840.699 39.7075 843.919 L37.6463 843.919 L36.9378 834.709 L61.1244 834.709 Q63.0889 834.709 63.572 834 Q64.0551 833.292 64.0551 830.071 L66.0841 830.071 Q65.8909 836.802 65.8909 836.931 Q65.8909 837.833 66.0841 844.177 M25.4403 841.407 Q24.1199 841.407 23.0571 840.409 Q21.9621 839.378 21.9621 837.929 Q21.9621 836.48 22.9604 835.449 Q23.9266 834.419 25.4725 834.419 Q26.9862 834.419 27.9846 835.449 Q28.9507 836.48 28.9507 837.929 Q28.9507 839.443 27.8879 840.441 Q26.8252 841.407 25.4403 841.407 Z"
     fill="#000000"
     fill-rule="nonzero"
     fill-opacity="1"
     id="path70" />
  <path
     clip-path="url(#clip610)"
     d="M66.0841 824.243 L64.0551 824.243 Q64.0551 820.732 63.6364 819.927 Q63.1856 819.122 61.06 819.122 L26.7607 819.122 Q24.3131 819.122 23.7012 819.991 Q23.0893 820.829 23.0893 824.243 L21.0281 824.243 L20.3196 814.774 L61.06 814.774 Q63.1856 814.774 63.6364 813.937 Q64.0551 813.099 64.0551 809.621 L66.0841 809.621 Q66.0841 810.426 66.0197 812.101 Q65.9553 813.776 65.9231 815 Q65.8909 816.223 65.8909 816.932 Q65.8909 817.705 66.0841 824.243 Z"
     fill="#000000"
     fill-rule="nonzero"
     fill-opacity="1"
     id="path71" />
  <path
     clip-path="url(#clip610)"
     d="M66.0841 806.684 L64.0551 806.684 Q64.0551 803.174 63.6364 802.369 Q63.1856 801.563 61.06 801.563 L43.3146 801.563 Q40.8669 801.563 40.2872 802.401 Q39.7075 803.206 39.7075 806.427 L37.6463 806.427 L36.9378 797.216 L61.1244 797.216 Q63.0889 797.216 63.572 796.507 Q64.0551 795.799 64.0551 792.578 L66.0841 792.578 Q65.8909 799.309 65.8909 799.438 Q65.8909 800.34 66.0841 806.684 M25.4403 803.914 Q24.1199 803.914 23.0571 802.916 Q21.9621 801.886 21.9621 800.436 Q21.9621 798.987 22.9604 797.956 Q23.9266 796.926 25.4725 796.926 Q26.9862 796.926 27.9846 797.956 Q28.9507 798.987 28.9507 800.436 Q28.9507 801.95 27.8879 802.948 Q26.8252 803.914 25.4403 803.914 Z"
     fill="#000000"
     fill-rule="nonzero"
     fill-opacity="1"
     id="path72" />
  <path
     clip-path="url(#clip610)"
     d="M39.7075 788.07 L38.2582 788.07 Q38.1294 785.042 36.0038 783.046 Q33.846 781.017 31.2051 780.34 Q28.5643 779.632 25.5047 779.567 L25.5047 777.925 L37.6463 777.925 L37.6463 768.489 L39.7075 768.489 L39.7075 777.925 L58.0326 777.925 Q65.1501 777.925 65.1501 773.481 Q65.1501 771.58 63.2178 770.324 Q61.2532 769.068 57.775 769.068 L54.1357 769.068 L54.1357 767.426 L57.9038 767.426 Q61.4787 767.426 64.1517 769.068 Q66.8248 770.711 66.8248 773.964 Q66.8248 775.155 66.5028 776.347 Q66.2129 777.506 65.44 779.052 Q64.6348 780.566 62.7025 781.532 Q60.7379 782.466 57.9038 782.466 L39.7075 782.466 L39.7075 788.07 Z"
     fill="#000000"
     fill-rule="nonzero"
     fill-opacity="1"
     id="path73" />
  <path
     clip-path="url(#clip610)"
     d="M74.2644 763.27 Q72.8795 763.27 72.1388 762.465 Q71.4303 761.628 71.4303 760.501 Q71.4303 759.309 72.171 758.536 Q72.9439 757.731 74.2 757.731 Q76.6476 757.731 76.9697 760.307 Q78.1613 759.051 78.1613 757.216 Q78.1613 755.251 76.712 753.673 Q75.2628 752.063 73.8779 751.386 Q72.4931 750.678 69.981 749.679 Q68.0164 748.746 66.0841 748.037 L41.9941 757.924 Q40.416 758.568 40.0618 759.567 Q39.7075 760.565 39.7075 763.27 L37.6463 763.27 Q37.8396 760.307 37.8396 756.861 Q37.8396 754.832 37.6463 749.679 L39.7075 749.679 Q39.7075 753.383 41.4144 753.383 Q41.6076 753.383 42.606 752.997 L60.3515 745.654 L44.1197 738.987 Q43.1857 738.601 42.5416 738.601 Q39.8363 738.601 39.7075 741.692 L37.6463 741.692 Q37.8396 737.345 37.8396 735.96 Q37.8396 733.254 37.6463 731.032 L39.7075 731.032 Q39.7075 735.444 43.9265 737.151 L72.0744 748.778 Q79.5784 751.934 79.6106 757.216 Q79.6106 759.728 78.0647 761.499 Q76.5188 763.27 74.2644 763.27 Z"
     fill="#000000"
     fill-rule="nonzero"
     fill-opacity="1"
     id="path74" />
  <path
     clip-path="url(#clip610)"
     d="M62.5415 707.073 Q58.2259 711.421 51.9779 711.421 Q45.6978 711.421 41.1246 707.17 Q36.5191 702.886 36.5191 696.767 Q36.5191 690.777 41.0923 686.494 Q45.6334 682.178 51.9779 682.178 Q58.1937 682.178 62.5092 686.526 Q66.8248 690.841 66.8248 696.832 Q66.8248 702.693 62.5415 707.073 M51.4304 705.946 Q57.8394 705.946 60.7379 704.271 Q65.1501 701.695 65.1501 696.767 Q65.1501 694.32 63.8297 692.291 Q62.5092 690.23 60.287 689.102 Q57.3885 687.653 51.4304 687.653 Q45.0859 687.653 42.284 689.392 Q38.0006 691.969 38.0006 696.832 Q38.0006 698.957 39.1278 701.051 Q40.2228 703.112 42.4128 704.368 Q45.3113 705.946 51.4304 705.946 Z"
     fill="#000000"
     fill-rule="nonzero"
     fill-opacity="1"
     id="path75" />
  <path
     clip-path="url(#clip610)"
     d="M39.7075 678.757 L37.6463 678.757 L37.6463 673.572 L30.0779 673.572 Q25.1827 673.572 22.3807 670.416 Q19.5788 667.227 19.5788 663.33 Q19.5788 660.754 20.9637 659.079 Q22.3485 657.404 24.2165 657.404 Q25.4725 657.404 26.3099 658.177 Q27.115 658.918 27.115 660.303 Q27.115 661.623 26.2777 662.396 Q25.4403 663.137 24.2809 663.137 Q22.1553 663.137 21.5112 661.173 Q21.0603 662.171 21.0281 663.33 Q21.0281 665.714 23.4757 667.582 Q25.9234 669.417 30.0135 669.417 L37.6463 669.417 L37.6463 661.688 L39.7075 661.688 L39.7075 669.192 L60.9312 669.192 Q62.8313 669.192 63.4432 668.419 Q64.0551 667.614 64.0551 664.2 L64.0551 662.815 L66.0841 662.815 Q65.8909 665.456 65.8909 671.189 Q65.8909 671.994 65.9231 673.25 Q65.9553 674.474 66.0197 676.148 Q66.0841 677.791 66.0841 678.693 L64.0551 678.693 Q64.0551 675.182 63.6364 674.377 Q63.1856 673.572 61.06 673.572 L39.7075 673.572 L39.7075 678.757 Z"
     fill="#000000"
     fill-rule="nonzero"
     fill-opacity="1"
     id="path76" />
  <path
     clip-path="url(#clip610)"
     d="M65.2145 641.421 L56.519 641.421 Q55.7782 641.421 55.5206 641.389 Q55.2629 641.357 55.0697 641.164 Q54.8765 640.971 54.8765 640.584 Q54.8765 640.133 55.0697 639.972 Q55.2629 639.779 56.0037 639.65 Q60.5447 638.652 62.9601 636.526 Q65.3434 634.368 65.3434 630.471 Q65.3434 626.768 63.7009 624.9 Q62.0584 623.032 59.3531 623.032 Q54.5222 623.032 53.2984 629.892 Q52.4932 633.853 51.9779 635.496 Q51.4304 637.138 50.2388 638.587 Q47.92 641.421 44.635 641.421 Q41.35 641.421 38.9346 638.942 Q36.5191 636.429 36.5191 630.89 Q36.5191 627.186 38.3871 624.674 Q37.8073 623.934 37.3243 623.547 Q36.5191 622.678 36.5191 622.227 Q36.5191 621.711 36.8734 621.615 Q37.1954 621.518 38.1294 621.518 L44.7638 621.518 Q45.5045 621.518 45.7622 621.55 Q46.0198 621.583 46.2131 621.776 Q46.3741 621.969 46.3741 622.388 Q46.3741 623.128 45.7622 623.161 Q37.7751 623.676 37.7751 630.89 Q37.7751 634.787 39.2888 636.526 Q40.7703 638.265 42.7993 638.265 Q43.9265 638.265 44.796 637.75 Q45.6334 637.202 46.1487 636.526 Q46.6318 635.818 47.1148 634.529 Q47.5657 633.241 47.7268 632.468 Q47.8878 631.663 48.2098 630.149 Q49.2082 624.868 51.366 622.645 Q54.1357 619.876 57.6462 619.876 Q61.5431 619.876 64.1839 622.517 Q66.8248 625.157 66.8248 630.471 Q66.8248 634.755 63.9585 637.75 Q64.345 638.136 64.6992 638.426 Q65.0213 638.716 65.1501 638.845 Q65.2789 638.942 65.3756 638.974 Q65.44 639.006 65.5044 639.07 Q66.8248 640.391 66.8248 640.713 Q66.8248 641.228 66.4706 641.325 Q66.1485 641.421 65.2145 641.421 Z"
     fill="#000000"
     fill-rule="nonzero"
     fill-opacity="1"
     id="path77" />
  <path
     clip-path="url(#clip610)"
     d="M39.7075 618.045 L38.2582 618.045 Q38.1294 615.018 36.0038 613.021 Q33.846 610.992 31.2051 610.316 Q28.5643 609.607 25.5047 609.543 L25.5047 607.9 L37.6463 607.9 L37.6463 598.464 L39.7075 598.464 L39.7075 607.9 L58.0326 607.9 Q65.1501 607.9 65.1501 603.456 Q65.1501 601.556 63.2178 600.3 Q61.2532 599.044 57.775 599.044 L54.1357 599.044 L54.1357 597.401 L57.9038 597.401 Q61.4787 597.401 64.1517 599.044 Q66.8248 600.686 66.8248 603.939 Q66.8248 605.131 66.5028 606.322 Q66.2129 607.482 65.44 609.028 Q64.6348 610.541 62.7025 611.507 Q60.7379 612.441 57.9038 612.441 L39.7075 612.441 L39.7075 618.045 Z"
     fill="#000000"
     fill-rule="nonzero"
     fill-opacity="1"
     id="path78" />
  <path
     clip-path="url(#clip610)"
     d="M59.804 593.315 Q54.2001 593.315 51.2372 586.713 Q49.337 582.751 48.854 574.571 L46.4385 574.571 Q42.3484 574.571 40.1906 576.729 Q38.0006 578.854 38.0006 581.56 Q38.0006 586.391 41.0279 588.709 Q41.0923 586.745 42.0907 586.036 Q43.0569 585.328 44.0553 585.328 Q45.3757 585.328 46.2453 586.165 Q47.0826 586.97 47.0826 588.355 Q47.0826 589.676 46.2775 590.545 Q45.4401 591.415 43.9909 591.415 Q40.7703 591.415 38.6447 588.516 Q36.5191 585.585 36.5191 581.431 Q36.5191 576.02 40.1584 572.413 Q41.2856 571.286 42.7348 570.738 Q44.1841 570.159 45.1503 570.094 Q46.0843 570.03 47.9522 570.03 L61.1244 570.03 Q61.5109 570.03 62.155 569.901 Q62.7991 569.772 63.6364 569.193 Q64.4416 568.581 64.4416 567.582 Q64.4416 565.199 60.2226 565.231 L56.519 565.231 L56.519 563.557 L60.2226 563.557 Q63.7331 563.557 65.1179 565.425 Q66.4706 567.26 66.4706 568.967 Q66.4706 571.157 64.8603 572.542 Q63.25 573.927 61.06 574.12 Q63.572 575.118 65.2145 577.405 Q66.8248 579.66 66.8248 582.751 Q66.8248 585.134 66.2129 587.389 Q65.6332 589.611 63.9907 591.479 Q62.316 593.315 59.804 593.315 M59.7395 588.226 Q62.1872 588.226 63.7653 586.487 Q65.3434 584.748 65.3434 582.3 Q65.3434 579.531 63.2178 577.051 Q61.06 574.571 56.841 574.571 L50.2388 574.571 Q50.4965 581.882 53.4272 585.07 Q56.3257 588.226 59.7395 588.226 Z"
     fill="#000000"
     fill-rule="nonzero"
     fill-opacity="1"
     id="path79" />
  <path
     clip-path="url(#clip610)"
     d="M23.0893 560.651 L21.0281 560.651 L20.3196 551.15 L41.2212 551.15 Q36.9378 547.317 36.9378 542.1 Q36.9378 536.432 41.2856 532.277 Q45.6334 528.123 51.8491 528.123 Q58.1292 528.123 62.477 532.471 Q66.8248 536.818 66.8248 542.841 Q66.8248 548.316 61.994 551.472 Q66.0197 553.791 66.0841 553.855 L66.0841 555.498 L26.7607 555.498 Q24.3131 555.498 23.7012 556.367 Q23.0893 557.237 23.0893 560.651 M58.5801 550.957 Q59.965 550.957 61.3498 550.023 Q65.3434 547.414 65.3434 543.163 Q65.3434 543.131 65.3434 543.099 Q65.3434 538.493 61.1244 535.627 Q57.9682 533.598 51.7847 533.598 Q45.6656 533.598 42.606 535.498 Q38.3871 538.139 38.3871 542.422 Q38.3871 547.253 42.606 550.216 Q43.6688 550.957 44.9893 550.957 L58.5801 550.957 Z"
     fill="#000000"
     fill-rule="nonzero"
     fill-opacity="1"
     id="path80" />
  <path
     clip-path="url(#clip610)"
     d="M66.0841 525.998 L64.0551 525.998 Q64.0551 522.488 63.6364 521.682 Q63.1856 520.877 61.06 520.877 L43.3146 520.877 Q40.8669 520.877 40.2872 521.715 Q39.7075 522.52 39.7075 525.74 L37.6463 525.74 L36.9378 516.53 L61.1244 516.53 Q63.0889 516.53 63.572 515.821 Q64.0551 515.112 64.0551 511.892 L66.0841 511.892 Q65.8909 518.623 65.8909 518.752 Q65.8909 519.653 66.0841 525.998 M25.4403 523.228 Q24.1199 523.228 23.0571 522.23 Q21.9621 521.199 21.9621 519.75 Q21.9621 518.301 22.9604 517.27 Q23.9266 516.24 25.4725 516.24 Q26.9862 516.24 27.9846 517.27 Q28.9507 518.301 28.9507 519.75 Q28.9507 521.264 27.8879 522.262 Q26.8252 523.228 25.4403 523.228 Z"
     fill="#000000"
     fill-rule="nonzero"
     fill-opacity="1"
     id="path81" />
  <path
     clip-path="url(#clip610)"
     d="M66.0841 506.064 L64.0551 506.064 Q64.0551 502.553 63.6364 501.748 Q63.1856 500.943 61.06 500.943 L26.7607 500.943 Q24.3131 500.943 23.7012 501.812 Q23.0893 502.65 23.0893 506.064 L21.0281 506.064 L20.3196 496.595 L61.06 496.595 Q63.1856 496.595 63.6364 495.758 Q64.0551 494.92 64.0551 491.442 L66.0841 491.442 Q66.0841 492.247 66.0197 493.922 Q65.9553 495.597 65.9231 496.821 Q65.8909 498.044 65.8909 498.753 Q65.8909 499.526 66.0841 506.064 Z"
     fill="#000000"
     fill-rule="nonzero"
     fill-opacity="1"
     id="path82" />
  <path
     clip-path="url(#clip610)"
     d="M66.0841 488.505 L64.0551 488.505 Q64.0551 484.995 63.6364 484.19 Q63.1856 483.384 61.06 483.384 L43.3146 483.384 Q40.8669 483.384 40.2872 484.222 Q39.7075 485.027 39.7075 488.248 L37.6463 488.248 L36.9378 479.037 L61.1244 479.037 Q63.0889 479.037 63.572 478.328 Q64.0551 477.62 64.0551 474.399 L66.0841 474.399 Q65.8909 481.13 65.8909 481.259 Q65.8909 482.161 66.0841 488.505 M25.4403 485.735 Q24.1199 485.735 23.0571 484.737 Q21.9621 483.706 21.9621 482.257 Q21.9621 480.808 22.9604 479.777 Q23.9266 478.747 25.4725 478.747 Q26.9862 478.747 27.9846 479.777 Q28.9507 480.808 28.9507 482.257 Q28.9507 483.771 27.8879 484.769 Q26.8252 485.735 25.4403 485.735 Z"
     fill="#000000"
     fill-rule="nonzero"
     fill-opacity="1"
     id="path83" />
  <path
     clip-path="url(#clip610)"
     d="M39.7075 469.891 L38.2582 469.891 Q38.1294 466.863 36.0038 464.867 Q33.846 462.838 31.2051 462.161 Q28.5643 461.453 25.5047 461.388 L25.5047 459.746 L37.6463 459.746 L37.6463 450.31 L39.7075 450.31 L39.7075 459.746 L58.0326 459.746 Q65.1501 459.746 65.1501 455.301 Q65.1501 453.401 63.2178 452.145 Q61.2532 450.889 57.775 450.889 L54.1357 450.889 L54.1357 449.247 L57.9038 449.247 Q61.4787 449.247 64.1517 450.889 Q66.8248 452.532 66.8248 455.785 Q66.8248 456.976 66.5028 458.168 Q66.2129 459.327 65.44 460.873 Q64.6348 462.387 62.7025 463.353 Q60.7379 464.287 57.9038 464.287 L39.7075 464.287 L39.7075 469.891 Z"
     fill="#000000"
     fill-rule="nonzero"
     fill-opacity="1"
     id="path84" />
  <path
     clip-path="url(#clip610)"
     d="M74.2644 445.091 Q72.8795 445.091 72.1388 444.286 Q71.4303 443.449 71.4303 442.322 Q71.4303 441.13 72.171 440.357 Q72.9439 439.552 74.2 439.552 Q76.6476 439.552 76.9697 442.128 Q78.1613 440.872 78.1613 439.037 Q78.1613 437.072 76.712 435.494 Q75.2628 433.884 73.8779 433.207 Q72.4931 432.499 69.981 431.5 Q68.0164 430.566 66.0841 429.858 L41.9941 439.745 Q40.416 440.389 40.0618 441.388 Q39.7075 442.386 39.7075 445.091 L37.6463 445.091 Q37.8396 442.128 37.8396 438.682 Q37.8396 436.653 37.6463 431.5 L39.7075 431.5 Q39.7075 435.204 41.4144 435.204 Q41.6076 435.204 42.606 434.818 L60.3515 427.475 L44.1197 420.808 Q43.1857 420.422 42.5416 420.422 Q39.8363 420.422 39.7075 423.513 L37.6463 423.513 Q37.8396 419.166 37.8396 417.781 Q37.8396 415.075 37.6463 412.853 L39.7075 412.853 Q39.7075 417.265 43.9265 418.972 L72.0744 430.599 Q79.5784 433.755 79.6106 439.037 Q79.6106 441.549 78.0647 443.32 Q76.5188 445.091 74.2644 445.091 Z"
     fill="#000000"
     fill-rule="nonzero"
     fill-opacity="1"
     id="path85" />
  <polyline
     clip-path="url(#clip612)"
     style="stroke:#009af9; stroke-linecap:round; stroke-linejoin:round; stroke-width:8; stroke-opacity:1; fill:none"
     points="309.067,86.1857 375.206,86.1857 441.345,86.1857 507.483,86.1857 573.622,86.1857 639.761,86.1857 705.9,86.1857 772.039,86.1857 838.177,86.1857 904.316,86.1857 970.455,86.1857 1036.59,86.1857 1102.73,86.1857 1168.87,86.1857 1235.01,86.1857 1301.15,86.1857 1367.29,86.1857 1433.43,99.1662 1499.57,267.913 1565.7,86.1857 1631.84,1384.24 1697.98,1345.3 1764.12,1384.24 1830.26,1280.39 1896.4,1384.24 1962.54,1293.37 2028.68,1384.24 2094.81,1384.24 2160.95,1384.24 2227.09,1384.24 2293.23,1384.24 "
     id="polyline85" />
</svg>
